SplineFontDB: 3.0
FontName: Neuton-Light
FullName: Neuton Light
FamilyName: Neuton
Weight: Light
Copyright: Copyright (c) 2010, 2011 Brian M Zick (http://21326.info/),\nwith Reserved Font Name "Neuton".\n\nThis Font Software is licensed under the SIL Open Font License, Version 1.1.\nThis license is available with a FAQ at: http://scripts.sil.org/OFL
Version: 1.42
ItalicAngle: 0
UnderlinePosition: -361
UnderlineWidth: 0
Ascent: 1638
Descent: 410
LayerCount: 2
Layer: 0 1 "Back"  1
Layer: 1 1 "Fore"  0
XUID: [1021 288 713564382 3045355]
FSType: 0
OS2Version: 1
OS2_WeightWidthSlopeOnly: 0
OS2_UseTypoMetrics: 1
CreationTime: 1307389376
ModificationTime: 1313786121
PfmFamily: 17
TTFWeight: 300
TTFWidth: 5
LineGap: 0
VLineGap: 0
Panose: 2 0 3 3 0 0 0 0 0 0
OS2TypoAscent: 2106
OS2TypoAOffset: 0
OS2TypoDescent: -485
OS2TypoDOffset: 0
OS2TypoLinegap: 0
OS2WinAscent: 2106
OS2WinAOffset: 0
OS2WinDescent: 485
OS2WinDOffset: 0
HheadAscent: 2106
HheadAOffset: 0
HheadDescent: -485
HheadDOffset: 0
OS2SubXSize: 1331
OS2SubYSize: 1433
OS2SubXOff: 0
OS2SubYOff: 286
OS2SupXSize: 1331
OS2SupYSize: 1433
OS2SupXOff: 0
OS2SupYOff: 983
OS2StrikeYSize: 102
OS2StrikeYPos: 530
OS2Vendor: 'PfEd'
OS2CodePages: a0000093.00000000
OS2UnicodeRanges: a00000ef.1000204a.00000000.00000000
MarkAttachClasses: 1
DEI: 91125
TtTable: prep
PUSHW_1
 511
SCANCTRL
PUSHB_1
 4
SCANTYPE
EndTTInstrs
ShortTable: maxp 16
  1
  0
  397
  79
  5
  0
  0
  2
  0
  1
  1
  0
  64
  0
  0
  0
EndShort
LangName: 1033 "" "" "" "Reptile : Neuton Light : 22-7-2011" "" "" "" "" "" "Brian M Zick" "" "" "http://21326.info/" "This Font Software is licensed under the SIL Open Font License, Version 1.1.+AAoA-This license is available with a FAQ at: http://scripts.sil.org/OFL" "http://scripts.sil.org/OFL" 
GaspTable: 1 65535 15
Encoding: UnicodeBmp
UnicodeInterp: none
NameList: Adobe Glyph List
DisplaySize: -36
AntiAlias: 1
FitToEm: 1
WinInfo: 64 16 16
BeginPrivate: 0
EndPrivate
BeginChars: 65567 397

StartChar: .notdef
Encoding: 65536 -1 0
Width: 564
Flags: W
LayerCount: 2
Fore
SplineSet
96 55 m 1,0,-1
 427 55 l 1,1,-1
 427 1051 l 1,2,-1
 96 1051 l 1,3,-1
 96 55 l 1,0,-1
41 0 m 1,4,-1
 41 1107 l 1,5,-1
 482 1107 l 1,6,-1
 482 0 l 1,7,-1
 41 0 l 1,4,-1
EndSplineSet
EndChar

StartChar: exclam
Encoding: 33 33 4
Width: 447
Flags: W
LayerCount: 2
Fore
SplineSet
162 1254 m 0,0,1
 162 1272 162 1272 195.5 1282.5 c 128,-1,2
 229 1293 229 1293 262 1293 c 0,3,4
 321 1293 321 1293 321 1254 c 0,5,6
 321 983 321 983 269 361 c 1,7,-1
 202 376 l 1,8,9
 162 1018 162 1018 162 1254 c 0,0,1
170.5 -2 m 128,-1,11
 146 31 146 31 146 77.5 c 128,-1,12
 146 124 146 124 172 154 c 128,-1,13
 198 184 198 184 236.5 184 c 128,-1,14
 275 184 275 184 302 153.5 c 128,-1,15
 329 123 329 123 329 76 c 128,-1,16
 329 29 329 29 304 -3 c 128,-1,17
 279 -35 279 -35 237 -35 c 128,-1,10
 195 -35 195 -35 170.5 -2 c 128,-1,11
EndSplineSet
EndChar

StartChar: quotedbl
Encoding: 34 34 5
Width: 437
Flags: W
LayerCount: 2
Fore
SplineSet
289 1303 m 1,0,-1
 436 1291 l 1,1,-1
 400 899 l 1,2,-1
 326 891 l 1,3,-1
 289 1303 l 1,0,-1
103 1303 m 1,4,-1
 248 1291 l 1,5,-1
 212 899 l 1,6,-1
 139 891 l 1,7,-1
 103 1303 l 1,4,-1
EndSplineSet
EndChar

StartChar: numbersign
Encoding: 35 35 6
Width: 914
Flags: W
LayerCount: 2
Fore
SplineSet
593 -19 m 1,0,-1
 499 -26 l 1,1,-1
 552 326 l 1,2,-1
 327 326 l 1,3,-1
 275 -19 l 1,4,-1
 182 -26 l 1,5,-1
 235 326 l 1,6,-1
 -30 326 l 1,7,-1
 -3 427 l 1,8,-1
 250 427 l 1,9,-1
 293 712 l 1,10,-1
 41 712 l 1,11,-1
 69 813 l 1,12,-1
 308 813 l 1,13,-1
 359 1150 l 1,14,-1
 452 1160 l 1,15,-1
 400 813 l 1,16,-1
 625 813 l 1,17,-1
 676 1150 l 1,18,-1
 769 1159 l 1,19,-1
 717 813 l 1,20,-1
 979 813 l 1,21,-1
 954 712 l 1,22,-1
 702 712 l 1,23,-1
 660 427 l 1,24,-1
 905 427 l 1,25,-1
 879 326 l 1,26,-1
 645 326 l 1,27,-1
 593 -19 l 1,0,-1
567 427 m 1,28,-1
 610 712 l 1,29,-1
 385 712 l 1,30,-1
 342 427 l 1,31,-1
 567 427 l 1,28,-1
EndSplineSet
EndChar

StartChar: dollar
Encoding: 36 36 7
Width: 860
Flags: W
LayerCount: 2
Fore
SplineSet
80 119 m 1,0,-1
 102 395 l 1,1,-1
 177 384 l 1,2,-1
 210 181 l 1,3,4
 238 132 238 132 295.5 98.5 c 128,-1,5
 353 65 353 65 422 58 c 1,6,-1
 422 564 l 1,7,8
 422 564 422 564 346 610 c 1,9,10
 253 669 253 669 220 705.5 c 128,-1,11
 187 742 187 742 163 776 c 0,12,13
 116 844 116 844 116 956 c 128,-1,14
 116 1068 116 1068 197 1153.5 c 128,-1,15
 278 1239 278 1239 398 1262 c 1,16,-1
 387 1395 l 1,17,-1
 524 1411 l 1,18,-1
 511 1269 l 1,19,20
 669 1258 669 1258 764 1165 c 1,21,-1
 737 869 l 1,22,-1
 664 878 l 1,23,-1
 638 1096 l 1,24,25
 620 1130 620 1130 576 1159 c 128,-1,26
 532 1188 532 1188 482 1197 c 1,27,-1
 482 721 l 1,28,29
 496 712 496 712 531 692 c 0,30,31
 708 589 708 589 755.5 531 c 128,-1,32
 803 473 803 473 820 428.5 c 128,-1,33
 837 384 837 384 837 331 c 0,34,35
 837 200 837 200 747.5 106.5 c 128,-1,36
 658 13 658 13 516 -15 c 1,37,-1
 527 -164 l 1,38,-1
 382 -179 l 1,39,-1
 392 -25 l 1,40,41
 295 -21 295 -21 211.5 19.5 c 128,-1,42
 128 60 128 60 80 119 c 1,0,-1
426 756 m 1,43,-1
 426 1199 l 1,44,45
 350 1193 350 1193 301 1141 c 128,-1,46
 252 1089 252 1089 252 1007 c 128,-1,47
 252 925 252 925 297.5 867.5 c 128,-1,48
 343 810 343 810 426 756 c 1,43,-1
484 527 m 1,49,-1
 484 59 l 1,50,51
 570 69 570 69 630 124.5 c 128,-1,52
 690 180 690 180 690 280 c 128,-1,53
 690 380 690 380 564 473 c 0,54,55
 532 497 532 497 484 527 c 1,49,-1
EndSplineSet
EndChar

StartChar: percent
Encoding: 37 37 8
Width: 1738
Flags: W
LayerCount: 2
Fore
SplineSet
787 368 m 0,0,1
 781 323 781 323 781 269 c 128,-1,2
 781 215 781 215 793.5 157 c 128,-1,3
 806 99 806 99 833 57.5 c 128,-1,4
 860 16 860 16 898 16 c 128,-1,5
 936 16 936 16 963 58 c 0,6,7
 1012 134 1012 134 1012 256.5 c 128,-1,8
 1012 379 1012 379 979.5 462.5 c 128,-1,9
 947 546 947 546 894 546 c 0,10,11
 811 546 811 546 787 368 c 0,0,1
724.5 51.5 m 128,-1,13
 652 139 652 139 652 270.5 c 128,-1,14
 652 402 652 402 726.5 496.5 c 128,-1,15
 801 591 801 591 900.5 591 c 128,-1,16
 1000 591 1000 591 1069 500 c 128,-1,17
 1138 409 1138 409 1138 279.5 c 128,-1,18
 1138 150 1138 150 1062.5 57 c 128,-1,19
 987 -36 987 -36 892 -36 c 128,-1,12
 797 -36 797 -36 724.5 51.5 c 128,-1,13
164 -26 m 1,20,-1
 540 588 l 1,21,-1
 856 1143 l 1,22,-1
 479 1150 l 1,23,24
 506 1119 506 1119 524 1033.5 c 128,-1,25
 542 948 542 948 542 899 c 0,26,27
 542 773 542 773 465 678.5 c 128,-1,28
 388 584 388 584 293 584 c 128,-1,29
 198 584 198 584 127 671.5 c 128,-1,30
 56 759 56 759 56 891.5 c 128,-1,31
 56 1024 56 1024 130.5 1118.5 c 128,-1,32
 205 1213 205 1213 298 1213 c 0,33,34
 322 1213 322 1213 334 1209 c 1,35,-1
 334 1153 l 1,36,37
 314 1168 314 1168 289.5 1168 c 128,-1,38
 265 1168 265 1168 242.5 1142.5 c 128,-1,39
 220 1117 220 1117 202 1054.5 c 128,-1,40
 184 992 184 992 184 896 c 128,-1,41
 184 800 184 800 214.5 718.5 c 128,-1,42
 245 637 245 637 297 637 c 0,43,44
 337 637 337 637 364 678 c 0,45,46
 414 753 414 753 414 918 c 128,-1,47
 414 1083 414 1083 368 1196 c 1,48,-1
 895 1211 l 1,49,-1
 1025 1207 l 1,50,-1
 1023 1191 l 1,51,-1
 657 591 l 1,52,-1
 310 -40 l 1,53,-1
 164 -26 l 1,20,-1
EndSplineSet
EndChar

StartChar: ampersand
Encoding: 38 38 9
Width: 1282
Flags: W
LayerCount: 2
Fore
SplineSet
331 1025 m 0,0,1
 331 908 331 908 483 752 c 1,2,3
 564 810 564 810 604.5 864 c 128,-1,4
 645 918 645 918 645 999.5 c 128,-1,5
 645 1081 645 1081 601.5 1140.5 c 128,-1,6
 558 1200 558 1200 486.5 1200 c 128,-1,7
 415 1200 415 1200 373 1148 c 128,-1,8
 331 1096 331 1096 331 1025 c 0,0,1
257 494.5 m 128,-1,10
 206 425 206 425 206 328 c 128,-1,11
 206 231 206 231 265 158.5 c 128,-1,12
 324 86 324 86 424 86 c 0,13,14
 585 86 585 86 703 286 c 1,15,-1
 405 626 l 1,16,-1
 395 627 l 1,17,9
 308 564 308 564 257 494.5 c 128,-1,10
353 687 m 1,18,19
 211 834 211 834 211 963.5 c 128,-1,20
 211 1093 211 1093 299.5 1182.5 c 128,-1,21
 388 1272 388 1272 511.5 1272 c 128,-1,22
 635 1272 635 1272 707.5 1206 c 128,-1,23
 780 1140 780 1140 780 1016 c 0,24,25
 780 930 780 930 717.5 854 c 128,-1,26
 655 778 655 778 538 700 c 1,27,-1
 538 693 l 1,28,-1
 781 417 l 1,29,-1
 964 720 l 1,30,-1
 807 757 l 1,31,-1
 813 812 l 1,32,-1
 1238 812 l 1,33,-1
 1230 757 l 1,34,-1
 1061 723 l 1,35,-1
 842 356 l 1,36,37
 1053 107 1053 107 1186 64 c 1,38,-1
 1225 52 l 1,39,-1
 1215 -2 l 1,40,41
 1164 -20 1164 -20 1109 -20 c 0,42,43
 985 -20 985 -20 857 122 c 2,44,-1
 762 227 l 1,45,46
 634 42 634 42 500 -1 c 0,47,48
 441 -20 441 -20 372 -20 c 0,49,50
 230 -20 230 -20 143 63.5 c 128,-1,51
 56 147 56 147 56 273 c 128,-1,52
 56 399 56 399 134 497.5 c 128,-1,53
 212 596 212 596 353 687 c 1,18,19
EndSplineSet
EndChar

StartChar: quotesingle
Encoding: 39 39 10
Width: 333
Flags: W
LayerCount: 2
Fore
SplineSet
111 1303 m 1,0,-1
 257 1291 l 1,1,-1
 221 899 l 1,2,-1
 148 891 l 1,3,-1
 111 1303 l 1,0,-1
EndSplineSet
EndChar

StartChar: parenleft
Encoding: 40 40 11
Width: 474
Flags: W
LayerCount: 2
Fore
SplineSet
423 1201 m 1,0,1
 261 990 261 990 216 732 c 0,2,3
 194 606 194 606 194 456 c 0,4,5
 194 51 194 51 429 -330 c 1,6,-1
 381 -375 l 1,7,8
 297 -300 297 -300 248 -224 c 0,9,10
 149 -71 149 -71 99 89 c 128,-1,11
 49 249 49 249 49 450 c 0,12,13
 49 970 49 970 386 1256 c 1,14,-1
 423 1201 l 1,0,1
EndSplineSet
EndChar

StartChar: parenright
Encoding: 41 41 12
Width: 474
Flags: W
LayerCount: 2
Fore
SplineSet
54 1201 m 1,0,-1
 91 1256 l 1,1,2
 428 970 428 970 428 450 c 0,3,4
 428 85 428 85 249 -193 c 0,5,6
 180 -300 180 -300 96 -375 c 1,7,-1
 48 -330 l 1,8,9
 283 51 283 51 283 456 c 0,10,11
 283 757 283 757 199 950 c 0,12,13
 135 1095 135 1095 54 1201 c 1,0,-1
EndSplineSet
EndChar

StartChar: asterisk
Encoding: 42 42 13
Width: 593
Flags: W
LayerCount: 2
Fore
SplineSet
351 1291 m 1,0,-1
 474 1280 l 1,1,-1
 449 981 l 1,2,-1
 739 1106 l 1,3,-1
 766 990 l 1,4,-1
 475 923 l 1,5,-1
 687 686 l 1,6,-1
 582 623 l 1,7,-1
 426 882 l 1,8,-1
 265 604 l 1,9,-1
 172 685 l 1,10,-1
 370 912 l 1,11,-1
 60 978 l 1,12,-1
 108 1092 l 1,13,-1
 384 974 l 1,14,-1
 351 1291 l 1,0,-1
EndSplineSet
EndChar

StartChar: plus
Encoding: 43 43 14
Width: 680
Flags: W
LayerCount: 2
Fore
SplineSet
87 417 m 1,0,-1
 99 503 l 1,1,-1
 308 503 l 1,2,-1
 308 742 l 1,3,-1
 396 730 l 1,4,-1
 397 503 l 1,5,-1
 617 503 l 1,6,-1
 606 417 l 1,7,-1
 397 417 l 1,8,-1
 399 173 l 1,9,-1
 308 186 l 1,10,-1
 308 417 l 1,11,-1
 87 417 l 1,0,-1
EndSplineSet
EndChar

StartChar: comma
Encoding: 44 44 15
Width: 397
Flags: W
LayerCount: 2
Fore
SplineSet
54 -240 m 1,0,1
 234 -181 234 -181 234 -50 c 0,2,3
 234 3 234 3 202 38.5 c 128,-1,4
 170 74 170 74 122 74 c 0,5,6
 106 74 106 74 93 71 c 1,7,8
 85 95 85 95 85 127.5 c 128,-1,9
 85 160 85 160 117.5 189 c 128,-1,10
 150 218 150 218 202.5 218 c 128,-1,11
 255 218 255 218 303.5 164 c 128,-1,12
 352 110 352 110 352 18.5 c 128,-1,13
 352 -73 352 -73 312 -135 c 0,14,15
 239 -250 239 -250 72 -298 c 1,16,-1
 54 -240 l 1,0,1
EndSplineSet
EndChar

StartChar: hyphen
Encoding: 45 45 16
Width: 573
Flags: W
LayerCount: 2
Fore
SplineSet
81 409 m 1,0,-1
 92 489 l 1,1,-1
 500 507 l 1,2,-1
 489 426 l 1,3,-1
 81 409 l 1,0,-1
EndSplineSet
EndChar

StartChar: period
Encoding: 46 46 17
Width: 391
Flags: W
LayerCount: 2
Fore
SplineSet
134 -0.5 m 128,-1,1
 109 31 109 31 109 80 c 128,-1,2
 109 129 109 129 133.5 157.5 c 128,-1,3
 158 186 158 186 199 186 c 128,-1,4
 240 186 240 186 266 157 c 128,-1,5
 292 128 292 128 292 79 c 128,-1,6
 292 30 292 30 267 -1 c 128,-1,7
 242 -32 242 -32 200.5 -32 c 128,-1,0
 159 -32 159 -32 134 -0.5 c 128,-1,1
EndSplineSet
EndChar

StartChar: slash
Encoding: 47 47 18
Width: 610
Flags: W
LayerCount: 2
Fore
SplineSet
35 -361 m 1,0,-1
 498 1238 l 1,1,-1
 605 1244 l 1,2,-1
 139 -355 l 1,3,-1
 35 -361 l 1,0,-1
EndSplineSet
EndChar

StartChar: zero
Encoding: 48 48 19
Width: 984
Flags: W
LayerCount: 2
Fore
SplineSet
511 1125 m 0,0,1
 273 1125 273 1125 273 586.5 c 128,-1,2
 273 48 273 48 515 48 c 0,3,4
 633 48 633 48 687 180.5 c 128,-1,5
 741 313 741 313 741 587 c 0,6,7
 741 1125 741 1125 511 1125 c 0,0,1
224.5 1043.5 m 128,-1,9
 344 1203 344 1203 521.5 1203 c 128,-1,10
 699 1203 699 1203 804.5 1045 c 128,-1,11
 910 887 910 887 910 587 c 0,12,13
 910 221 910 221 738 62 c 0,14,15
 641 -27 641 -27 513 -27 c 0,16,17
 336 -27 336 -27 220.5 114.5 c 128,-1,18
 105 256 105 256 105 570 c 128,-1,8
 105 884 105 884 224.5 1043.5 c 128,-1,9
EndSplineSet
EndChar

StartChar: one
Encoding: 49 49 20
Width: 889
Flags: W
LayerCount: 2
Fore
SplineSet
120 1 m 1,0,-1
 124 61 l 1,1,-1
 398 103 l 1,2,-1
 398 1060 l 1,3,-1
 139 1060 l 1,4,-1
 144 1121 l 1,5,-1
 530 1185 l 1,6,-1
 557 1185 l 1,7,-1
 557 98 l 1,8,-1
 825 70 l 1,9,-1
 816 1 l 1,10,-1
 120 1 l 1,0,-1
EndSplineSet
EndChar

StartChar: two
Encoding: 50 50 21
Width: 959
Flags: W
LayerCount: 2
Fore
SplineSet
70 74 m 1,0,-1
 308 278 l 2,1,2
 489 433 489 433 579 560 c 128,-1,3
 669 687 669 687 669 826 c 128,-1,4
 669 965 669 965 617.5 1046.5 c 128,-1,5
 566 1128 566 1128 455 1128 c 0,6,7
 380 1128 380 1128 326.5 1097 c 128,-1,8
 273 1066 273 1066 249 1021 c 1,9,-1
 208 780 l 1,10,-1
 151 788 l 1,11,-1
 141 1057 l 1,12,13
 184 1115 184 1115 288 1162 c 128,-1,14
 392 1209 392 1209 501 1209 c 0,15,16
 659 1209 659 1209 751 1120 c 128,-1,17
 843 1031 843 1031 843 860 c 0,18,19
 843 776 843 776 820 722 c 0,20,21
 777 618 777 618 736 568 c 1,22,-1
 684 502 l 2,23,24
 663 475 663 475 621 436 c 2,25,-1
 554 373 l 2,26,27
 529 350 529 350 478 308 c 2,28,-1
 241 118 l 1,29,-1
 740 118 l 1,30,-1
 835 361 l 1,31,-1
 890 353 l 1,32,-1
 843 0 l 1,33,-1
 76 0 l 1,34,-1
 70 74 l 1,0,-1
EndSplineSet
EndChar

StartChar: three
Encoding: 51 51 22
Width: 959
Flags: W
LayerCount: 2
Fore
SplineSet
88 90 m 1,0,-1
 133 353 l 1,1,-1
 200 342 l 1,2,-1
 210 138 l 1,3,4
 233 98 233 98 287.5 67 c 128,-1,5
 342 36 342 36 405 36 c 0,6,7
 520 36 520 36 590.5 105.5 c 128,-1,8
 661 175 661 175 661 290.5 c 128,-1,9
 661 406 661 406 566 479 c 128,-1,10
 471 552 471 552 325 555 c 1,11,-1
 319 605 l 1,12,-1
 364 626 l 2,13,14
 456 669 456 669 505 715.5 c 128,-1,15
 554 762 554 762 572 790 c 0,16,17
 614 855 614 855 614 933 c 128,-1,18
 614 1011 614 1011 566.5 1074 c 128,-1,19
 519 1137 519 1137 426 1137 c 128,-1,20
 333 1137 333 1137 263 1057 c 1,21,-1
 220 833 l 1,22,-1
 156 844 l 1,23,-1
 149 1092 l 1,24,25
 195 1136 195 1136 284.5 1173.5 c 128,-1,26
 374 1211 374 1211 492.5 1211 c 128,-1,27
 611 1211 611 1211 696 1142 c 128,-1,28
 781 1073 781 1073 781 959 c 0,29,30
 781 797 781 797 606 689 c 0,31,32
 560 661 560 661 512 643 c 1,33,-1
 512 633 l 1,34,35
 651 613 651 613 739 537 c 128,-1,36
 827 461 827 461 827 350 c 128,-1,37
 827 239 827 239 765 151.5 c 128,-1,38
 703 64 703 64 602 15.5 c 128,-1,39
 501 -33 501 -33 393 -33 c 128,-1,40
 285 -33 285 -33 201 3.5 c 128,-1,41
 117 40 117 40 88 90 c 1,0,-1
EndSplineSet
EndChar

StartChar: four
Encoding: 52 52 23
Width: 972
Flags: W
LayerCount: 2
Fore
SplineSet
186 462 m 1,0,-1
 548 462 l 1,1,-1
 548 948 l 1,2,-1
 186 462 l 1,0,-1
38 415 m 1,3,-1
 655 1191 l 1,4,-1
 704 1176 l 1,5,6
 695 998 695 998 695 683 c 2,7,-1
 695 462 l 1,8,-1
 950 462 l 1,9,-1
 934 357 l 1,10,-1
 695 357 l 1,11,-1
 695 89 l 1,12,-1
 901 64 l 1,13,-1
 890 0 l 1,14,-1
 298 0 l 1,15,-1
 305 57 l 1,16,-1
 552 95 l 1,17,-1
 552 361 l 1,18,-1
 57 361 l 1,19,-1
 38 415 l 1,3,-1
EndSplineSet
EndChar

StartChar: five
Encoding: 53 53 24
Width: 959
Flags: W
LayerCount: 2
Fore
SplineSet
75 88 m 1,0,-1
 103 369 l 1,1,-1
 170 355 l 1,2,-1
 188 155 l 1,3,4
 267 58 267 58 385 58 c 128,-1,5
 503 58 503 58 566 126.5 c 128,-1,6
 629 195 629 195 629 308 c 0,7,8
 629 456 629 456 505.5 540.5 c 128,-1,9
 382 625 382 625 165 639 c 1,10,-1
 280 1171 l 1,11,-1
 729 1198 l 1,12,-1
 708 1049 l 1,13,-1
 323 1032 l 1,14,-1
 279 771 l 1,15,16
 650 748 650 748 748 516 c 0,17,18
 776 449 776 449 776 368 c 0,19,20
 776 211 776 211 654.5 97.5 c 128,-1,21
 533 -16 533 -16 358 -16 c 128,-1,22
 183 -16 183 -16 75 88 c 1,0,-1
EndSplineSet
EndChar

StartChar: six
Encoding: 54 54 25
Width: 940
Flags: W
LayerCount: 2
Fore
SplineSet
283 407 m 0,0,1
 283 251 283 251 345 147.5 c 128,-1,2
 407 44 407 44 499 44 c 0,3,4
 712 44 712 44 712 327 c 0,5,6
 712 450 712 450 652 534.5 c 128,-1,7
 592 619 592 619 484 619 c 0,8,9
 420 619 420 619 365.5 594.5 c 128,-1,10
 311 570 311 570 290 540 c 1,11,12
 283 492 283 492 283 407 c 0,0,1
120 422 m 0,13,14
 120 673 120 673 286.5 902 c 128,-1,15
 453 1131 453 1131 694 1214 c 1,16,-1
 723 1164 l 1,17,18
 373 1008 373 1008 293 609 c 1,19,-1
 302 609 l 1,20,21
 410 709 410 709 555.5 709 c 128,-1,22
 701 709 701 709 788 612 c 128,-1,23
 875 515 875 515 875 356 c 128,-1,24
 875 197 875 197 761.5 88 c 128,-1,25
 648 -21 648 -21 484 -21 c 0,26,27
 213 -21 213 -21 140 254 c 0,28,29
 120 331 120 331 120 422 c 0,13,14
EndSplineSet
EndChar

StartChar: seven
Encoding: 55 55 26
Width: 919
Flags: W
LayerCount: 2
Fore
SplineSet
83 829 m 1,0,-1
 111 1182 l 1,1,-1
 874 1182 l 1,2,-1
 874 1130 l 1,3,-1
 441 -33 l 1,4,-1
 282 -16 l 1,5,-1
 756 1047 l 1,6,-1
 205 1047 l 1,7,-1
 137 820 l 1,8,-1
 83 829 l 1,0,-1
EndSplineSet
EndChar

StartChar: eight
Encoding: 56 56 27
Width: 938
Flags: W
LayerCount: 2
Fore
SplineSet
342.5 1088 m 128,-1,1
 293 1035 293 1035 293 957.5 c 128,-1,2
 293 880 293 880 351.5 812 c 128,-1,3
 410 744 410 744 547 656 c 1,4,5
 674 740 674 740 674 890 c 0,6,7
 674 995 674 995 615 1068 c 128,-1,8
 556 1141 556 1141 474 1141 c 128,-1,0
 392 1141 392 1141 342.5 1088 c 128,-1,1
304 451.5 m 128,-1,10
 267 397 267 397 267 294.5 c 128,-1,11
 267 192 267 192 343 119.5 c 128,-1,12
 419 47 419 47 510 47 c 128,-1,13
 601 47 601 47 655.5 96.5 c 128,-1,14
 710 146 710 146 710 229.5 c 128,-1,15
 710 313 710 313 638 386 c 128,-1,16
 566 459 566 459 410 557 c 1,17,9
 341 506 341 506 304 451.5 c 128,-1,10
127 281 m 0,18,19
 127 454 127 454 357 590 c 1,20,-1
 357 597 l 1,21,22
 173 722 173 722 173 897 c 0,23,24
 173 1023 173 1023 266.5 1112.5 c 128,-1,25
 360 1202 360 1202 500 1202 c 128,-1,26
 640 1202 640 1202 719 1123.5 c 128,-1,27
 798 1045 798 1045 798 937.5 c 128,-1,28
 798 830 798 830 742.5 749 c 128,-1,29
 687 668 687 668 604 625 c 1,30,-1
 601 619 l 1,31,32
 727 534 727 534 783.5 461.5 c 128,-1,33
 840 389 840 389 840 291 c 0,34,35
 840 152 840 152 732.5 62.5 c 128,-1,36
 625 -27 625 -27 470 -27 c 128,-1,37
 315 -27 315 -27 221 59.5 c 128,-1,38
 127 146 127 146 127 281 c 0,18,19
EndSplineSet
EndChar

StartChar: nine
Encoding: 57 57 28
Width: 937
Flags: W
LayerCount: 2
Fore
SplineSet
473 1144 m 0,0,1
 264 1144 264 1144 264 862 c 0,2,3
 264 729 264 729 322 647 c 128,-1,4
 380 565 380 565 488 565 c 0,5,6
 551 565 551 565 603.5 590.5 c 128,-1,7
 656 616 656 616 679 651 c 1,8,9
 688 702 688 702 688 793 c 0,10,11
 688 945 688 945 626 1044.5 c 128,-1,12
 564 1144 564 1144 473 1144 c 0,0,1
186 568.5 m 128,-1,14
 106 665 106 665 106 824.5 c 128,-1,15
 106 984 106 984 219 1096.5 c 128,-1,16
 332 1209 332 1209 488 1209 c 0,17,18
 705 1209 705 1209 797 1019 c 0,19,20
 850 909 850 909 850 742 c 128,-1,21
 850 575 850 575 776 409 c 128,-1,22
 702 243 702 243 560 125 c 128,-1,23
 418 7 418 7 236 -27 c 1,24,-1
 217 31 l 1,25,26
 483 109 483 109 595 316 c 0,27,28
 655 427 655 427 676 576 c 1,29,-1
 666 576 l 1,30,31
 557 472 557 472 411.5 472 c 128,-1,13
 266 472 266 472 186 568.5 c 128,-1,14
EndSplineSet
EndChar

StartChar: colon
Encoding: 58 58 29
Width: 410
Flags: W
LayerCount: 2
Fore
SplineSet
160 332 m 0,0,1
 120 362 120 362 120 417 c 128,-1,2
 120 472 120 472 144.5 499.5 c 128,-1,3
 169 527 169 527 208 527 c 2,4,-1
 210 527 l 2,5,6
 249 527 249 527 273.5 498.5 c 128,-1,7
 298 470 298 470 298 422.5 c 128,-1,8
 298 375 298 375 274 345 c 128,-1,9
 250 315 250 315 216 315 c 128,-1,10
 182 315 182 315 160 332 c 0,0,1
EndSplineSet
EndChar

StartChar: semicolon
Encoding: 59 59 30
Width: 397
Flags: W
LayerCount: 2
Fore
SplineSet
69 -243 m 1,0,1
 249 -187 249 -187 249 -60 c 0,2,3
 249 -9 249 -9 217 25 c 128,-1,4
 185 59 185 59 137 59 c 0,5,6
 122 59 122 59 108 56 c 1,7,8
 100 78 100 78 100 110 c 128,-1,9
 100 142 100 142 132.5 169.5 c 128,-1,10
 165 197 165 197 217.5 197 c 128,-1,11
 270 197 270 197 318.5 145.5 c 128,-1,12
 367 94 367 94 367 -3 c 0,13,14
 367 -162 367 -162 206 -250 c 0,15,16
 155 -279 155 -279 87 -298 c 1,17,-1
 69 -243 l 1,0,1
175 660.5 m 128,-1,19
 150 692 150 692 150 741 c 128,-1,20
 150 790 150 790 174.5 818.5 c 128,-1,21
 199 847 199 847 240 847 c 128,-1,22
 281 847 281 847 307 818 c 128,-1,23
 333 789 333 789 333 740 c 128,-1,24
 333 691 333 691 308 660 c 128,-1,25
 283 629 283 629 241.5 629 c 128,-1,18
 200 629 200 629 175 660.5 c 128,-1,19
EndSplineSet
EndChar

StartChar: less
Encoding: 60 60 31
Width: 697
Flags: W
LayerCount: 2
Fore
SplineSet
664 -25 m 1,0,-1
 622 -82 l 1,1,-1
 -13 427 l 1,2,-1
 -12 456 l 1,3,-1
 609 974 l 1,4,-1
 644 914 l 1,5,-1
 173 437 l 1,6,-1
 664 -25 l 1,0,-1
EndSplineSet
EndChar

StartChar: equal
Encoding: 61 61 32
Width: 800
Flags: W
LayerCount: 2
Fore
SplineSet
90 569 m 1,0,-1
 101 655 l 1,1,-1
 716 655 l 1,2,-1
 705 569 l 1,3,-1
 90 569 l 1,0,-1
87 330 m 1,4,-1
 98 415 l 1,5,-1
 713 415 l 1,6,-1
 702 330 l 1,7,-1
 87 330 l 1,4,-1
EndSplineSet
EndChar

StartChar: greater
Encoding: 62 62 33
Width: 697
Flags: W
LayerCount: 2
Fore
SplineSet
67 -25 m 1,0,-1
 558 437 l 1,1,-1
 87 914 l 1,2,-1
 122 974 l 1,3,-1
 743 456 l 1,4,-1
 744 427 l 1,5,-1
 109 -82 l 1,6,-1
 67 -25 l 1,0,-1
EndSplineSet
EndChar

StartChar: question
Encoding: 63 63 34
Width: 619
Flags: W
LayerCount: 2
Fore
SplineSet
216 -2 m 128,-1,1
 191 31 191 31 191 77.5 c 128,-1,2
 191 124 191 124 217.5 154 c 128,-1,3
 244 184 244 184 282.5 184 c 128,-1,4
 321 184 321 184 347.5 153.5 c 128,-1,5
 374 123 374 123 374 76 c 128,-1,6
 374 29 374 29 349 -3 c 128,-1,7
 324 -35 324 -35 282.5 -35 c 128,-1,0
 241 -35 241 -35 216 -2 c 128,-1,1
99 1073 m 1,8,9
 40 1100 40 1100 40 1169 c 0,10,11
 40 1207 40 1207 95.5 1247 c 128,-1,12
 151 1287 151 1287 238 1287 c 0,13,14
 366 1287 366 1287 466.5 1170 c 128,-1,15
 567 1053 567 1053 567 893 c 0,16,17
 567 801 567 801 515.5 750.5 c 128,-1,18
 464 700 464 700 409 667.5 c 128,-1,19
 354 635 354 635 328 615 c 0,20,21
 268 570 268 570 268 513.5 c 128,-1,22
 268 457 268 457 303 371 c 1,23,-1
 245 354 l 1,24,25
 214 389 214 389 189 449 c 128,-1,26
 164 509 164 509 164 567.5 c 128,-1,27
 164 626 164 626 196 671 c 128,-1,28
 228 716 228 716 273 743 c 2,29,-1
 364 796 l 1,30,31
 473 857 473 857 473 939.5 c 128,-1,32
 473 1022 473 1022 418 1084.5 c 128,-1,33
 363 1147 363 1147 291 1147 c 0,34,35
 169 1147 169 1147 99 1073 c 1,8,9
EndSplineSet
EndChar

StartChar: at
Encoding: 64 64 35
Width: 1362
Flags: W
LayerCount: 2
Fore
SplineSet
512 369 m 0,0,1
 512 160 512 160 596 160 c 0,2,3
 634 160 634 160 685 188 c 128,-1,4
 736 216 736 216 764 248 c 1,5,-1
 818 703 l 1,6,7
 776 714 776 714 716 714 c 0,8,9
 628 714 628 714 570 611.5 c 128,-1,10
 512 509 512 509 512 369 c 0,0,1
173.5 681.5 m 128,-1,12
 259 844 259 844 421 944.5 c 128,-1,13
 583 1045 583 1045 789 1045 c 0,14,15
 929 1045 929 1045 1046.5 987 c 128,-1,16
 1164 929 1164 929 1234 822.5 c 128,-1,17
 1304 716 1304 716 1304 598.5 c 128,-1,18
 1304 481 1304 481 1268.5 387.5 c 128,-1,19
 1233 294 1233 294 1171.5 223.5 c 128,-1,20
 1110 153 1110 153 1021.5 111 c 128,-1,21
 933 69 933 69 833 69 c 0,22,23
 756 69 756 69 762 187 c 1,24,-1
 753 187 l 1,25,26
 720 138 720 138 663 99 c 128,-1,27
 606 60 606 60 541.5 60 c 128,-1,28
 477 60 477 60 433 129.5 c 128,-1,29
 389 199 389 199 389 313 c 0,30,31
 389 533 389 533 513 661.5 c 128,-1,32
 637 790 637 790 770 790 c 0,33,34
 846 790 846 790 922 773 c 1,35,-1
 940 752 l 1,36,-1
 898 385 l 1,37,-1
 886 296 l 2,38,39
 877 230 877 230 879.5 191 c 128,-1,40
 882 152 882 152 910 152 c 0,41,42
 1027 152 1027 152 1111.5 264 c 128,-1,43
 1196 376 1196 376 1196 525 c 128,-1,44
 1196 674 1196 674 1134 772.5 c 128,-1,45
 1072 871 1072 871 971.5 921.5 c 128,-1,46
 871 972 871 972 733.5 972 c 128,-1,47
 596 972 596 972 471 888.5 c 128,-1,48
 346 805 346 805 278 664 c 128,-1,49
 210 523 210 523 210 355 c 0,50,51
 210 125 210 125 348 -12 c 128,-1,52
 486 -149 486 -149 729 -149 c 0,53,54
 830 -149 830 -149 937 -109 c 128,-1,55
 1044 -69 1044 -69 1088 -31 c 1,56,-1
 1117 -82 l 1,57,58
 1016 -149 1016 -149 960 -173 c 0,59,60
 838 -227 838 -227 718.5 -227 c 128,-1,61
 599 -227 599 -227 512 -206 c 0,62,63
 330 -164 330 -164 209 -29 c 128,-1,64
 88 106 88 106 88 312.5 c 128,-1,11
 88 519 88 519 173.5 681.5 c 128,-1,12
EndSplineSet
EndChar

StartChar: A
Encoding: 65 65 36
Width: 1324
Flags: W
LayerCount: 2
Fore
SplineSet
453 534 m 1,0,-1
 826 534 l 1,1,-1
 646 1060 l 1,2,-1
 453 534 l 1,0,-1
35 0 m 1,3,-1
 43 58 l 1,4,-1
 188 101 l 1,5,-1
 626 1246 l 1,6,-1
 728 1268 l 1,7,-1
 1130 95 l 1,8,-1
 1265 64 l 1,9,-1
 1257 0 l 1,10,-1
 795 0 l 1,11,-1
 805 58 l 1,12,-1
 974 101 l 1,13,-1
 850 455 l 1,14,-1
 425 455 l 1,15,-1
 294 95 l 1,16,-1
 479 63 l 1,17,-1
 469 0 l 1,18,-1
 35 0 l 1,3,-1
EndSplineSet
EndChar

StartChar: B
Encoding: 66 66 37
Width: 1135
Flags: W
LayerCount: 2
Fore
SplineSet
407 685 m 1,0,-1
 691 685 l 1,1,2
 756 719 756 719 797 779.5 c 128,-1,3
 838 840 838 840 838 922 c 0,4,5
 838 1045 838 1045 755.5 1118.5 c 128,-1,6
 673 1192 673 1192 507 1192 c 0,7,8
 439 1192 439 1192 407 1186 c 1,9,-1
 407 685 l 1,0,-1
407 75 m 1,10,-1
 639 75 l 2,11,12
 858 75 858 75 920 248 c 0,13,14
 936 294 936 294 936 345 c 0,15,16
 936 449 936 449 867 533.5 c 128,-1,17
 798 618 798 618 646 618 c 2,18,-1
 407 618 l 1,19,-1
 407 75 l 1,10,-1
82 0 m 1,20,-1
 92 58 l 1,21,-1
 260 96 l 1,22,-1
 260 1129 l 1,23,-1
 89 1155 l 1,24,-1
 98 1211 l 1,25,26
 167 1222 167 1222 217 1229 c 2,27,-1
 318 1242 l 2,28,29
 440 1257 440 1257 566 1257 c 0,30,31
 769 1257 769 1257 876 1173.5 c 128,-1,32
 983 1090 983 1090 983 967 c 0,33,34
 983 875 983 875 930.5 800 c 128,-1,35
 878 725 878 725 777 679 c 1,36,-1
 777 672 l 1,37,38
 922 664 922 664 1004.5 576.5 c 128,-1,39
 1087 489 1087 489 1087 380 c 0,40,41
 1087 180 1087 180 919 78 c 0,42,43
 789 0 789 0 554 0 c 2,44,-1
 82 0 l 1,20,-1
EndSplineSet
EndChar

StartChar: C
Encoding: 67 67 38
Width: 1113
Flags: W
LayerCount: 2
Fore
SplineSet
151 336.5 m 128,-1,1
 108 455 108 455 108 572.5 c 128,-1,2
 108 690 108 690 130 782 c 128,-1,3
 152 874 152 874 200 962.5 c 128,-1,4
 248 1051 248 1051 316.5 1119 c 128,-1,5
 385 1187 385 1187 487.5 1228.5 c 128,-1,6
 590 1270 590 1270 711 1270 c 0,7,8
 932 1270 932 1270 1062 1171 c 1,9,-1
 1031 836 l 1,10,-1
 963 846 l 1,11,-1
 927 1086 l 1,12,13
 843 1195 843 1195 669.5 1195 c 128,-1,14
 496 1195 496 1195 383.5 1043 c 128,-1,15
 271 891 271 891 271 637 c 128,-1,16
 271 383 271 383 397.5 233.5 c 128,-1,17
 524 84 524 84 727 84 c 0,18,19
 827 84 827 84 920 132 c 128,-1,20
 1013 180 1013 180 1084 252 c 1,21,-1
 1113 195 l 1,22,23
 1050 111 1050 111 926.5 43 c 128,-1,24
 803 -25 803 -25 673 -25 c 128,-1,25
 543 -25 543 -25 443 18 c 128,-1,26
 343 61 343 61 268.5 139.5 c 128,-1,0
 194 218 194 218 151 336.5 c 128,-1,1
EndSplineSet
EndChar

StartChar: D
Encoding: 68 68 39
Width: 1344
Flags: W
LayerCount: 2
Fore
SplineSet
409 79 m 1,0,-1
 571 79 l 2,1,2
 831 79 831 79 979 223.5 c 128,-1,3
 1127 368 1127 368 1127 611.5 c 128,-1,4
 1127 855 1127 855 982.5 1018 c 128,-1,5
 838 1181 838 1181 557 1181 c 0,6,7
 450 1181 450 1181 409 1176 c 1,8,-1
 409 79 l 1,0,-1
81 0 m 1,9,-1
 92 58 l 1,10,-1
 263 101 l 1,11,-1
 263 1128 l 1,12,-1
 90 1154 l 1,13,-1
 100 1210 l 1,14,15
 411 1259 411 1259 579.5 1259 c 128,-1,16
 748 1259 748 1259 870 1225 c 0,17,18
 1095 1162 1095 1162 1192.5 1008.5 c 128,-1,19
 1290 855 1290 855 1290 646 c 128,-1,20
 1290 437 1290 437 1170 269.5 c 128,-1,21
 1050 102 1050 102 818 36 c 0,22,23
 693 0 693 0 544 0 c 2,24,-1
 81 0 l 1,9,-1
EndSplineSet
EndChar

StartChar: E
Encoding: 69 69 40
Width: 1107
Flags: W
LayerCount: 2
Fore
SplineSet
84 1185 m 1,0,-1
 93 1244 l 1,1,-1
 1044 1244 l 1,2,-1
 1013 925 l 1,3,-1
 946 934 l 1,4,-1
 916 1173 l 1,5,-1
 413 1173 l 1,6,-1
 413 668 l 1,7,-1
 728 668 l 1,8,-1
 768 797 l 1,9,-1
 840 808 l 1,10,-1
 807 419 l 1,11,-1
 741 408 l 1,12,-1
 716 594 l 1,13,-1
 413 594 l 1,14,-1
 413 75 l 1,15,-1
 942 75 l 1,16,-1
 1028 324 l 1,17,-1
 1090 313 l 1,18,-1
 1060 0 l 1,19,-1
 90 0 l 1,20,-1
 96 58 l 1,21,-1
 265 96 l 1,22,-1
 265 1151 l 1,23,-1
 84 1185 l 1,0,-1
EndSplineSet
EndChar

StartChar: F
Encoding: 70 70 41
Width: 1123
Flags: W
LayerCount: 2
Fore
SplineSet
81 1185 m 1,0,-1
 89 1244 l 1,1,-1
 1039 1244 l 1,2,-1
 1002 923 l 1,3,-1
 934 933 l 1,4,-1
 906 1173 l 1,5,-1
 409 1173 l 1,6,-1
 409 652 l 1,7,-1
 720 652 l 1,8,-1
 761 782 l 1,9,-1
 832 792 l 1,10,-1
 803 402 l 1,11,-1
 734 391 l 1,12,-1
 710 579 l 1,13,-1
 409 579 l 1,14,-1
 408 96 l 1,15,-1
 649 68 l 1,16,-1
 637 0 l 1,17,-1
 86 0 l 1,18,-1
 91 58 l 1,19,-1
 260 96 l 1,20,-1
 260 1151 l 1,21,-1
 81 1185 l 1,0,-1
EndSplineSet
EndChar

StartChar: G
Encoding: 71 71 42
Width: 1357
Flags: W
LayerCount: 2
Fore
SplineSet
735 1262 m 0,0,1
 991 1262 991 1262 1138 1162 c 1,2,-1
 1110 841 l 1,3,-1
 1044 852 l 1,4,-1
 1011 1066 l 1,5,6
 971 1112 971 1112 886.5 1147 c 128,-1,7
 802 1182 802 1182 693 1182 c 0,8,9
 508 1182 508 1182 390 1037 c 128,-1,10
 272 892 272 892 272 640 c 0,11,12
 272 454 272 454 348 310 c 0,13,14
 480 61 480 61 768 61 c 0,15,16
 898 61 898 61 984 119 c 1,17,-1
 985 463 l 1,18,-1
 746 495 l 1,19,-1
 756 556 l 1,20,-1
 1274 556 l 1,21,-1
 1264 499 l 1,22,-1
 1135 467 l 1,23,-1
 1135 79 l 1,24,25
 1038 21 1038 21 926 -2.5 c 128,-1,26
 814 -26 814 -26 659 -26 c 0,27,28
 407 -26 407 -26 257.5 145 c 128,-1,29
 108 316 108 316 108 591 c 0,30,31
 108 773 108 773 189.5 926.5 c 128,-1,32
 271 1080 271 1080 415.5 1171 c 128,-1,33
 560 1262 560 1262 735 1262 c 0,0,1
EndSplineSet
EndChar

StartChar: H
Encoding: 72 72 43
Width: 1446
Flags: W
LayerCount: 2
Fore
SplineSet
83 1187 m 1,0,-1
 90 1244 l 1,1,-1
 591 1244 l 1,2,-1
 583 1187 l 1,3,-1
 414 1156 l 1,4,-1
 414 672 l 1,5,-1
 1087 672 l 1,6,-1
 1087 1154 l 1,7,-1
 904 1187 l 1,8,-1
 913 1244 l 1,9,-1
 1413 1244 l 1,10,-1
 1404 1187 l 1,11,-1
 1237 1156 l 1,12,-1
 1237 90 l 1,13,-1
 1419 63 l 1,14,-1
 1411 0 l 1,15,-1
 912 0 l 1,16,-1
 922 58 l 1,17,-1
 1087 96 l 1,18,-1
 1087 592 l 1,19,-1
 414 591 l 1,20,-1
 414 90 l 1,21,-1
 600 63 l 1,22,-1
 588 0 l 1,23,-1
 91 0 l 1,24,-1
 97 58 l 1,25,-1
 265 96 l 1,26,-1
 265 1154 l 1,27,-1
 83 1187 l 1,0,-1
EndSplineSet
EndChar

StartChar: I
Encoding: 73 73 44
Width: 674
Flags: W
LayerCount: 2
Fore
SplineSet
86 1187 m 1,0,-1
 94 1244 l 1,1,-1
 595 1244 l 1,2,-1
 586 1187 l 1,3,-1
 414 1156 l 1,4,-1
 414 90 l 1,5,-1
 601 63 l 1,6,-1
 591 0 l 1,7,-1
 94 0 l 1,8,-1
 101 58 l 1,9,-1
 263 96 l 1,10,-1
 263 1154 l 1,11,-1
 86 1187 l 1,0,-1
EndSplineSet
EndChar

StartChar: J
Encoding: 74 74 45
Width: 614
Flags: W
LayerCount: 2
Fore
SplineSet
19 -259 m 1,0,1
 144 -146 144 -146 204 -36 c 128,-1,2
 264 74 264 74 264 209 c 2,3,-1
 264 1154 l 1,4,-1
 82 1187 l 1,5,-1
 90 1244 l 1,6,-1
 593 1244 l 1,7,-1
 584 1187 l 1,8,-1
 414 1156 l 1,9,-1
 412 372 l 1,10,11
 410 145 410 145 368 17 c 128,-1,12
 326 -111 326 -111 198 -220 c 0,13,14
 144 -267 144 -267 57 -325 c 1,15,-1
 19 -259 l 1,0,1
EndSplineSet
EndChar

StartChar: K
Encoding: 75 75 46
Width: 1225
Flags: W
LayerCount: 2
Fore
SplineSet
454 623 m 1,0,1
 554 728 554 728 604 790 c 2,2,-1
 893 1151 l 1,3,-1
 728 1187 l 1,4,-1
 734 1244 l 1,5,-1
 1184 1244 l 1,6,-1
 1177 1187 l 1,7,-1
 1012 1152 l 1,8,-1
 601 649 l 1,9,-1
 846 358 l 2,10,11
 974 206 974 206 1040 147 c 128,-1,12
 1106 88 1106 88 1191 68 c 1,13,-1
 1237 58 l 1,14,-1
 1226 2 l 1,15,16
 1160 -21 1160 -21 1106 -21 c 0,17,18
 999 -21 999 -21 915 50 c 128,-1,19
 831 121 831 121 733 246 c 1,20,-1
 456 604 l 1,21,-1
 454 623 l 1,0,1
83 1187 m 1,22,-1
 93 1244 l 1,23,-1
 593 1244 l 1,24,-1
 586 1187 l 1,25,-1
 415 1152 l 1,26,-1
 415 95 l 1,27,-1
 602 63 l 1,28,-1
 592 0 l 1,29,-1
 92 0 l 1,30,-1
 100 58 l 1,31,-1
 264 101 l 1,32,-1
 264 1149 l 1,33,-1
 83 1187 l 1,22,-1
EndSplineSet
EndChar

StartChar: L
Encoding: 76 76 47
Width: 1088
Flags: W
LayerCount: 2
Fore
SplineSet
94 0 m 1,0,-1
 102 58 l 1,1,-1
 269 96 l 1,2,-1
 269 1148 l 1,3,-1
 89 1186 l 1,4,-1
 98 1244 l 1,5,-1
 600 1244 l 1,6,-1
 593 1186 l 1,7,-1
 418 1152 l 1,8,-1
 418 75 l 1,9,-1
 905 75 l 1,10,-1
 1010 341 l 1,11,-1
 1074 331 l 1,12,-1
 1040 0 l 1,13,-1
 94 0 l 1,0,-1
EndSplineSet
EndChar

StartChar: M
Encoding: 77 77 48
Width: 1681
Flags: W
LayerCount: 2
Fore
SplineSet
51 0 m 1,0,-1
 59 54 l 1,1,-1
 227 92 l 1,2,-1
 304 1151 l 1,3,-1
 120 1188 l 1,4,-1
 129 1244 l 1,5,-1
 489 1244 l 1,6,-1
 564 1053 l 1,7,-1
 851 268 l 1,8,-1
 1185 1092 l 1,9,-1
 1252 1244 l 1,10,-1
 1612 1244 l 1,11,-1
 1605 1188 l 1,12,-1
 1434 1154 l 1,13,-1
 1488 86 l 1,14,-1
 1669 60 l 1,15,-1
 1663 0 l 1,16,-1
 1164 0 l 1,17,-1
 1172 54 l 1,18,-1
 1341 92 l 1,19,-1
 1284 1087 l 1,20,-1
 861 55 l 1,21,-1
 772 41 l 1,22,-1
 396 1059 l 1,23,-1
 325 86 l 1,24,-1
 508 60 l 1,25,-1
 498 0 l 1,26,-1
 51 0 l 1,0,-1
EndSplineSet
EndChar

StartChar: N
Encoding: 78 78 49
Width: 1402
Flags: W
LayerCount: 2
Fore
SplineSet
63 1188 m 1,0,-1
 73 1244 l 1,1,-1
 400 1244 l 1,2,-1
 1067 225 l 1,3,-1
 1067 1154 l 1,4,-1
 882 1187 l 1,5,-1
 891 1244 l 1,6,-1
 1341 1244 l 1,7,-1
 1330 1187 l 1,8,-1
 1164 1156 l 1,9,-1
 1164 -3 l 1,10,-1
 1060 -24 l 1,11,-1
 347 1047 l 1,12,-1
 347 90 l 1,13,-1
 531 63 l 1,14,-1
 521 0 l 1,15,-1
 73 0 l 1,16,-1
 79 58 l 1,17,-1
 246 96 l 1,18,-1
 246 1147 l 1,19,-1
 63 1188 l 1,0,-1
EndSplineSet
EndChar

StartChar: O
Encoding: 79 79 50
Width: 1331
Flags: W
LayerCount: 2
Fore
SplineSet
278 655 m 0,0,1
 278 551 278 551 305 440.5 c 128,-1,2
 332 330 332 330 383.5 244 c 128,-1,3
 435 158 435 158 518.5 108 c 128,-1,4
 602 58 602 58 698 58 c 128,-1,5
 794 58 794 58 864 88 c 1,6,7
 990 144 990 144 1051.5 279.5 c 128,-1,8
 1113 415 1113 415 1113 579.5 c 128,-1,9
 1113 744 1113 744 1066 883 c 128,-1,10
 1019 1022 1019 1022 919 1109.5 c 128,-1,11
 819 1197 819 1197 681 1197 c 0,12,13
 435 1197 435 1197 334 974 c 0,14,15
 278 848 278 848 278 655 c 0,0,1
178.5 295 m 128,-1,17
 111 442 111 442 111 627 c 128,-1,18
 111 812 111 812 185.5 960 c 128,-1,19
 260 1108 260 1108 401.5 1191 c 128,-1,20
 543 1274 543 1274 730 1274 c 0,21,22
 859 1274 859 1274 964 1223 c 128,-1,23
 1069 1172 1069 1172 1137 1084 c 0,24,25
 1279 899 1279 899 1279 624 c 0,26,27
 1279 418 1279 418 1175 248 c 0,28,29
 1007 -27 1007 -27 640 -27 c 0,30,31
 499 -27 499 -27 372.5 60.5 c 128,-1,16
 246 148 246 148 178.5 295 c 128,-1,17
EndSplineSet
EndChar

StartChar: P
Encoding: 80 80 51
Width: 1120
Flags: W
LayerCount: 2
Fore
SplineSet
85 0 m 1,0,-1
 93 58 l 1,1,-1
 256 96 l 1,2,-1
 256 1129 l 1,3,-1
 90 1155 l 1,4,-1
 98 1211 l 1,5,6
 107 1212 107 1212 146 1218.5 c 128,-1,7
 185 1225 185 1225 198 1227 c 0,8,9
 256 1236 256 1236 304 1241 c 2,10,-1
 358 1246 l 1,11,12
 451 1256 451 1256 536 1256 c 128,-1,13
 621 1256 621 1256 692 1244 c 0,14,15
 846 1219 846 1219 939 1134.5 c 128,-1,16
 1032 1050 1032 1050 1032 893 c 0,17,18
 1032 776 1032 776 965 682 c 128,-1,19
 898 588 898 588 790 538 c 128,-1,20
 682 488 682 488 558 488 c 0,21,22
 518 488 518 488 484 491 c 1,23,-1
 469 553 l 1,24,-1
 522 555 l 2,25,26
 697 562 697 562 781.5 644 c 128,-1,27
 866 726 866 726 866 863 c 128,-1,28
 866 1000 866 1000 778.5 1096 c 128,-1,29
 691 1192 691 1192 513 1192 c 1,30,-1
 407 1186 l 1,31,-1
 407 94 l 1,32,-1
 642 65 l 1,33,-1
 631 0 l 1,34,-1
 85 0 l 1,0,-1
EndSplineSet
EndChar

StartChar: Q
Encoding: 81 81 52
Width: 1344
Flags: W
LayerCount: 2
Fore
SplineSet
582 88 m 0,0,1
 664 51 664 51 760 47 c 1,2,3
 881 74 881 74 966 154 c 0,4,5
 1129 309 1129 309 1129 568 c 0,6,7
 1129 738 1129 738 1076 879.5 c 128,-1,8
 1023 1021 1023 1021 920 1107 c 128,-1,9
 817 1193 817 1193 684 1193 c 0,10,11
 488 1193 488 1193 378 1050.5 c 128,-1,12
 268 908 268 908 268 693 c 128,-1,13
 268 478 268 478 349.5 317.5 c 128,-1,14
 431 157 431 157 582 88 c 0,0,1
181 290.5 m 128,-1,16
 111 437 111 437 111 621 c 128,-1,17
 111 805 111 805 188 955 c 128,-1,18
 265 1105 265 1105 408 1189.5 c 128,-1,19
 551 1274 551 1274 737 1274 c 0,20,21
 865 1274 865 1274 970 1223.5 c 128,-1,22
 1075 1173 1075 1173 1144 1085 c 0,23,24
 1286 902 1286 902 1286 629 c 0,25,26
 1286 319 1286 319 1071 124 c 0,27,28
 962 25 962 25 816 -9 c 1,29,30
 879 -149 879 -149 974 -209.5 c 128,-1,31
 1069 -270 1069 -270 1252 -294 c 1,32,33
 1249 -338 1249 -338 1242 -355 c 1,34,35
 1179 -385 1179 -385 1078 -385 c 0,36,37
 944 -385 944 -385 848.5 -283 c 128,-1,38
 753 -181 753 -181 733 -21 c 1,39,40
 699 -27 699 -27 661 -27 c 0,41,42
 504 -27 504 -27 377.5 58.5 c 128,-1,15
 251 144 251 144 181 290.5 c 128,-1,16
EndSplineSet
EndChar

StartChar: R
Encoding: 82 82 53
Width: 1195
Flags: W
LayerCount: 2
Fore
SplineSet
423 628 m 1,0,-1
 636 628 l 1,1,2
 728 661 728 661 790.5 736 c 128,-1,3
 853 811 853 811 853 925 c 128,-1,4
 853 1039 853 1039 770.5 1114 c 128,-1,5
 688 1189 688 1189 544 1189 c 1,6,-1
 423 1184 l 1,7,-1
 423 628 l 1,0,-1
105 0 m 1,8,-1
 114 58 l 1,9,-1
 276 96 l 1,10,-1
 276 1127 l 1,11,-1
 110 1153 l 1,12,-1
 120 1209 l 1,13,14
 398 1254 398 1254 581.5 1254 c 128,-1,15
 765 1254 765 1254 888 1179.5 c 128,-1,16
 1011 1105 1011 1105 1011 952 c 0,17,18
 1011 847 1011 847 942 756.5 c 128,-1,19
 873 666 873 666 730 605 c 1,20,-1
 730 604 l 1,21,-1
 916 336 l 2,22,23
 1017 191 1017 191 1070 138.5 c 128,-1,24
 1123 86 1123 86 1193 64 c 2,25,-1
 1234 51 l 1,26,-1
 1223 -2 l 1,27,28
 1174 -19 1174 -19 1120 -19 c 0,29,30
 1018 -19 1018 -19 943 53 c 128,-1,31
 868 125 868 125 798 245 c 2,32,-1
 617 554 l 1,33,-1
 423 554 l 1,34,-1
 423 96 l 1,35,-1
 623 64 l 1,36,-1
 613 0 l 1,37,-1
 105 0 l 1,8,-1
EndSplineSet
EndChar

StartChar: S
Encoding: 83 83 54
Width: 881
Flags: W
LayerCount: 2
Fore
SplineSet
80 119 m 1,0,-1
 102 395 l 1,1,-1
 177 384 l 1,2,-1
 210 181 l 1,3,4
 241 126 241 126 307.5 91.5 c 128,-1,5
 374 57 374 57 460 57 c 128,-1,6
 546 57 546 57 618 113.5 c 128,-1,7
 690 170 690 170 690 276 c 128,-1,8
 690 382 690 382 576 466 c 0,9,10
 525 503 525 503 464 539 c 1,11,-1
 342 614 l 1,12,13
 281 653 281 653 230 697 c 0,14,15
 116 795 116 795 116 938 c 0,16,17
 116 1040 116 1040 170 1118 c 0,18,19
 275 1270 275 1270 464.5 1270 c 128,-1,20
 654 1270 654 1270 764 1165 c 1,21,-1
 737 869 l 1,22,-1
 664 878 l 1,23,-1
 638 1096 l 1,24,25
 617 1136 617 1136 561 1168 c 128,-1,26
 505 1200 505 1200 434 1200 c 128,-1,27
 363 1200 363 1200 307.5 1147.5 c 128,-1,28
 252 1095 252 1095 252 1017.5 c 128,-1,29
 252 940 252 940 284.5 887.5 c 128,-1,30
 317 835 317 835 368.5 796.5 c 128,-1,31
 420 758 420 758 482 721 c 2,32,-1
 606 646 l 2,33,34
 669 607 669 607 720 564 c 0,35,36
 837 467 837 467 837 321.5 c 128,-1,37
 837 176 837 176 715 75.5 c 128,-1,38
 593 -25 593 -25 413 -25 c 0,39,40
 309 -25 309 -25 220 16 c 128,-1,41
 131 57 131 57 80 119 c 1,0,-1
EndSplineSet
EndChar

StartChar: T
Encoding: 84 84 55
Width: 1134
Flags: W
LayerCount: 2
Fore
SplineSet
55 1244 m 1,0,-1
 1127 1244 l 1,1,-1
 1093 909 l 1,2,-1
 1020 920 l 1,3,-1
 993 1173 l 1,4,-1
 655 1173 l 1,5,-1
 655 94 l 1,6,-1
 836 63 l 1,7,-1
 824 0 l 1,8,-1
 327 0 l 1,9,-1
 333 58 l 1,10,-1
 505 96 l 1,11,-1
 505 1173 l 1,12,-1
 180 1173 l 1,13,-1
 135 912 l 1,14,-1
 64 923 l 1,15,-1
 55 1244 l 1,0,-1
EndSplineSet
EndChar

StartChar: U
Encoding: 85 85 56
Width: 1371
Flags: W
LayerCount: 2
Fore
SplineSet
61 1187 m 1,0,-1
 70 1244 l 1,1,-1
 568 1244 l 1,2,-1
 561 1187 l 1,3,-1
 392 1156 l 1,4,-1
 392 503 l 2,5,6
 392 73 392 73 752 73 c 0,7,8
 916 73 916 73 1005.5 172 c 128,-1,9
 1095 271 1095 271 1095 466 c 2,10,-1
 1096 1154 l 1,11,-1
 912 1187 l 1,12,-1
 920 1244 l 1,13,-1
 1371 1244 l 1,14,-1
 1362 1187 l 1,15,-1
 1196 1156 l 1,16,-1
 1191 503 l 2,17,18
 1189 238 1189 238 1075 105.5 c 128,-1,19
 961 -27 961 -27 711 -27 c 0,20,21
 244 -27 244 -27 244 465 c 2,22,-1
 244 1154 l 1,23,-1
 61 1187 l 1,0,-1
EndSplineSet
EndChar

StartChar: V
Encoding: 86 86 57
Width: 1258
Flags: W
LayerCount: 2
Fore
SplineSet
38 1188 m 1,0,-1
 45 1244 l 1,1,-1
 527 1244 l 1,2,-1
 520 1188 l 1,3,-1
 351 1156 l 1,4,-1
 681 206 l 1,5,-1
 1029 1152 l 1,6,-1
 844 1188 l 1,7,-1
 850 1244 l 1,8,-1
 1272 1244 l 1,9,-1
 1267 1188 l 1,10,-1
 1137 1156 l 1,11,-1
 703 -4 l 1,12,-1
 601 -25 l 1,13,-1
 185 1152 l 1,14,-1
 38 1188 l 1,0,-1
EndSplineSet
EndChar

StartChar: W
Encoding: 87 87 58
Width: 1873
Flags: W
LayerCount: 2
Fore
SplineSet
43 1188 m 1,0,-1
 51 1244 l 1,1,-1
 505 1244 l 1,2,-1
 496 1190 l 1,3,-1
 330 1156 l 1,4,-1
 594 225 l 1,5,-1
 884 1199 l 1,6,-1
 995 1214 l 1,7,-1
 1261 233 l 1,8,-1
 1553 1151 l 1,9,-1
 1369 1189 l 1,10,-1
 1377 1244 l 1,11,-1
 1794 1244 l 1,12,-1
 1786 1188 l 1,13,-1
 1666 1154 l 1,14,-1
 1286 -4 l 1,15,-1
 1177 -25 l 1,16,-1
 912 971 l 1,17,-1
 622 -4 l 1,18,-1
 505 -24 l 1,19,-1
 174 1153 l 1,20,-1
 43 1188 l 1,0,-1
EndSplineSet
EndChar

StartChar: X
Encoding: 88 88 59
Width: 1195
Flags: W
LayerCount: 2
Fore
SplineSet
-2 0 m 1,0,-1
 7 56 l 1,1,-1
 133 92 l 1,2,-1
 524 620 l 1,3,-1
 160 1154 l 1,4,-1
 23 1189 l 1,5,-1
 31 1244 l 1,6,-1
 497 1244 l 1,7,-1
 490 1189 l 1,8,-1
 334 1152 l 1,9,-1
 623 727 l 1,10,-1
 937 1155 l 1,11,-1
 766 1187 l 1,12,-1
 775 1244 l 1,13,-1
 1177 1244 l 1,14,-1
 1173 1188 l 1,15,-1
 1047 1159 l 1,16,-1
 679 654 l 1,17,-1
 1057 84 l 1,18,-1
 1193 58 l 1,19,-1
 1183 0 l 1,20,-1
 718 0 l 1,21,-1
 727 51 l 1,22,-1
 889 90 l 1,23,-1
 580 550 l 1,24,-1
 247 89 l 1,25,-1
 413 62 l 1,26,-1
 401 0 l 1,27,-1
 -2 0 l 1,0,-1
EndSplineSet
EndChar

StartChar: Y
Encoding: 89 89 60
Width: 1113
Flags: W
LayerCount: 2
Fore
SplineSet
-9 1188 m 1,0,-1
 0 1244 l 1,1,-1
 463 1244 l 1,2,-1
 455 1188 l 1,3,-1
 292 1156 l 1,4,-1
 588 605 l 1,5,-1
 875 1152 l 1,6,-1
 691 1188 l 1,7,-1
 697 1244 l 1,8,-1
 1114 1244 l 1,9,-1
 1108 1188 l 1,10,-1
 981 1156 l 1,11,-1
 634 509 l 1,12,-1
 634 91 l 1,13,-1
 806 63 l 1,14,-1
 797 0 l 1,15,-1
 314 0 l 1,16,-1
 322 58 l 1,17,-1
 484 96 l 1,18,-1
 484 497 l 1,19,-1
 130 1152 l 1,20,-1
 -9 1188 l 1,0,-1
EndSplineSet
EndChar

StartChar: Z
Encoding: 90 90 61
Width: 1051
Flags: W
LayerCount: 2
Fore
SplineSet
45 71 m 1,0,-1
 819 1170 l 1,1,-1
 232 1170 l 1,2,-1
 154 903 l 1,3,-1
 90 918 l 1,4,-1
 99 1244 l 1,5,-1
 1002 1244 l 1,6,-1
 1004 1188 l 1,7,-1
 219 79 l 1,8,-1
 837 79 l 1,9,-1
 952 347 l 1,10,-1
 1021 336 l 1,11,-1
 973 0 l 1,12,-1
 52 0 l 1,13,-1
 45 71 l 1,0,-1
EndSplineSet
EndChar

StartChar: bracketleft
Encoding: 91 91 62
Width: 476
Flags: W
LayerCount: 2
Fore
SplineSet
392 -306 m 1,0,-1
 384 -375 l 1,1,-1
 24 -375 l 1,2,-1
 25 1256 l 1,3,-1
 383 1256 l 1,4,-1
 390 1185 l 1,5,-1
 155 1164 l 1,6,-1
 155 -286 l 1,7,-1
 392 -306 l 1,0,-1
EndSplineSet
EndChar

StartChar: backslash
Encoding: 92 92 63
Width: 611
Flags: W
LayerCount: 2
Fore
SplineSet
32 1259 m 1,0,-1
 140 1254 l 1,1,-1
 602 -367 l 1,2,-1
 498 -362 l 1,3,-1
 32 1259 l 1,0,-1
EndSplineSet
EndChar

StartChar: bracketright
Encoding: 93 93 64
Width: 476
Flags: W
LayerCount: 2
Fore
SplineSet
24 -306 m 1,0,-1
 261 -286 l 1,1,-1
 261 1164 l 1,2,-1
 26 1185 l 1,3,-1
 34 1256 l 1,4,-1
 391 1256 l 1,5,-1
 392 -375 l 1,6,-1
 32 -375 l 1,7,-1
 24 -306 l 1,0,-1
EndSplineSet
EndChar

StartChar: asciicircum
Encoding: 94 94 65
Width: 733
Flags: W
LayerCount: 2
Fore
SplineSet
49 826 m 1,0,-1
 338 1238 l 1,1,-1
 394 1251 l 1,2,-1
 688 824 l 1,3,-1
 640 792 l 1,4,-1
 363 1098 l 1,5,-1
 353 1098 l 1,6,-1
 91 797 l 1,7,-1
 49 826 l 1,0,-1
EndSplineSet
EndChar

StartChar: underscore
Encoding: 95 95 66
Width: 869
Flags: W
LayerCount: 2
Fore
SplineSet
14 -133 m 1,0,-1
 26 -47 l 1,1,-1
 854 -47 l 1,2,-1
 844 -133 l 1,3,-1
 14 -133 l 1,0,-1
EndSplineSet
EndChar

StartChar: grave
Encoding: 96 96 67
Width: 579
Flags: W
LayerCount: 2
Fore
SplineSet
150 1661 m 1,0,-1
 254 1698 l 1,1,-1
 387 1363 l 1,2,-1
 336 1332 l 1,3,-1
 150 1661 l 1,0,-1
EndSplineSet
EndChar

StartChar: a
Encoding: 97 97 68
Width: 847
Flags: W
LayerCount: 2
Fore
SplineSet
230 207 m 0,0,1
 230 154 230 154 264.5 112.5 c 128,-1,2
 299 71 299 71 356.5 71 c 128,-1,3
 414 71 414 71 467.5 104.5 c 128,-1,4
 521 138 521 138 554 186 c 1,5,-1
 554 430 l 1,6,7
 390 402 390 402 310 350.5 c 128,-1,8
 230 299 230 299 230 207 c 0,0,1
93 169 m 0,9,10
 93 293 93 293 206 376.5 c 128,-1,11
 319 460 319 460 554 481 c 1,12,-1
 554 529 l 2,13,14
 554 670 554 670 514 743 c 128,-1,15
 474 816 474 816 371 816 c 0,16,17
 315 816 315 816 294 795 c 128,-1,18
 273 774 273 774 262.5 738.5 c 128,-1,19
 252 703 252 703 237 601 c 1,20,21
 127 601 127 601 127 685 c 0,22,23
 127 736 127 736 177.5 784 c 128,-1,24
 228 832 228 832 301.5 860.5 c 128,-1,25
 375 889 375 889 443 889 c 0,26,27
 567 889 567 889 624 814.5 c 128,-1,28
 681 740 681 740 681 581 c 2,29,-1
 681 230 l 2,30,31
 681 153 681 153 699.5 118 c 128,-1,32
 718 83 718 83 781 73 c 1,33,-1
 839 62 l 1,34,-1
 830 2 l 1,35,36
 745 -18 745 -18 693.5 -18 c 128,-1,37
 642 -18 642 -18 606.5 21.5 c 128,-1,38
 571 61 571 61 571 116 c 2,39,-1
 571 131 l 1,40,-1
 563 131 l 1,41,42
 540 76 540 76 468.5 25.5 c 128,-1,43
 397 -25 397 -25 304 -25 c 128,-1,44
 211 -25 211 -25 152 27.5 c 128,-1,45
 93 80 93 80 93 169 c 0,9,10
EndSplineSet
EndChar

StartChar: b
Encoding: 98 98 69
Width: 961
Flags: W
LayerCount: 2
Fore
SplineSet
300 126 m 1,0,1
 364 62 364 62 508 62 c 0,2,3
 609 62 609 62 686 154.5 c 128,-1,4
 763 247 763 247 763 406 c 0,5,6
 763 677 763 677 634 756 c 0,7,8
 585 785 585 785 520 785 c 0,9,10
 410 785 410 785 300 668 c 1,11,-1
 300 126 l 1,0,1
18 1191 m 1,12,-1
 27 1245 l 1,13,-1
 285 1265 l 1,14,-1
 300 1249 l 1,15,-1
 300 837 l 1,16,-1
 286 733 l 1,17,-1
 298 733 l 1,18,19
 434 886 434 886 582.5 886 c 128,-1,20
 731 886 731 886 818 771 c 128,-1,21
 905 656 905 656 905 466 c 0,22,23
 905 232 905 232 763 104 c 128,-1,24
 621 -24 621 -24 420 -24 c 0,25,26
 284 -24 284 -24 171 49 c 1,27,-1
 171 1149 l 1,28,-1
 18 1191 l 1,12,-1
EndSplineSet
EndChar

StartChar: c
Encoding: 99 99 70
Width: 779
Flags: W
LayerCount: 2
Fore
SplineSet
190 94.5 m 128,-1,1
 91 219 91 219 91 420.5 c 128,-1,2
 91 622 91 622 207 755 c 128,-1,3
 323 888 323 888 491 888 c 0,4,5
 608 888 608 888 665 840.5 c 128,-1,6
 722 793 722 793 722 726 c 0,7,8
 722 643 722 643 627 627 c 1,9,10
 596 714 596 714 553 762 c 128,-1,11
 510 810 510 810 443 810 c 0,12,13
 351 810 351 810 291 722 c 128,-1,14
 231 634 231 634 231 467.5 c 128,-1,15
 231 301 231 301 309.5 185 c 128,-1,16
 388 69 388 69 516.5 69 c 128,-1,17
 645 69 645 69 742 148 c 1,18,-1
 763 102 l 1,19,20
 723 48 723 48 636.5 9 c 128,-1,21
 550 -30 550 -30 457 -30 c 0,22,0
 289 -30 289 -30 190 94.5 c 128,-1,1
EndSplineSet
EndChar

StartChar: d
Encoding: 100 100 71
Width: 997
Flags: W
LayerCount: 2
Fore
SplineSet
295 713.5 m 128,-1,1
 230 617 230 617 230 446 c 128,-1,2
 230 275 230 275 294 176 c 128,-1,3
 358 77 358 77 474 77 c 0,4,5
 535 77 535 77 600.5 112 c 128,-1,6
 666 147 666 147 700 193 c 1,7,-1
 700 685 l 1,8,9
 659 744 659 744 595.5 777 c 128,-1,10
 532 810 532 810 469 810 c 0,11,0
 360 810 360 810 295 713.5 c 128,-1,1
92 393 m 0,12,13
 92 501 92 501 128.5 596 c 128,-1,14
 165 691 165 691 226 754 c 0,15,16
 355 889 355 889 518 889 c 0,17,18
 567 889 567 889 622 874.5 c 128,-1,19
 677 860 677 860 702 841 c 1,20,-1
 710 841 l 1,21,-1
 696 972 l 1,22,-1
 696 1151 l 1,23,-1
 544 1194 l 1,24,-1
 553 1247 l 1,25,-1
 811 1269 l 1,26,-1
 826 1252 l 1,27,-1
 826 222 l 2,28,29
 826 117 826 117 868 90 c 1,30,31
 891 77 891 77 925 70 c 2,32,-1
 978 58 l 1,33,-1
 969 -2 l 1,34,35
 902 -22 902 -22 840.5 -22 c 128,-1,36
 779 -22 779 -22 744.5 18.5 c 128,-1,37
 710 59 710 59 710 124 c 2,38,-1
 710 131 l 1,39,-1
 700 131 l 1,40,41
 589 -21 589 -21 411 -21 c 0,42,43
 272 -21 272 -21 182 88 c 128,-1,44
 92 197 92 197 92 393 c 0,12,13
EndSplineSet
EndChar

StartChar: e
Encoding: 101 101 72
Width: 812
Flags: W
LayerCount: 2
Fore
SplineSet
237 507 m 1,0,-1
 588 530 l 1,1,2
 595 550 595 550 595 625.5 c 128,-1,3
 595 701 595 701 552.5 755 c 128,-1,4
 510 809 510 809 432 809 c 128,-1,5
 354 809 354 809 297.5 730.5 c 128,-1,6
 241 652 241 652 237 507 c 1,0,-1
762 104 m 1,7,8
 647 -30 647 -30 453 -30 c 0,9,10
 306 -30 306 -30 200 84.5 c 128,-1,11
 94 199 94 199 94 420 c 0,12,13
 94 528 94 528 128 618.5 c 128,-1,14
 162 709 162 709 218 766 c 0,15,16
 336 886 336 886 486 886 c 0,17,18
 601 886 601 886 668.5 810 c 128,-1,19
 736 734 736 734 736 582 c 0,20,21
 736 517 736 517 719 451 c 1,22,-1
 235 445 l 1,23,24
 239 296 239 296 308.5 187 c 128,-1,25
 378 78 378 78 509 78 c 128,-1,26
 640 78 640 78 743 148 c 1,27,-1
 762 104 l 1,7,8
EndSplineSet
EndChar

StartChar: f
Encoding: 102 102 73
Width: 651
Flags: W
LayerCount: 2
Fore
SplineSet
70 0 m 1,0,-1
 82 51 l 1,1,-1
 234 87 l 1,2,-1
 234 791 l 1,3,-1
 85 791 l 1,4,-1
 97 845 l 1,5,-1
 235 867 l 1,6,7
 255 1084 255 1084 361 1194.5 c 128,-1,8
 467 1305 467 1305 582 1305 c 0,9,10
 662 1305 662 1305 711 1274 c 128,-1,11
 760 1243 760 1243 760 1202 c 0,12,13
 760 1127 760 1127 691 1099 c 1,14,15
 606 1220 606 1220 514 1220 c 0,16,17
 452 1220 452 1220 411 1160 c 128,-1,18
 370 1100 370 1100 369 981 c 2,19,-1
 368 861 l 1,20,-1
 626 861 l 1,21,-1
 613 791 l 1,22,-1
 368 791 l 1,23,-1
 368 91 l 1,24,-1
 614 61 l 1,25,-1
 607 0 l 1,26,-1
 70 0 l 1,0,-1
EndSplineSet
EndChar

StartChar: g
Encoding: 103 103 74
Width: 865
Flags: W
LayerCount: 2
Fore
SplineSet
293.5 764 m 128,-1,1
 252 703 252 703 252 603 c 128,-1,2
 252 503 252 503 306.5 431 c 128,-1,3
 361 359 361 359 433 359 c 128,-1,4
 505 359 505 359 549 411.5 c 128,-1,5
 593 464 593 464 593 566 c 128,-1,6
 593 668 593 668 544.5 746.5 c 128,-1,7
 496 825 496 825 415.5 825 c 128,-1,0
 335 825 335 825 293.5 764 c 128,-1,1
186 -116 m 0,8,9
 186 -299 186 -299 462 -299 c 0,10,11
 567 -299 567 -299 640 -250 c 128,-1,12
 713 -201 713 -201 713 -119 c 128,-1,13
 713 -37 713 -37 669 -10 c 128,-1,14
 625 17 625 17 492 17 c 2,15,-1
 280 17 l 1,16,17
 251 10 251 10 218.5 -25.5 c 128,-1,18
 186 -61 186 -61 186 -116 c 0,8,9
220 35 m 1,19,20
 124 80 124 80 124 162 c 0,21,22
 124 197 124 197 170.5 243.5 c 128,-1,23
 217 290 217 290 276 322 c 1,24,-1
 276 327 l 1,25,26
 227 345 227 345 176 416 c 128,-1,27
 125 487 125 487 125 578 c 0,28,29
 125 702 125 702 220 793.5 c 128,-1,30
 315 885 315 885 430.5 885 c 128,-1,31
 546 885 546 885 635 822 c 1,32,-1
 854 838 l 1,33,-1
 870 820 l 1,34,-1
 835 725 l 1,35,-1
 823 723 l 1,36,-1
 682 764 l 1,37,-1
 679 753 l 1,38,39
 693 728 693 728 708 678.5 c 128,-1,40
 723 629 723 629 723 588 c 0,41,42
 723 506 723 506 674.5 436 c 128,-1,43
 626 366 626 366 554 328.5 c 128,-1,44
 482 291 482 291 421 291 c 128,-1,45
 360 291 360 291 315 306 c 1,46,-1
 282 274 l 2,47,48
 249 241 249 241 249 210 c 0,49,50
 249 132 249 132 419 132 c 2,51,-1
 573 132 l 2,52,53
 701 132 701 132 753.5 106.5 c 128,-1,54
 806 81 806 81 824 42 c 128,-1,55
 842 3 842 3 841 -70 c 128,-1,56
 840 -143 840 -143 777.5 -219 c 128,-1,57
 715 -295 715 -295 612.5 -341 c 128,-1,58
 510 -387 510 -387 376 -387 c 128,-1,59
 242 -387 242 -387 146 -329.5 c 128,-1,60
 50 -272 50 -272 50 -165 c 0,61,62
 50 -93 50 -93 106.5 -47 c 128,-1,63
 163 -1 163 -1 220 28 c 1,64,-1
 220 35 l 1,19,20
EndSplineSet
EndChar

StartChar: h
Encoding: 104 104 75
Width: 1046
Flags: W
LayerCount: 2
Fore
SplineSet
347 733 m 1,0,1
 491 891 491 891 666 891 c 0,2,3
 763 891 763 891 823.5 821 c 128,-1,4
 884 751 884 751 884 588 c 2,5,-1
 884 86 l 1,6,-1
 1026 58 l 1,7,-1
 1017 0 l 1,8,-1
 606 0 l 1,9,-1
 615 54 l 1,10,-1
 752 86 l 1,11,-1
 755 561 l 1,12,-1
 755 568 l 2,13,14
 755 681 755 681 706 732 c 128,-1,15
 657 783 657 783 581 783 c 0,16,17
 455 783 455 783 352 670 c 1,18,-1
 352 87 l 1,19,-1
 497 58 l 1,20,-1
 487 0 l 1,21,-1
 55 0 l 1,22,-1
 66 57 l 1,23,-1
 220 87 l 1,24,-1
 220 1154 l 1,25,-1
 63 1196 l 1,26,-1
 72 1250 l 1,27,-1
 336 1271 l 1,28,-1
 352 1254 l 1,29,-1
 352 839 l 1,30,-1
 339 733 l 1,31,-1
 347 733 l 1,0,1
EndSplineSet
EndChar

StartChar: i
Encoding: 105 105 76
Width: 555
Flags: W
LayerCount: 2
Fore
SplineSet
80 0 m 1,0,-1
 92 55 l 1,1,-1
 243 87 l 1,2,-1
 243 772 l 1,3,-1
 91 814 l 1,4,-1
 99 865 l 1,5,-1
 358 887 l 1,6,-1
 374 871 l 1,7,-1
 374 87 l 1,8,-1
 534 57 l 1,9,-1
 523 0 l 1,10,-1
 80 0 l 1,0,-1
235.5 1122.5 m 128,-1,12
 213 1152 213 1152 213 1198.5 c 128,-1,13
 213 1245 213 1245 236 1273 c 128,-1,14
 259 1301 259 1301 297 1301 c 128,-1,15
 335 1301 335 1301 359 1273 c 128,-1,16
 383 1245 383 1245 383 1198 c 128,-1,17
 383 1151 383 1151 360 1122 c 128,-1,18
 337 1093 337 1093 297.5 1093 c 128,-1,11
 258 1093 258 1093 235.5 1122.5 c 128,-1,12
EndSplineSet
EndChar

StartChar: j
Encoding: 106 106 77
Width: 460
Flags: W
LayerCount: 2
Fore
SplineSet
207.5 1109 m 128,-1,1
 182 1141 182 1141 182 1190.5 c 128,-1,2
 182 1240 182 1240 208 1269.5 c 128,-1,3
 234 1299 234 1299 275 1299 c 128,-1,4
 316 1299 316 1299 342.5 1269 c 128,-1,5
 369 1239 369 1239 369 1189.5 c 128,-1,6
 369 1140 369 1140 343 1108.5 c 128,-1,7
 317 1077 317 1077 275 1077 c 128,-1,0
 233 1077 233 1077 207.5 1109 c 128,-1,1
4 -315 m 1,8,9
 160 -197 160 -197 199 -16 c 0,10,11
 216 63 216 63 216 160 c 2,12,-1
 216 760 l 1,13,-1
 65 801 l 1,14,-1
 74 855 l 1,15,-1
 332 875 l 1,16,-1
 349 858 l 1,17,-1
 349 151 l 2,18,19
 349 -191 349 -191 89 -356 c 1,20,-1
 45 -383 l 1,21,-1
 4 -315 l 1,8,9
EndSplineSet
EndChar

StartChar: k
Encoding: 107 107 78
Width: 977
Flags: W
LayerCount: 2
Fore
SplineSet
382 429 m 1,0,-1
 382 447 l 1,1,-1
 668 781 l 1,2,-1
 534 818 l 1,3,-1
 542 873 l 1,4,-1
 935 873 l 1,5,-1
 925 819 l 1,6,-1
 775 782 l 1,7,-1
 510 473 l 1,8,-1
 742 196 l 1,9,10
 804 124 804 124 845 97.5 c 128,-1,11
 886 71 886 71 942 64 c 2,12,-1
 981 59 l 1,13,-1
 972 0 l 1,14,15
 912 -20 912 -20 864.5 -20 c 128,-1,16
 817 -20 817 -20 783 -8.5 c 128,-1,17
 749 3 749 3 694 51.5 c 128,-1,18
 639 100 639 100 516 258 c 2,19,-1
 382 429 l 1,0,-1
59 0 m 1,20,-1
 69 55 l 1,21,-1
 223 87 l 1,22,-1
 223 1151 l 1,23,-1
 67 1192 l 1,24,-1
 73 1244 l 1,25,-1
 336 1266 l 1,26,-1
 352 1249 l 1,27,-1
 352 87 l 1,28,-1
 512 57 l 1,29,-1
 503 0 l 1,30,-1
 59 0 l 1,20,-1
EndSplineSet
EndChar

StartChar: l
Encoding: 108 108 79
Width: 540
Flags: W
LayerCount: 2
Fore
SplineSet
59 0 m 1,0,-1
 69 55 l 1,1,-1
 223 87 l 1,2,-1
 223 1156 l 1,3,-1
 67 1197 l 1,4,-1
 73 1249 l 1,5,-1
 335 1270 l 1,6,-1
 352 1254 l 1,7,-1
 352 87 l 1,8,-1
 513 57 l 1,9,-1
 501 0 l 1,10,-1
 59 0 l 1,0,-1
EndSplineSet
EndChar

StartChar: m
Encoding: 109 109 80
Width: 1592
Flags: W
LayerCount: 2
Fore
SplineSet
81 0 m 1,0,-1
 90 54 l 1,1,-1
 242 86 l 1,2,-1
 242 753 l 1,3,-1
 85 793 l 1,4,-1
 91 845 l 1,5,-1
 360 875 l 1,6,-1
 372 861 l 1,7,-1
 361 728 l 1,8,-1
 369 728 l 1,9,10
 423 794 423 794 505.5 841.5 c 128,-1,11
 588 889 588 889 671.5 889 c 128,-1,12
 755 889 755 889 813 846.5 c 128,-1,13
 871 804 871 804 889 723 c 1,14,-1
 900 723 l 1,15,16
 952 790 952 790 1032.5 837.5 c 128,-1,17
 1113 885 1113 885 1201 885 c 0,18,19
 1327 885 1327 885 1382 810 c 128,-1,20
 1437 735 1437 735 1437 597 c 2,21,-1
 1437 87 l 1,22,-1
 1579 60 l 1,23,-1
 1566 2 l 1,24,-1
 1169 2 l 1,25,-1
 1175 54 l 1,26,-1
 1305 86 l 1,27,-1
 1305 573 l 2,28,29
 1305 672 1305 672 1259.5 726 c 128,-1,30
 1214 780 1214 780 1129 780 c 0,31,32
 1018 780 1018 780 905 660 c 1,33,-1
 905 86 l 1,34,-1
 1044 58 l 1,35,-1
 1036 0 l 1,36,-1
 638 0 l 1,37,-1
 646 54 l 1,38,-1
 779 86 l 1,39,-1
 779 573 l 2,40,41
 779 667 779 667 732.5 724 c 128,-1,42
 686 781 686 781 612 781 c 0,43,44
 466 781 466 781 373 666 c 1,45,-1
 373 86 l 1,46,-1
 516 58 l 1,47,-1
 506 0 l 1,48,-1
 81 0 l 1,0,-1
EndSplineSet
EndChar

StartChar: n
Encoding: 110 110 81
Width: 1071
Flags: W
LayerCount: 2
Fore
SplineSet
79 0 m 1,0,-1
 87 52 l 1,1,-1
 240 86 l 1,2,-1
 240 755 l 1,3,-1
 85 794 l 1,4,-1
 92 846 l 1,5,-1
 357 876 l 1,6,-1
 369 862 l 1,7,-1
 359 730 l 1,8,-1
 367 730 l 1,9,10
 417 792 417 792 502 841 c 128,-1,11
 587 890 587 890 686 890 c 128,-1,12
 785 890 785 890 847 817 c 128,-1,13
 909 744 909 744 909 600 c 2,14,-1
 909 86 l 1,15,-1
 1050 58 l 1,16,-1
 1043 0 l 1,17,-1
 630 0 l 1,18,-1
 638 52 l 1,19,-1
 778 86 l 1,20,-1
 778 568 l 2,21,22
 778 676 778 676 730.5 728.5 c 128,-1,23
 683 781 683 781 610.5 781 c 128,-1,24
 538 781 538 781 484 755.5 c 128,-1,25
 430 730 430 730 370 670 c 1,26,-1
 370 86 l 1,27,-1
 516 58 l 1,28,-1
 506 0 l 1,29,-1
 79 0 l 1,0,-1
EndSplineSet
EndChar

StartChar: o
Encoding: 111 111 82
Width: 944
Flags: W
LayerCount: 2
Fore
SplineSet
297.5 713.5 m 128,-1,1
 235 621 235 621 235 495 c 128,-1,2
 235 369 235 369 266 273.5 c 128,-1,3
 297 178 297 178 363.5 116 c 128,-1,4
 430 54 430 54 527.5 54 c 128,-1,5
 625 54 625 54 686 148.5 c 128,-1,6
 747 243 747 243 747 392 c 128,-1,7
 747 541 747 541 678 668 c 0,8,9
 645 730 645 730 590.5 768 c 128,-1,10
 536 806 536 806 469 806 c 0,11,0
 360 806 360 806 297.5 713.5 c 128,-1,1
201.5 94 m 128,-1,13
 94 215 94 215 94 422.5 c 128,-1,14
 94 630 94 630 215.5 760.5 c 128,-1,15
 337 891 337 891 512 891 c 0,16,17
 625 891 625 891 711.5 831 c 128,-1,18
 798 771 798 771 843 669 c 128,-1,19
 888 567 888 567 888 439 c 0,20,21
 888 234 888 234 771.5 103.5 c 128,-1,22
 655 -27 655 -27 482 -27 c 128,-1,12
 309 -27 309 -27 201.5 94 c 128,-1,13
EndSplineSet
EndChar

StartChar: p
Encoding: 112 112 83
Width: 978
Flags: W
LayerCount: 2
Fore
SplineSet
554 781 m 0,0,1
 455 781 455 781 340 662 c 1,2,-1
 340 -286 l 1,3,-1
 496 -312 l 1,4,-1
 486 -373 l 1,5,-1
 52 -373 l 1,6,-1
 58 -315 l 1,7,-1
 210 -285 l 1,8,-1
 210 754 l 1,9,-1
 56 792 l 1,10,-1
 64 845 l 1,11,-1
 329 873 l 1,12,-1
 342 859 l 1,13,-1
 333 722 l 1,14,-1
 340 722 l 1,15,16
 388 788 388 788 459.5 837 c 128,-1,17
 531 886 531 886 620 886 c 0,18,19
 756 886 756 886 838 781 c 128,-1,20
 920 676 920 676 920 462.5 c 128,-1,21
 920 249 920 249 796.5 114.5 c 128,-1,22
 673 -20 673 -20 482 -20 c 0,23,24
 440 -20 440 -20 380 -9 c 1,25,-1
 375 87 l 1,26,27
 434 64 434 64 538.5 64 c 128,-1,28
 643 64 643 64 710.5 155 c 128,-1,29
 778 246 778 246 778 404 c 0,30,31
 778 781 778 781 554 781 c 0,0,1
EndSplineSet
EndChar

StartChar: q
Encoding: 113 113 84
Width: 963
Flags: W
LayerCount: 2
Fore
SplineSet
88 407 m 0,0,1
 88 506 88 506 125 596.5 c 128,-1,2
 162 687 162 687 221.5 750.5 c 128,-1,3
 281 814 281 814 358 851.5 c 128,-1,4
 435 889 435 889 523.5 889 c 128,-1,5
 612 889 612 889 694 845 c 1,6,-1
 788 878 l 1,7,-1
 811 878 l 1,8,-1
 811 -280 l 1,9,-1
 972 -306 l 1,10,-1
 963 -367 l 1,11,-1
 519 -367 l 1,12,-1
 527 -308 l 1,13,-1
 678 -280 l 1,14,-1
 678 691 l 1,15,16
 647 739 647 739 592 774 c 128,-1,17
 537 809 537 809 464 809 c 0,18,19
 364 809 364 809 295.5 713.5 c 128,-1,20
 227 618 227 618 227 446.5 c 128,-1,21
 227 275 227 275 290.5 176.5 c 128,-1,22
 354 78 354 78 465 78 c 0,23,24
 504 78 504 78 558.5 91 c 128,-1,25
 613 104 613 104 647 127 c 1,26,-1
 651 71 l 1,27,28
 606 28 606 28 537.5 3.5 c 128,-1,29
 469 -21 469 -21 405 -21 c 0,30,31
 264 -21 264 -21 176 86 c 128,-1,32
 88 193 88 193 88 407 c 0,0,1
EndSplineSet
EndChar

StartChar: r
Encoding: 114 114 85
Width: 738
Flags: W
LayerCount: 2
Fore
SplineSet
76 0 m 1,0,-1
 84 52 l 1,1,-1
 239 86 l 1,2,-1
 239 757 l 1,3,-1
 79 796 l 1,4,-1
 88 848 l 1,5,-1
 347 877 l 1,6,-1
 363 860 l 1,7,-1
 349 615 l 1,8,-1
 363 615 l 1,9,10
 399 744 399 744 464.5 819.5 c 128,-1,11
 530 895 530 895 592 895 c 128,-1,12
 654 895 654 895 684 867 c 128,-1,13
 714 839 714 839 714 793 c 128,-1,14
 714 747 714 747 652 704 c 1,15,16
 601 756 601 756 543 756 c 128,-1,17
 485 756 485 756 435.5 672 c 128,-1,18
 386 588 386 588 369 464 c 1,19,-1
 369 88 l 1,20,-1
 599 61 l 1,21,-1
 591 0 l 1,22,-1
 76 0 l 1,0,-1
EndSplineSet
EndChar

StartChar: s
Encoding: 115 115 86
Width: 692
Flags: W
LayerCount: 2
Fore
SplineSet
177 264 m 1,0,1
 224 40 224 40 372 40 c 0,2,3
 445 40 445 40 487 74 c 128,-1,4
 529 108 529 108 529 152 c 128,-1,5
 529 196 529 196 506 228 c 128,-1,6
 483 260 483 260 445.5 286.5 c 128,-1,7
 408 313 408 313 363 340 c 0,8,9
 255 403 255 403 181.5 467.5 c 128,-1,10
 108 532 108 532 108 631.5 c 128,-1,11
 108 731 108 731 177.5 810 c 128,-1,12
 247 889 247 889 385 889 c 0,13,14
 483 889 483 889 549 839 c 128,-1,15
 615 789 615 789 615 724 c 0,16,17
 615 606 615 606 510 597 c 1,18,-1
 502 636 l 1,19,20
 459 825 459 825 347 825 c 0,21,22
 286 825 286 825 250 790.5 c 128,-1,23
 214 756 214 756 214 707.5 c 128,-1,24
 214 659 214 659 238 623 c 0,25,26
 275 567 275 567 384 502 c 1,27,-1
 477 445 l 1,28,29
 586 374 586 374 623 306 c 0,30,31
 647 262 647 262 647 212 c 0,32,33
 647 104 647 104 557.5 34.5 c 128,-1,34
 468 -35 468 -35 348 -35 c 128,-1,35
 228 -35 228 -35 149.5 18.5 c 128,-1,36
 71 72 71 72 71 154 c 0,37,38
 71 199 71 199 101 229 c 128,-1,39
 131 259 131 259 177 264 c 1,0,1
EndSplineSet
EndChar

StartChar: t
Encoding: 116 116 87
Width: 640
Flags: W
LayerCount: 2
Fore
SplineSet
380 -24 m 0,0,1
 187 -24 187 -24 189 251 c 2,2,-1
 193 771 l 1,3,-1
 66 771 l 1,4,-1
 66 811 l 1,5,6
 201 872 201 872 280 1068 c 1,7,-1
 327 1068 l 1,8,-1
 327 840 l 1,9,-1
 610 840 l 1,10,-1
 602 768 l 1,11,-1
 326 768 l 1,12,-1
 323 310 l 2,13,14
 323 188 323 188 355 143 c 128,-1,15
 387 98 387 98 457 98 c 128,-1,16
 527 98 527 98 594 146 c 1,17,-1
 616 163 l 1,18,-1
 635 119 l 1,19,20
 589 53 589 53 521.5 14.5 c 128,-1,21
 454 -24 454 -24 380 -24 c 0,0,1
EndSplineSet
EndChar

StartChar: u
Encoding: 117 117 88
Width: 1013
Flags: W
LayerCount: 2
Fore
SplineSet
705 132 m 1,0,1
 600 -24 600 -24 427 -24 c 0,2,3
 199 -24 199 -24 199 275 c 2,4,-1
 199 757 l 1,5,-1
 54 800 l 1,6,-1
 62 853 l 1,7,-1
 311 874 l 1,8,-1
 327 857 l 1,9,-1
 327 317 l 2,10,11
 327 86 327 86 499 86 c 0,12,13
 614 86 614 86 705 187 c 1,14,-1
 705 754 l 1,15,-1
 548 790 l 1,16,-1
 554 850 l 1,17,-1
 820 874 l 1,18,-1
 834 857 l 1,19,-1
 834 223 l 2,20,21
 834 148 834 148 855 114.5 c 128,-1,22
 876 81 876 81 933 70 c 1,23,-1
 987 58 l 1,24,-1
 980 -1 l 1,25,26
 912 -21 912 -21 850.5 -21 c 128,-1,27
 789 -21 789 -21 753 19 c 128,-1,28
 717 59 717 59 717 120 c 2,29,-1
 717 132 l 1,30,-1
 705 132 l 1,0,1
EndSplineSet
EndChar

StartChar: v
Encoding: 118 118 89
Width: 921
Flags: W
LayerCount: 2
Fore
SplineSet
30 806 m 1,0,-1
 37 861 l 1,1,-1
 443 861 l 1,2,-1
 438 808 l 1,3,-1
 292 771 l 1,4,-1
 501 161 l 1,5,-1
 713 769 l 1,6,-1
 553 806 l 1,7,-1
 564 861 l 1,8,-1
 923 861 l 1,9,-1
 914 808 l 1,10,-1
 805 771 l 1,11,-1
 524 -11 l 1,12,-1
 434 -26 l 1,13,-1
 152 769 l 1,14,-1
 30 806 l 1,0,-1
EndSplineSet
EndChar

StartChar: w
Encoding: 119 119 90
Width: 1237
Flags: W
LayerCount: 2
Fore
SplineSet
22 808 m 1,0,-1
 29 863 l 1,1,-1
 412 863 l 1,2,-1
 405 809 l 1,3,-1
 270 777 l 1,4,-1
 391 360 l 1,5,-1
 428 203 l 1,6,-1
 591 798 l 1,7,-1
 705 817 l 1,8,-1
 843 345 l 1,9,-1
 875 193 l 1,10,-1
 1036 775 l 1,11,-1
 885 808 l 1,12,-1
 892 863 l 1,13,-1
 1248 863 l 1,14,-1
 1240 809 l 1,15,-1
 1132 777 l 1,16,-1
 910 -9 l 1,17,-1
 825 -25 l 1,18,-1
 634 630 l 1,19,-1
 462 -9 l 1,20,-1
 375 -25 l 1,21,-1
 138 775 l 1,22,-1
 22 808 l 1,0,-1
EndSplineSet
EndChar

StartChar: x
Encoding: 120 120 91
Width: 934
Flags: W
LayerCount: 2
Fore
SplineSet
17 0 m 1,0,-1
 26 52 l 1,1,-1
 134 86 l 1,2,-1
 400 431 l 1,3,-1
 154 783 l 1,4,-1
 36 815 l 1,5,-1
 43 870 l 1,6,-1
 437 870 l 1,7,-1
 427 817 l 1,8,-1
 312 785 l 1,9,-1
 496 527 l 1,10,-1
 693 781 l 1,11,-1
 555 815 l 1,12,-1
 567 870 l 1,13,-1
 916 870 l 1,14,-1
 905 816 l 1,15,-1
 801 783 l 1,16,-1
 550 459 l 1,17,-1
 812 84 l 1,18,-1
 926 52 l 1,19,-1
 918 0 l 1,20,-1
 513 0 l 1,21,-1
 525 51 l 1,22,-1
 652 84 l 1,23,-1
 456 362 l 1,24,-1
 244 86 l 1,25,-1
 386 54 l 1,26,-1
 377 0 l 1,27,-1
 17 0 l 1,0,-1
EndSplineSet
EndChar

StartChar: y
Encoding: 121 121 92
Width: 936
Flags: W
LayerCount: 2
Fore
SplineSet
71.5 -348.5 m 128,-1,1
 30 -318 30 -318 30 -266.5 c 128,-1,2
 30 -215 30 -215 75 -176 c 1,3,4
 144 -229 144 -229 233 -229 c 0,5,6
 344 -229 344 -229 415 -49 c 1,7,-1
 438 12 l 1,8,-1
 160 772 l 1,9,-1
 36 805 l 1,10,-1
 45 861 l 1,11,-1
 428 861 l 1,12,-1
 422 808 l 1,13,-1
 295 775 l 1,14,-1
 510 195 l 1,15,-1
 740 771 l 1,16,-1
 610 806 l 1,17,-1
 621 861 l 1,18,-1
 938 861 l 1,19,-1
 933 808 l 1,20,-1
 832 772 l 1,21,-1
 502 -53 l 2,22,23
 430 -233 430 -233 359 -306 c 128,-1,24
 288 -379 288 -379 175 -379 c 0,25,0
 113 -379 113 -379 71.5 -348.5 c 128,-1,1
EndSplineSet
EndChar

StartChar: z
Encoding: 122 122 93
Width: 858
Flags: W
LayerCount: 2
Fore
SplineSet
96 63 m 1,0,-1
 612 788 l 1,1,-1
 227 788 l 1,2,-1
 171 583 l 1,3,-1
 115 592 l 1,4,-1
 125 861 l 1,5,-1
 772 861 l 1,6,-1
 774 809 l 1,7,-1
 251 78 l 1,8,-1
 664 78 l 1,9,-1
 739 275 l 1,10,-1
 790 269 l 1,11,-1
 760 0 l 1,12,-1
 100 0 l 1,13,-1
 96 63 l 1,0,-1
EndSplineSet
EndChar

StartChar: braceleft
Encoding: 123 123 94
Width: 607
Flags: W
LayerCount: 2
Fore
SplineSet
559 -378 m 1,0,-1
 456 -378 l 2,1,2
 325 -378 325 -378 278 -290.5 c 128,-1,3
 231 -203 231 -203 226 -69 c 0,4,5
 223 -7 223 -7 222 56 c 0,6,7
 221 204 221 204 200 281 c 0,8,9
 173 384 173 384 83 395 c 1,10,-1
 32 402 l 1,11,-1
 32 476 l 1,12,-1
 80 484 l 1,13,14
 193 501 193 501 212 656 c 0,15,16
 221 725 221 725 222 806 c 128,-1,17
 223 887 223 887 228 966 c 128,-1,18
 233 1045 233 1045 251 1110 c 128,-1,19
 269 1175 269 1175 319 1215.5 c 128,-1,20
 369 1256 369 1256 452 1256 c 2,21,-1
 554 1256 l 1,22,-1
 546 1182 l 1,23,-1
 452 1175 l 2,24,25
 378 1169 378 1169 368 1036 c 0,26,27
 363 977 363 977 363 905 c 0,28,29
 363 725 363 725 340 620 c 0,30,31
 308 474 308 474 184 443 c 1,32,-1
 184 438 l 1,33,34
 248 424 248 424 287.5 376.5 c 128,-1,35
 327 329 327 329 341.5 264 c 128,-1,36
 356 199 356 199 361 123.5 c 128,-1,37
 366 48 366 48 366.5 -25 c 128,-1,38
 367 -98 367 -98 373 -158 c 0,39,40
 386 -293 386 -293 464 -297 c 1,41,-1
 551 -303 l 1,42,-1
 559 -378 l 1,0,-1
EndSplineSet
EndChar

StartChar: bar
Encoding: 124 124 95
Width: 448
Flags: W
LayerCount: 2
Fore
SplineSet
191 -367 m 1,0,-1
 191 1261 l 1,1,-1
 287 1248 l 1,2,-1
 287 -380 l 1,3,-1
 191 -367 l 1,0,-1
EndSplineSet
EndChar

StartChar: braceright
Encoding: 125 125 96
Width: 607
Flags: W
LayerCount: 2
Fore
SplineSet
32 -378 m 1,0,-1
 40 -303 l 1,1,-1
 127 -297 l 1,2,3
 205 -293 205 -293 218 -158 c 0,4,5
 223 -98 223 -98 224 -25 c 128,-1,6
 225 48 225 48 230 123.5 c 128,-1,7
 235 199 235 199 249 264 c 128,-1,8
 263 329 263 329 302.5 376.5 c 128,-1,9
 342 424 342 424 406 438 c 1,10,-1
 406 443 l 1,11,12
 282 474 282 474 250 620 c 0,13,14
 226 729 226 729 227 853 c 128,-1,15
 228 977 228 977 224 1036 c 0,16,17
 213 1169 213 1169 139 1175 c 2,18,-1
 45 1182 l 1,19,-1
 37 1256 l 1,20,-1
 139 1256 l 2,21,22
 222 1256 222 1256 272 1215.5 c 128,-1,23
 322 1175 322 1175 340 1110 c 128,-1,24
 358 1045 358 1045 363 966 c 128,-1,25
 368 887 368 887 368.5 806 c 128,-1,26
 369 725 369 725 378 656 c 0,27,28
 397 501 397 501 510 484 c 1,29,-1
 559 476 l 1,30,-1
 559 402 l 1,31,-1
 507 395 l 2,32,33
 395 380 395 380 377 224 c 0,34,35
 369 155 369 155 368.5 74 c 128,-1,36
 368 -7 368 -7 363 -86.5 c 128,-1,37
 358 -166 358 -166 339.5 -231.5 c 128,-1,38
 321 -297 321 -297 270 -337.5 c 128,-1,39
 219 -378 219 -378 135 -378 c 2,40,-1
 32 -378 l 1,0,-1
EndSplineSet
EndChar

StartChar: asciitilde
Encoding: 126 126 97
Width: 947
Flags: W
LayerCount: 2
Fore
SplineSet
83 417 m 1,0,1
 88 440 88 440 110.5 485.5 c 128,-1,2
 133 531 133 531 155.5 558 c 128,-1,3
 178 585 178 585 216.5 603.5 c 128,-1,4
 255 622 255 622 298 613 c 1,5,-1
 697 542 l 1,6,7
 728 535 728 535 757 555.5 c 128,-1,8
 786 576 786 576 800 600 c 2,9,-1
 814 624 l 1,10,-1
 869 623 l 1,11,-1
 861 598 l 2,12,13
 842 538 842 538 806 494 c 0,14,15
 733 404 733 404 647 422 c 1,16,-1
 248 493 l 1,17,18
 219 500 219 500 189.5 477.5 c 128,-1,19
 160 455 160 455 145 430 c 2,20,-1
 130 404 l 1,21,-1
 83 417 l 1,0,1
EndSplineSet
EndChar

StartChar: exclamdown
Encoding: 161 161 99
Width: 434
Flags: W
LayerCount: 2
Fore
SplineSet
153.5 722 m 128,-1,1
 127 752 127 752 127 799 c 128,-1,2
 127 846 127 846 152 878 c 128,-1,3
 177 910 177 910 218.5 910 c 128,-1,4
 260 910 260 910 285 877 c 128,-1,5
 310 844 310 844 310 797.5 c 128,-1,6
 310 751 310 751 283.5 721.5 c 128,-1,7
 257 692 257 692 218.5 692 c 128,-1,0
 180 692 180 692 153.5 722 c 128,-1,1
135 -377 m 0,8,9
 135 -86 135 -86 186 524 c 1,10,-1
 189 529 l 1,11,-1
 253 515 l 1,12,-1
 253 512 l 1,13,14
 295 -158 295 -158 295 -375 c 2,15,-1
 295 -377 l 1,16,17
 289 -396 289 -396 257.5 -406.5 c 128,-1,18
 226 -417 226 -417 194 -417 c 0,19,20
 135 -417 135 -417 135 -377 c 0,8,9
EndSplineSet
EndChar

StartChar: cent
Encoding: 162 162 100
Width: 803
Flags: W
LayerCount: 2
Fore
SplineSet
375 1135 m 1,0,-1
 502 1152 l 1,1,-1
 480 920 l 1,2,-1
 487 920 l 2,3,4
 604 920 604 920 660.5 873 c 128,-1,5
 717 826 717 826 717 759 c 0,6,7
 717 676 717 676 622 660 c 1,8,9
 591 747 591 747 548.5 795 c 128,-1,10
 506 843 506 843 439 843 c 0,11,12
 349 843 349 843 288 743 c 128,-1,13
 227 643 227 643 227 474.5 c 128,-1,14
 227 306 227 306 305.5 187.5 c 128,-1,15
 384 69 384 69 512 69 c 128,-1,16
 640 69 640 69 737 148 c 1,17,-1
 758 102 l 1,18,19
 721 53 721 53 645.5 15.5 c 128,-1,20
 570 -22 570 -22 485 -29 c 1,21,-1
 514 -250 l 1,22,-1
 386 -267 l 1,23,-1
 409 -28 l 1,24,25
 310 -16 310 -16 236 46 c 0,26,27
 87 172 87 172 87 412 c 0,28,29
 87 601 87 601 177 737.5 c 128,-1,30
 267 874 267 874 404 909 c 1,31,-1
 375 1135 l 1,0,-1
EndSplineSet
EndChar

StartChar: sterling
Encoding: 163 163 101
Width: 1092
Flags: W
LayerCount: 2
Fore
SplineSet
82 0 m 1,0,-1
 89 58 l 1,1,-1
 257 96 l 1,2,3
 292 221 292 221 297 461 c 1,4,-1
 298 561 l 1,5,-1
 120 552 l 1,6,-1
 131 631 l 1,7,-1
 301 641 l 1,8,-1
 304 786 l 1,9,10
 316 1251 316 1251 672 1251 c 0,11,12
 808 1251 808 1251 904 1211 c 1,13,-1
 873 892 l 1,14,-1
 806 902 l 1,15,-1
 775 1141 l 1,16,17
 715 1171 715 1171 661 1171 c 128,-1,18
 607 1171 607 1171 574 1159 c 0,19,20
 504 1133 504 1133 480.5 1032 c 128,-1,21
 457 931 457 931 455 702 c 1,22,-1
 455 648 l 1,23,-1
 674 661 l 1,24,-1
 664 581 l 1,25,-1
 453 568 l 1,26,-1
 453 516 l 1,27,28
 450 215 450 215 391 78 c 1,29,-1
 890 77 l 1,30,-1
 1001 336 l 1,31,-1
 1064 322 l 1,32,-1
 1030 0 l 1,33,-1
 82 0 l 1,0,-1
EndSplineSet
EndChar

StartChar: currency
Encoding: 164 164 102
Width: 769
Flags: W
LayerCount: 2
Fore
SplineSet
263.5 632.5 m 128,-1,1
 217 580 217 580 217 494 c 128,-1,2
 217 408 217 408 264 354.5 c 128,-1,3
 311 301 311 301 388.5 301 c 128,-1,4
 466 301 466 301 515 353 c 128,-1,5
 564 405 564 405 564 491 c 128,-1,6
 564 577 564 577 515 631 c 128,-1,7
 466 685 466 685 388 685 c 128,-1,0
 310 685 310 685 263.5 632.5 c 128,-1,1
547 274 m 1,8,9
 457 218 457 218 389.5 218 c 128,-1,10
 322 218 322 218 240 268 c 1,11,-1
 163 179 l 1,12,-1
 96 247 l 1,13,-1
 180 325 l 1,14,15
 159 357 159 357 143 404.5 c 128,-1,16
 127 452 127 452 127 488 c 0,17,18
 127 569 127 569 174 638 c 1,19,-1
 83 723 l 1,20,-1
 151 789 l 1,21,-1
 229 701 l 1,22,23
 263 729 263 729 309 749.5 c 128,-1,24
 355 770 355 770 392 770 c 128,-1,25
 429 770 429 770 477 752 c 128,-1,26
 525 734 525 734 557 710 c 1,27,-1
 634 790 l 1,28,-1
 693 720 l 1,29,-1
 609 646 l 1,30,31
 653 568 653 568 653 511 c 0,32,33
 653 402 653 402 602 334 c 1,34,-1
 695 248 l 1,35,-1
 626 184 l 1,36,-1
 547 274 l 1,8,9
EndSplineSet
EndChar

StartChar: yen
Encoding: 165 165 103
Width: 1151
Flags: W
LayerCount: 2
Fore
SplineSet
90 1188 m 1,0,-1
 98 1244 l 1,1,-1
 537 1244 l 1,2,-1
 529 1188 l 1,3,-1
 379 1156 l 1,4,-1
 618 638 l 1,5,-1
 845 1151 l 1,6,-1
 674 1188 l 1,7,-1
 680 1244 l 1,8,-1
 1074 1244 l 1,9,-1
 1067 1188 l 1,10,-1
 941 1155 l 1,11,-1
 674 578 l 1,12,-1
 1004 578 l 1,13,-1
 993 505 l 1,14,-1
 655 505 l 1,15,-1
 655 338 l 1,16,-1
 1001 338 l 1,17,-1
 990 265 l 1,18,-1
 655 265 l 1,19,-1
 655 90 l 1,20,-1
 829 62 l 1,21,-1
 820 0 l 1,22,-1
 339 0 l 1,23,-1
 347 56 l 1,24,-1
 509 96 l 1,25,-1
 509 265 l 1,26,-1
 183 265 l 1,27,-1
 194 338 l 1,28,-1
 509 338 l 1,29,-1
 509 505 l 1,30,-1
 186 505 l 1,31,-1
 197 578 l 1,32,-1
 490 578 l 1,33,-1
 227 1152 l 1,34,-1
 90 1188 l 1,0,-1
EndSplineSet
EndChar

StartChar: brokenbar
Encoding: 166 166 104
Width: 449
Flags: W
LayerCount: 2
Fore
SplineSet
193 537 m 1,0,-1
 193 1257 l 1,1,-1
 287 1248 l 1,2,-1
 285 529 l 1,3,-1
 193 537 l 1,0,-1
193 -370 m 1,4,-1
 193 419 l 1,5,-1
 288 411 l 1,6,-1
 288 -380 l 1,7,-1
 193 -370 l 1,4,-1
EndSplineSet
EndChar

StartChar: section
Encoding: 167 167 105
Width: 875
Flags: W
LayerCount: 2
Fore
SplineSet
166 1118 m 1,0,1
 272 1270 272 1270 461 1270 c 128,-1,2
 650 1270 650 1270 760 1165 c 1,3,-1
 733 869 l 1,4,-1
 660 878 l 1,5,-1
 634 1096 l 1,6,7
 613 1136 613 1136 557.5 1168 c 128,-1,8
 502 1200 502 1200 431 1200 c 128,-1,9
 360 1200 360 1200 304 1147.5 c 128,-1,10
 248 1095 248 1095 248 1017.5 c 128,-1,11
 248 940 248 940 281 887.5 c 128,-1,12
 314 835 314 835 367 796.5 c 128,-1,13
 420 758 420 758 484 720 c 2,14,-1
 610 644 l 1,15,16
 672 605 672 605 723 561 c 0,17,18
 838 462 838 462 830 318 c 1,19,20
 349 609 349 609 323 626 c 0,21,22
 221 691 221 691 167 764 c 128,-1,23
 113 837 113 837 113 938.5 c 128,-1,24
 113 1040 113 1040 166 1118 c 1,0,1
75 -238 m 1,25,-1
 96 39 l 1,26,-1
 172 29 l 1,27,-1
 204 -176 l 1,28,29
 235 -230 235 -230 302 -264.5 c 128,-1,30
 369 -299 369 -299 455 -299 c 128,-1,31
 541 -299 541 -299 613.5 -242 c 128,-1,32
 686 -185 686 -185 686 -80.5 c 128,-1,33
 686 24 686 24 570 108 c 0,34,35
 519 145 519 145 457 181 c 1,36,-1
 334 256 l 1,37,38
 273 295 273 295 223 338 c 0,39,40
 110 437 110 437 118 576 c 1,41,-1
 592 294 l 2,42,43
 670 248 670 248 701 220 c 0,44,45
 776 153 776 153 803.5 97.5 c 128,-1,46
 831 42 831 42 831 -25 c 0,47,48
 831 -180 831 -180 710 -280.5 c 128,-1,49
 589 -381 589 -381 409 -381 c 0,50,51
 305 -381 305 -381 215 -340.5 c 128,-1,52
 125 -300 125 -300 75 -238 c 1,25,-1
EndSplineSet
EndChar

StartChar: dieresis
Encoding: 168 168 106
Width: 365
Flags: W
LayerCount: 2
Fore
SplineSet
81.5 121.5 m 128,-1,1
 63 144 63 144 63 180.5 c 128,-1,2
 63 217 63 217 82 237.5 c 128,-1,3
 101 258 101 258 132.5 258 c 128,-1,4
 164 258 164 258 184.5 237.5 c 128,-1,5
 205 217 205 217 205 180 c 128,-1,6
 205 143 205 143 185 121 c 128,-1,7
 165 99 165 99 132.5 99 c 128,-1,0
 100 99 100 99 81.5 121.5 c 128,-1,1
-186 121.5 m 128,-1,9
 -205 144 -205 144 -205 180.5 c 128,-1,10
 -205 217 -205 217 -186 237.5 c 128,-1,11
 -167 258 -167 258 -135.5 258 c 128,-1,12
 -104 258 -104 258 -84 237.5 c 128,-1,13
 -64 217 -64 217 -64 180 c 128,-1,14
 -64 143 -64 143 -83.5 121 c 128,-1,15
 -103 99 -103 99 -135 99 c 128,-1,8
 -167 99 -167 99 -186 121.5 c 128,-1,9
EndSplineSet
EndChar

StartChar: copyright
Encoding: 169 169 107
Width: 1378
Flags: W
LayerCount: 2
Fore
SplineSet
459.5 368 m 128,-1,1
 377 472 377 472 377 640 c 128,-1,2
 377 808 377 808 474 919 c 128,-1,3
 571 1030 571 1030 711 1030 c 0,4,5
 808 1030 808 1030 856 990.5 c 128,-1,6
 904 951 904 951 904 895 c 0,7,8
 904 826 904 826 825 813 c 1,9,10
 799 885 799 885 763 925 c 128,-1,11
 727 965 727 965 660.5 965 c 128,-1,12
 594 965 594 965 544 892 c 128,-1,13
 494 819 494 819 494 679.5 c 128,-1,14
 494 540 494 540 559.5 443.5 c 128,-1,15
 625 347 625 347 733 347 c 128,-1,16
 841 347 841 347 921 413 c 1,17,-1
 938 374 l 1,18,19
 904 329 904 329 832.5 296.5 c 128,-1,20
 761 264 761 264 683 264 c 0,21,0
 542 264 542 264 459.5 368 c 128,-1,1
167 644 m 0,22,23
 167 391 167 391 313 226.5 c 128,-1,24
 459 62 459 62 686 62 c 0,25,26
 836 62 836 62 959.5 135 c 128,-1,27
 1083 208 1083 208 1153.5 337.5 c 128,-1,28
 1224 467 1224 467 1224 631 c 128,-1,29
 1224 795 1224 795 1159 930 c 128,-1,30
 1094 1065 1094 1065 971 1143.5 c 128,-1,31
 848 1222 848 1222 694.5 1222 c 128,-1,32
 541 1222 541 1222 421 1145 c 128,-1,33
 301 1068 301 1068 234 936 c 128,-1,34
 167 804 167 804 167 644 c 0,22,23
72 633 m 0,35,36
 72 776 72 776 121 901.5 c 128,-1,37
 170 1027 170 1027 253 1114 c 128,-1,38
 336 1201 336 1201 449 1251 c 128,-1,39
 562 1301 562 1301 687 1301 c 0,40,41
 877 1301 877 1301 1021 1216 c 128,-1,42
 1165 1131 1165 1131 1241.5 980.5 c 128,-1,43
 1318 830 1318 830 1318 640.5 c 128,-1,44
 1318 451 1318 451 1236.5 301 c 128,-1,45
 1155 151 1155 151 1008 65 c 128,-1,46
 861 -21 861 -21 677 -21 c 0,47,48
 405 -21 405 -21 238.5 161.5 c 128,-1,49
 72 344 72 344 72 633 c 0,35,36
EndSplineSet
EndChar

StartChar: ordfeminine
Encoding: 170 170 108
Width: 847
Flags: W
LayerCount: 2
Fore
SplineSet
275 725 m 0,0,1
 275 625 275 625 366 625 c 0,2,3
 451 625 451 625 514 715 c 1,4,-1
 514 900 l 1,5,6
 393 881 393 881 334 840 c 128,-1,7
 275 799 275 799 275 725 c 0,0,1
143 690 m 0,8,9
 143 794 143 794 234.5 869 c 128,-1,10
 326 944 326 944 514 950 c 1,11,-1
 514 980 l 2,12,13
 514 1095 514 1095 487.5 1148.5 c 128,-1,14
 461 1202 461 1202 382 1202 c 0,15,16
 339 1202 339 1202 322 1182 c 1,17,18
 293 1145 293 1145 281 1023 c 1,19,20
 236 1020 236 1020 203.5 1043.5 c 128,-1,21
 171 1067 171 1067 171 1111 c 0,22,23
 171 1174 171 1174 256 1221 c 128,-1,24
 341 1268 341 1268 438 1268 c 0,25,26
 637 1268 637 1268 637 1022 c 2,27,-1
 637 756 l 2,28,29
 637 692 637 692 649 666 c 128,-1,30
 661 640 661 640 711 631 c 2,31,-1
 759 622 l 1,32,-1
 752 574 l 1,33,34
 713 543 713 543 654 543 c 128,-1,35
 595 543 595 543 561 576 c 128,-1,36
 527 609 527 609 527 651 c 2,37,-1
 527 662 l 1,38,-1
 521 662 l 1,39,40
 501 617 501 617 446.5 577 c 128,-1,41
 392 537 392 537 316 537 c 128,-1,42
 240 537 240 537 191.5 578.5 c 128,-1,43
 143 620 143 620 143 690 c 0,8,9
EndSplineSet
EndChar

StartChar: guillemotleft
Encoding: 171 171 109
Width: 432
Flags: W
LayerCount: 2
Fore
SplineSet
23 469 m 1,0,-1
 291 821 l 1,1,-1
 327 774 l 1,2,-1
 151 461 l 1,3,-1
 328 128 l 1,4,-1
 286 77 l 1,5,-1
 25 449 l 1,6,-1
 23 469 l 1,0,-1
270 469 m 1,7,-1
 538 821 l 1,8,-1
 574 774 l 1,9,-1
 398 461 l 1,10,-1
 575 128 l 1,11,-1
 533 77 l 1,12,-1
 272 449 l 1,13,-1
 270 469 l 1,7,-1
EndSplineSet
EndChar

StartChar: logicalnot
Encoding: 172 172 110
Width: 931
Flags: W
LayerCount: 2
Fore
SplineSet
78 584 m 1,0,-1
 90 664 l 1,1,-1
 835 664 l 1,2,-1
 836 351 l 1,3,-1
 747 332 l 1,4,-1
 747 584 l 1,5,-1
 78 584 l 1,0,-1
EndSplineSet
EndChar

StartChar: uni00AD
Encoding: 173 173 111
Width: 573
Flags: W
LayerCount: 2
Fore
SplineSet
82 420 m 1,0,-1
 90 509 l 1,1,-1
 498 570 l 1,2,-1
 490 480 l 1,3,-1
 82 420 l 1,0,-1
EndSplineSet
EndChar

StartChar: registered
Encoding: 174 174 112
Width: 1351
Flags: W
LayerCount: 2
Fore
SplineSet
363 1350 m 128,-1,1
 249 1239 249 1239 249 1040.5 c 128,-1,2
 249 842 249 842 361 723 c 128,-1,3
 473 604 473 604 650 604 c 128,-1,4
 827 604 827 604 949.5 719 c 128,-1,5
 1072 834 1072 834 1072 1025.5 c 128,-1,6
 1072 1217 1072 1217 953 1337 c 128,-1,7
 834 1457 834 1457 655.5 1459 c 128,-1,0
 477 1461 477 1461 363 1350 c 128,-1,1
177 1022 m 0,8,9
 177 1252 177 1252 312 1386 c 128,-1,10
 447 1520 447 1520 652 1520 c 0,11,12
 947 1520 947 1520 1078 1294 c 0,13,14
 1144 1181 1144 1181 1144 1029.5 c 128,-1,15
 1144 878 1144 878 1075 766.5 c 128,-1,16
 1006 655 1006 655 893 598.5 c 128,-1,17
 780 542 780 542 646.5 542 c 128,-1,18
 513 542 513 542 407.5 600.5 c 128,-1,19
 302 659 302 659 239.5 769.5 c 128,-1,20
 177 880 177 880 177 1022 c 0,8,9
584 1284 m 2,21,22
 579 1284 579 1284 574 1284 c 1,23,-1
 574 1062 l 1,24,-1
 665 1062 l 1,25,26
 750 1108 750 1108 750 1181 c 0,27,28
 750 1285 750 1285 619 1285 c 2,29,-1
 606 1285 l 1,30,-1
 584 1284 l 2,21,22
398 774 m 1,31,-1
 403 813 l 1,32,-1
 478 834 l 1,33,-1
 478 1266 l 1,34,-1
 401 1279 l 1,35,-1
 406 1317 l 1,36,37
 532 1338 532 1338 633 1338 c 128,-1,38
 734 1338 734 1338 793.5 1303.5 c 128,-1,39
 853 1269 853 1269 853 1209 c 0,40,41
 853 1091 853 1091 722 1034 c 1,42,-1
 721 1033 l 1,43,-1
 805 926 l 2,44,45
 848 872 848 872 870 852 c 128,-1,46
 892 832 892 832 941 814 c 1,47,-1
 935 773 l 1,48,49
 913 765 913 765 867 765 c 128,-1,50
 821 765 821 765 784.5 795.5 c 128,-1,51
 748 826 748 826 708 899 c 2,52,-1
 647 1010 l 1,53,-1
 574 1010 l 1,54,-1
 574 835 l 1,55,-1
 659 817 l 1,56,-1
 654 774 l 1,57,-1
 398 774 l 1,31,-1
EndSplineSet
EndChar

StartChar: macron
Encoding: 175 175 113
Width: 667
Flags: W
LayerCount: 2
Fore
SplineSet
108 1380 m 1,0,-1
 119 1456 l 1,1,-1
 560 1456 l 1,2,-1
 550 1380 l 1,3,-1
 108 1380 l 1,0,-1
EndSplineSet
EndChar

StartChar: degree
Encoding: 176 176 114
Width: 424
Flags: W
LayerCount: 2
Fore
SplineSet
135 1217 m 128,-1,1
 108 1183 108 1183 108 1124 c 128,-1,2
 108 1065 108 1065 137.5 1023 c 128,-1,3
 167 981 167 981 214.5 981 c 128,-1,4
 262 981 262 981 290.5 1014.5 c 128,-1,5
 319 1048 319 1048 319 1107 c 128,-1,6
 319 1166 319 1166 289 1208.5 c 128,-1,7
 259 1251 259 1251 210.5 1251 c 128,-1,0
 162 1251 162 1251 135 1217 c 128,-1,1
77.5 974.5 m 128,-1,9
 32 1021 32 1021 32 1103.5 c 128,-1,10
 32 1186 32 1186 88.5 1245 c 128,-1,11
 145 1304 145 1304 227.5 1304 c 128,-1,12
 310 1304 310 1304 353 1258 c 128,-1,13
 396 1212 396 1212 396 1127.5 c 128,-1,14
 396 1043 396 1043 339 985.5 c 128,-1,15
 282 928 282 928 202.5 928 c 128,-1,8
 123 928 123 928 77.5 974.5 c 128,-1,9
EndSplineSet
EndChar

StartChar: plusminus
Encoding: 177 177 115
Width: 680
Flags: W
LayerCount: 2
Fore
SplineSet
95 482 m 1,0,-1
 107 568 l 1,1,-1
 316 568 l 1,2,-1
 316 807 l 1,3,-1
 404 795 l 1,4,-1
 405 568 l 1,5,-1
 625 568 l 1,6,-1
 614 482 l 1,7,-1
 405 482 l 1,8,-1
 407 238 l 1,9,-1
 316 251 l 1,10,-1
 316 482 l 1,11,-1
 95 482 l 1,0,-1
60 26 m 1,12,-1
 77 110 l 1,13,-1
 688 113 l 1,14,-1
 671 29 l 1,15,-1
 60 26 l 1,12,-1
EndSplineSet
EndChar

StartChar: uni00B2
Encoding: 178 178 116
Width: 631
Flags: W
LayerCount: 2
Fore
SplineSet
405 1038 m 0,0,1
 405 1194 405 1194 272 1194 c 0,2,3
 197 1194 197 1194 167 1154 c 1,4,-1
 143 1014 l 1,5,-1
 88 1019 l 1,6,-1
 83 1184 l 1,7,8
 110 1224 110 1224 179.5 1249 c 128,-1,9
 249 1274 249 1274 342 1274 c 128,-1,10
 435 1274 435 1274 496.5 1223 c 128,-1,11
 558 1172 558 1172 558 1084.5 c 128,-1,12
 558 997 558 997 524 948 c 0,13,14
 466 864 466 864 398 808 c 2,15,-1
 320 744 l 1,16,17
 286 718 286 718 226 675 c 1,18,-1
 191 652 l 1,19,-1
 484 652 l 1,20,-1
 546 802 l 1,21,-1
 592 790 l 1,22,-1
 572 548 l 1,23,-1
 44 548 l 1,24,-1
 46 626 l 1,25,-1
 200 750 l 2,26,27
 308 838 308 838 356.5 903.5 c 128,-1,28
 405 969 405 969 405 1038 c 0,0,1
EndSplineSet
EndChar

StartChar: uni00B3
Encoding: 179 179 117
Width: 650
Flags: W
LayerCount: 2
Fore
SplineSet
56 598 m 1,0,-1
 89 768 l 1,1,-1
 148 762 l 1,2,-1
 154 634 l 1,3,4
 192 579 192 579 290 579 c 0,5,6
 343 579 343 579 385 620 c 128,-1,7
 427 661 427 661 427 726.5 c 128,-1,8
 427 792 427 792 360.5 834 c 128,-1,9
 294 876 294 876 204 878 c 1,10,-1
 196 918 l 1,11,12
 293 956 293 956 339.5 997 c 128,-1,13
 386 1038 386 1038 386 1089.5 c 128,-1,14
 386 1141 386 1141 357 1179 c 128,-1,15
 328 1217 328 1217 269.5 1217 c 128,-1,16
 211 1217 211 1217 186 1190 c 1,17,-1
 158 1049 l 1,18,-1
 95 1055 l 1,19,-1
 91 1210 l 1,20,21
 117 1241 117 1241 183 1264.5 c 128,-1,22
 249 1288 249 1288 331.5 1288 c 128,-1,23
 414 1288 414 1288 473.5 1244.5 c 128,-1,24
 533 1201 533 1201 533 1129.5 c 128,-1,25
 533 1058 533 1058 482.5 1011 c 128,-1,26
 432 964 432 964 355 940 c 1,27,-1
 355 933 l 1,28,29
 458 921 458 921 516 870.5 c 128,-1,30
 574 820 574 820 574 733 c 128,-1,31
 574 646 574 646 480.5 578.5 c 128,-1,32
 387 511 387 511 262 511 c 0,33,34
 189 511 189 511 132.5 535 c 128,-1,35
 76 559 76 559 56 598 c 1,0,-1
EndSplineSet
EndChar

StartChar: acute
Encoding: 180 180 118
Width: 567
Flags: W
LayerCount: 2
Fore
SplineSet
199 1376 m 1,0,-1
 327 1706 l 1,1,-1
 430 1667 l 1,2,-1
 248 1346 l 1,3,-1
 199 1376 l 1,0,-1
EndSplineSet
EndChar

StartChar: paragraph
Encoding: 182 182 119
Width: 1291
Flags: W
LayerCount: 2
Fore
SplineSet
936 0 m 1,0,-1
 936 1245 l 1,1,-1
 1238 1245 l 1,2,-1
 1231 1188 l 1,3,-1
 1058 1157 l 1,4,-1
 1058 89 l 1,5,-1
 1244 63 l 1,6,-1
 1235 -1 l 1,7,-1
 936 0 l 1,0,-1
649 1171 m 0,8,9
 313 1171 313 1171 313 852 c 0,10,11
 313 717 313 717 399.5 627 c 128,-1,12
 486 537 486 537 642 537 c 1,13,-1
 624 463 l 1,14,15
 144 463 144 463 144 836 c 0,16,17
 144 1011 144 1011 280 1128 c 128,-1,18
 416 1245 416 1245 604 1245 c 2,19,-1
 869 1245 l 1,20,-1
 869 0 l 1,21,-1
 504 0 l 1,22,-1
 510 58 l 1,23,-1
 739 97 l 1,24,-1
 739 1169 l 1,25,26
 698 1171 698 1171 649 1171 c 0,8,9
EndSplineSet
EndChar

StartChar: periodcentered
Encoding: 183 183 120
Width: 402
Flags: W
LayerCount: 2
Fore
SplineSet
136 422 m 128,-1,1
 111 453 111 453 111 502 c 128,-1,2
 111 551 111 551 136.5 579.5 c 128,-1,3
 162 608 162 608 203 608 c 128,-1,4
 244 608 244 608 269.5 579.5 c 128,-1,5
 295 551 295 551 295 502 c 128,-1,6
 295 453 295 453 270 422 c 128,-1,7
 245 391 245 391 203 391 c 128,-1,0
 161 391 161 391 136 422 c 128,-1,1
EndSplineSet
EndChar

StartChar: cedilla
Encoding: 184 184 121
Width: 361
Flags: W
LayerCount: 2
Fore
SplineSet
76 -339 m 1,0,1
 119 -324 119 -324 149 -297.5 c 128,-1,2
 179 -271 179 -271 179 -253.5 c 128,-1,3
 179 -236 179 -236 175 -224 c 0,4,5
 168 -200 168 -200 152 -182 c 2,6,7
 152 -182 152 -182 136 -164 c 0,8,9
 133 -160 133 -160 117 -145 c 128,-1,10
 101 -130 101 -130 99 -128 c 1,11,-1
 190 3 l 1,12,-1
 257 3 l 1,13,-1
 203 -76 l 1,14,15
 292 -155 292 -155 292 -227 c 0,16,17
 292 -330 292 -330 92 -390 c 1,18,-1
 76 -339 l 1,0,1
EndSplineSet
EndChar

StartChar: uni00B9
Encoding: 185 185 122
Width: 563
Flags: W
LayerCount: 2
Fore
SplineSet
69 548 m 1,0,-1
 72 608 l 1,1,-1
 230 631 l 1,2,-1
 230 1161 l 1,3,-1
 80 1161 l 1,4,-1
 84 1222 l 1,5,-1
 352 1258 l 1,6,-1
 371 1258 l 1,7,-1
 371 628 l 1,8,-1
 526 618 l 1,9,-1
 521 548 l 1,10,-1
 69 548 l 1,0,-1
EndSplineSet
EndChar

StartChar: ordmasculine
Encoding: 186 186 123
Width: 944
Flags: W
LayerCount: 2
Fore
SplineSet
306 1127 m 128,-1,1
 261 1056 261 1056 261 964 c 0,2,3
 261 800 261 800 315 702 c 128,-1,4
 369 604 369 604 484 604 c 0,5,6
 568 604 568 604 611.5 677 c 128,-1,7
 655 750 655 750 655 850 c 128,-1,8
 655 950 655 950 634.5 1023.5 c 128,-1,9
 614 1097 614 1097 563.5 1147.5 c 128,-1,10
 513 1198 513 1198 432 1198 c 128,-1,0
 351 1198 351 1198 306 1127 c 128,-1,1
217 633 m 128,-1,12
 126 730 126 730 126 866.5 c 128,-1,13
 126 1003 126 1003 175.5 1092 c 128,-1,14
 225 1181 225 1181 303.5 1225.5 c 128,-1,15
 382 1270 382 1270 475 1270 c 0,16,17
 617 1270 617 1270 703.5 1167.5 c 128,-1,18
 790 1065 790 1065 790 905 c 128,-1,19
 790 745 790 745 692 640.5 c 128,-1,20
 594 536 594 536 451 536 c 128,-1,11
 308 536 308 536 217 633 c 128,-1,12
EndSplineSet
EndChar

StartChar: guillemotright
Encoding: 187 187 124
Width: 432
Flags: W
LayerCount: 2
Fore
SplineSet
576 469 m 1,0,-1
 574 449 l 1,1,-1
 313 77 l 1,2,-1
 271 128 l 1,3,-1
 448 461 l 1,4,-1
 272 774 l 1,5,-1
 308 821 l 1,6,-1
 576 469 l 1,0,-1
329 469 m 1,7,-1
 327 449 l 1,8,-1
 66 77 l 1,9,-1
 24 128 l 1,10,-1
 201 461 l 1,11,-1
 25 774 l 1,12,-1
 61 821 l 1,13,-1
 329 469 l 1,7,-1
EndSplineSet
EndChar

StartChar: onequarter
Encoding: 188 188 125
Width: 1737
Flags: W
LayerCount: 2
Fore
SplineSet
182 -26 m 1,0,-1
 558 588 l 1,1,-1
 912 1211 l 1,2,-1
 1048 1207 l 1,3,-1
 1046 1190 l 1,4,-1
 680 591 l 1,5,-1
 332 -40 l 1,6,-1
 182 -26 l 1,0,-1
-15 550 m 1,7,-1
 -12 610 l 1,8,-1
 146 633 l 1,9,-1
 146 1163 l 1,10,-1
 -4 1163 l 1,11,-1
 0 1224 l 1,12,-1
 268 1260 l 1,13,-1
 287 1260 l 1,14,-1
 287 630 l 1,15,-1
 442 620 l 1,16,-1
 437 550 l 1,17,-1
 -15 550 l 1,7,-1
748 274 m 1,18,-1
 952 274 l 1,19,-1
 952 532 l 1,20,-1
 748 274 l 1,18,-1
642 250 m 1,21,-1
 1038 730 l 1,22,-1
 1088 721 l 1,23,24
 1080 626 1080 626 1080 425 c 2,25,-1
 1080 274 l 1,26,-1
 1228 274 l 1,27,-1
 1219 188 l 1,28,-1
 1080 188 l 1,29,-1
 1080 74 l 1,30,-1
 1199 55 l 1,31,-1
 1193 0 l 1,32,-1
 799 0 l 1,33,-1
 804 50 l 1,34,-1
 954 76 l 1,35,-1
 954 192 l 1,36,-1
 652 192 l 1,37,-1
 642 250 l 1,21,-1
EndSplineSet
EndChar

StartChar: onehalf
Encoding: 189 189 126
Width: 1737
Flags: W
LayerCount: 2
Fore
SplineSet
172 -26 m 1,0,-1
 548 588 l 1,1,-1
 902 1211 l 1,2,-1
 1038 1207 l 1,3,-1
 1036 1190 l 1,4,-1
 670 591 l 1,5,-1
 322 -40 l 1,6,-1
 172 -26 l 1,0,-1
-15 550 m 1,7,-1
 -12 610 l 1,8,-1
 146 633 l 1,9,-1
 146 1163 l 1,10,-1
 -4 1163 l 1,11,-1
 0 1224 l 1,12,-1
 268 1260 l 1,13,-1
 287 1260 l 1,14,-1
 287 630 l 1,15,-1
 442 620 l 1,16,-1
 437 550 l 1,17,-1
 -15 550 l 1,7,-1
1107 490 m 0,18,19
 1107 646 1107 646 974 646 c 0,20,21
 899 646 899 646 869 606 c 1,22,-1
 845 467 l 1,23,-1
 790 472 l 1,24,-1
 785 636 l 1,25,26
 812 676 812 676 881.5 701 c 128,-1,27
 951 726 951 726 1044 726 c 128,-1,28
 1137 726 1137 726 1198.5 675 c 128,-1,29
 1260 624 1260 624 1260 527.5 c 128,-1,30
 1260 431 1260 431 1199.5 361 c 128,-1,31
 1139 291 1139 291 1088 250 c 1,32,-1
 928 128 l 1,33,-1
 893 104 l 1,34,-1
 1186 104 l 1,35,-1
 1248 254 l 1,36,-1
 1294 242 l 1,37,-1
 1274 1 l 1,38,-1
 746 1 l 1,39,-1
 748 78 l 1,40,-1
 902 202 l 2,41,42
 1010 290 1010 290 1058.5 355.5 c 128,-1,43
 1107 421 1107 421 1107 490 c 0,18,19
EndSplineSet
EndChar

StartChar: threequarters
Encoding: 190 190 127
Width: 1737
Flags: W
LayerCount: 2
Fore
SplineSet
748 274 m 1,0,-1
 952 274 l 1,1,-1
 952 532 l 1,2,-1
 748 274 l 1,0,-1
642 250 m 1,3,-1
 1038 730 l 1,4,-1
 1088 721 l 1,5,6
 1080 626 1080 626 1080 425 c 2,7,-1
 1080 274 l 1,8,-1
 1228 274 l 1,9,-1
 1219 188 l 1,10,-1
 1080 188 l 1,11,-1
 1080 74 l 1,12,-1
 1199 55 l 1,13,-1
 1193 0 l 1,14,-1
 799 0 l 1,15,-1
 804 50 l 1,16,-1
 954 76 l 1,17,-1
 954 192 l 1,18,-1
 652 192 l 1,19,-1
 642 250 l 1,3,-1
189 -26 m 1,20,-1
 566 588 l 1,21,-1
 919 1211 l 1,22,-1
 1056 1207 l 1,23,-1
 1053 1190 l 1,24,-1
 687 591 l 1,25,-1
 340 -40 l 1,26,-1
 189 -26 l 1,20,-1
-8 595 m 1,27,-1
 26 766 l 1,28,-1
 85 759 l 1,29,-1
 91 632 l 1,30,31
 128 576 128 576 226 576 c 0,32,33
 279 576 279 576 321.5 617.5 c 128,-1,34
 364 659 364 659 364 724.5 c 128,-1,35
 364 790 364 790 297 832 c 128,-1,36
 230 874 230 874 140 876 c 1,37,-1
 132 915 l 1,38,39
 236 956 236 956 279 998.5 c 128,-1,40
 322 1041 322 1041 322 1090 c 128,-1,41
 322 1139 322 1139 293.5 1176.5 c 128,-1,42
 265 1214 265 1214 205.5 1214 c 128,-1,43
 146 1214 146 1214 122 1188 c 1,44,-1
 94 1046 l 1,45,-1
 32 1052 l 1,46,-1
 28 1208 l 1,47,48
 54 1239 54 1239 120 1262.5 c 128,-1,49
 186 1286 186 1286 268.5 1286 c 128,-1,50
 351 1286 351 1286 410.5 1242 c 128,-1,51
 470 1198 470 1198 470 1126.5 c 128,-1,52
 470 1055 470 1055 419.5 1008 c 128,-1,53
 369 961 369 961 292 937 c 1,54,-1
 292 930 l 1,55,56
 395 918 395 918 452.5 867.5 c 128,-1,57
 510 817 510 817 510 730 c 128,-1,58
 510 643 510 643 416.5 575.5 c 128,-1,59
 323 508 323 508 198 508 c 0,60,61
 125 508 125 508 68.5 532 c 128,-1,62
 12 556 12 556 -8 595 c 1,27,-1
EndSplineSet
EndChar

StartChar: questiondown
Encoding: 191 191 128
Width: 619
Flags: W
LayerCount: 2
Fore
SplineSet
418 902 m 128,-1,1
 443 869 443 869 443 822.5 c 128,-1,2
 443 776 443 776 416.5 746 c 128,-1,3
 390 716 390 716 351.5 716 c 128,-1,4
 313 716 313 716 286.5 746.5 c 128,-1,5
 260 777 260 777 260 824 c 128,-1,6
 260 871 260 871 285 903 c 128,-1,7
 310 935 310 935 351.5 935 c 128,-1,0
 393 935 393 935 418 902 c 128,-1,1
535 -173 m 1,8,9
 594 -200 594 -200 594 -269 c 0,10,11
 594 -307 594 -307 538.5 -347 c 128,-1,12
 483 -387 483 -387 396 -387 c 0,13,14
 268 -387 268 -387 167.5 -270 c 128,-1,15
 67 -153 67 -153 67 7 c 0,16,17
 67 71 67 71 98 119.5 c 128,-1,18
 129 168 129 168 173 197 c 1,19,-1
 260 252 l 1,20,21
 366 315 366 315 366 392 c 0,22,23
 366 443 366 443 331 529 c 1,24,-1
 389 546 l 1,25,26
 420 511 420 511 445 451 c 128,-1,27
 470 391 470 391 470 332.5 c 128,-1,28
 470 274 470 274 438 229 c 128,-1,29
 406 184 406 184 361 157 c 2,30,-1
 270 104 l 1,31,32
 161 43 161 43 161 -39.5 c 128,-1,33
 161 -122 161 -122 216 -184.5 c 128,-1,34
 271 -247 271 -247 343 -247 c 0,35,36
 465 -247 465 -247 535 -173 c 1,8,9
EndSplineSet
EndChar

StartChar: Agrave
Encoding: 192 192 129
Width: 1324
Flags: W
LayerCount: 2
Fore
SplineSet
453 534 m 1,0,-1
 826 534 l 1,1,-1
 646 1060 l 1,2,-1
 453 534 l 1,0,-1
35 0 m 1,3,-1
 43 58 l 1,4,-1
 188 101 l 1,5,-1
 626 1246 l 1,6,-1
 728 1268 l 1,7,-1
 1130 95 l 1,8,-1
 1265 64 l 1,9,-1
 1257 0 l 1,10,-1
 795 0 l 1,11,-1
 805 58 l 1,12,-1
 974 101 l 1,13,-1
 850 455 l 1,14,-1
 425 455 l 1,15,-1
 294 95 l 1,16,-1
 479 63 l 1,17,-1
 469 0 l 1,18,-1
 35 0 l 1,3,-1
482 1701 m 1,19,-1
 586 1738 l 1,20,-1
 719 1403 l 1,21,-1
 668 1372 l 1,22,-1
 482 1701 l 1,19,-1
EndSplineSet
EndChar

StartChar: Aacute
Encoding: 193 193 130
Width: 1324
Flags: W
LayerCount: 2
Fore
SplineSet
453 534 m 1,0,-1
 826 534 l 1,1,-1
 646 1060 l 1,2,-1
 453 534 l 1,0,-1
35 0 m 1,3,-1
 43 58 l 1,4,-1
 188 101 l 1,5,-1
 626 1246 l 1,6,-1
 728 1268 l 1,7,-1
 1130 95 l 1,8,-1
 1265 64 l 1,9,-1
 1257 0 l 1,10,-1
 795 0 l 1,11,-1
 805 58 l 1,12,-1
 974 101 l 1,13,-1
 850 455 l 1,14,-1
 425 455 l 1,15,-1
 294 95 l 1,16,-1
 479 63 l 1,17,-1
 469 0 l 1,18,-1
 35 0 l 1,3,-1
638 1402 m 1,19,-1
 766 1732 l 1,20,-1
 869 1693 l 1,21,-1
 687 1372 l 1,22,-1
 638 1402 l 1,19,-1
EndSplineSet
EndChar

StartChar: Acircumflex
Encoding: 194 194 131
Width: 1324
Flags: W
LayerCount: 2
Fore
SplineSet
453 534 m 1,0,-1
 826 534 l 1,1,-1
 646 1060 l 1,2,-1
 453 534 l 1,0,-1
35 0 m 1,3,-1
 43 58 l 1,4,-1
 188 101 l 1,5,-1
 626 1246 l 1,6,-1
 728 1268 l 1,7,-1
 1130 95 l 1,8,-1
 1265 64 l 1,9,-1
 1257 0 l 1,10,-1
 795 0 l 1,11,-1
 805 58 l 1,12,-1
 974 101 l 1,13,-1
 850 455 l 1,14,-1
 425 455 l 1,15,-1
 294 95 l 1,16,-1
 479 63 l 1,17,-1
 469 0 l 1,18,-1
 35 0 l 1,3,-1
479 1402 m 1,19,-1
 647 1582 l 1,20,-1
 702 1596 l 1,21,-1
 880 1410 l 1,22,-1
 840 1373 l 1,23,-1
 667 1495 l 1,24,-1
 658 1495 l 1,25,-1
 509 1372 l 1,26,-1
 479 1402 l 1,19,-1
EndSplineSet
EndChar

StartChar: Atilde
Encoding: 195 195 132
Width: 1324
Flags: W
LayerCount: 2
Fore
SplineSet
453 534 m 1,0,-1
 826 534 l 1,1,-1
 646 1060 l 1,2,-1
 453 534 l 1,0,-1
35 0 m 1,3,-1
 43 58 l 1,4,-1
 188 101 l 1,5,-1
 626 1246 l 1,6,-1
 728 1268 l 1,7,-1
 1130 95 l 1,8,-1
 1265 64 l 1,9,-1
 1257 0 l 1,10,-1
 795 0 l 1,11,-1
 805 58 l 1,12,-1
 974 101 l 1,13,-1
 850 455 l 1,14,-1
 425 455 l 1,15,-1
 294 95 l 1,16,-1
 479 63 l 1,17,-1
 469 0 l 1,18,-1
 35 0 l 1,3,-1
454 1382 m 1,19,20
 473 1448 473 1448 495 1475 c 0,21,22
 543 1534 543 1534 601 1521 c 2,23,-1
 804 1479 l 1,24,25
 848 1467 848 1467 880 1533 c 1,26,-1
 922 1531 l 1,27,28
 892 1427 892 1427 826 1398 c 0,29,30
 798 1385 798 1385 767 1392 c 2,31,-1
 566 1434 l 1,32,33
 525 1444 525 1444 487 1372 c 1,34,-1
 454 1382 l 1,19,20
EndSplineSet
EndChar

StartChar: Adieresis
Encoding: 196 196 133
Width: 1324
Flags: W
LayerCount: 2
Fore
SplineSet
453 534 m 1,0,-1
 826 534 l 1,1,-1
 646 1060 l 1,2,-1
 453 534 l 1,0,-1
35 0 m 1,3,-1
 43 58 l 1,4,-1
 188 101 l 1,5,-1
 626 1246 l 1,6,-1
 728 1268 l 1,7,-1
 1130 95 l 1,8,-1
 1265 64 l 1,9,-1
 1257 0 l 1,10,-1
 795 0 l 1,11,-1
 805 58 l 1,12,-1
 974 101 l 1,13,-1
 850 455 l 1,14,-1
 425 455 l 1,15,-1
 294 95 l 1,16,-1
 479 63 l 1,17,-1
 469 0 l 1,18,-1
 35 0 l 1,3,-1
761.5 1395.5 m 128,-1,20
 743 1418 743 1418 743 1454.5 c 128,-1,21
 743 1491 743 1491 762 1511.5 c 128,-1,22
 781 1532 781 1532 812.5 1532 c 128,-1,23
 844 1532 844 1532 864.5 1511.5 c 128,-1,24
 885 1491 885 1491 885 1454 c 128,-1,25
 885 1417 885 1417 865 1395 c 128,-1,26
 845 1373 845 1373 812.5 1373 c 128,-1,19
 780 1373 780 1373 761.5 1395.5 c 128,-1,20
494 1395.5 m 128,-1,28
 475 1418 475 1418 475 1454.5 c 128,-1,29
 475 1491 475 1491 494 1511.5 c 128,-1,30
 513 1532 513 1532 544.5 1532 c 128,-1,31
 576 1532 576 1532 596 1511.5 c 128,-1,32
 616 1491 616 1491 616 1454 c 128,-1,33
 616 1417 616 1417 596.5 1395 c 128,-1,34
 577 1373 577 1373 545 1373 c 128,-1,27
 513 1373 513 1373 494 1395.5 c 128,-1,28
EndSplineSet
EndChar

StartChar: Aring
Encoding: 197 197 134
Width: 1324
Flags: W
LayerCount: 2
Fore
SplineSet
453 534 m 1,0,-1
 826 534 l 1,1,-1
 646 1060 l 1,2,-1
 453 534 l 1,0,-1
35 0 m 1,3,-1
 43 58 l 1,4,-1
 188 101 l 1,5,-1
 626 1246 l 1,6,-1
 728 1268 l 1,7,-1
 1130 95 l 1,8,-1
 1265 64 l 1,9,-1
 1257 0 l 1,10,-1
 795 0 l 1,11,-1
 805 58 l 1,12,-1
 974 101 l 1,13,-1
 850 455 l 1,14,-1
 425 455 l 1,15,-1
 294 95 l 1,16,-1
 479 63 l 1,17,-1
 469 0 l 1,18,-1
 35 0 l 1,3,-1
597.5 1625 m 128,-1,20
 575 1591 575 1591 575 1541.5 c 128,-1,21
 575 1492 575 1492 601.5 1451 c 128,-1,22
 628 1410 628 1410 672 1410 c 128,-1,23
 716 1410 716 1410 740 1440.5 c 128,-1,24
 764 1471 764 1471 764 1525 c 128,-1,25
 764 1579 764 1579 736.5 1619 c 128,-1,26
 709 1659 709 1659 664.5 1659 c 128,-1,19
 620 1659 620 1659 597.5 1625 c 128,-1,20
550.5 1410 m 128,-1,28
 508 1455 508 1455 508 1528 c 128,-1,29
 508 1601 508 1601 556.5 1652 c 128,-1,30
 605 1703 605 1703 675.5 1703 c 128,-1,31
 746 1703 746 1703 789 1657.5 c 128,-1,32
 832 1612 832 1612 832 1541 c 128,-1,33
 832 1470 832 1470 784.5 1417.5 c 128,-1,34
 737 1365 737 1365 665 1365 c 128,-1,27
 593 1365 593 1365 550.5 1410 c 128,-1,28
EndSplineSet
EndChar

StartChar: AE
Encoding: 198 198 135
Width: 1686
Flags: W
LayerCount: 2
Fore
SplineSet
532 553 m 1,0,-1
 842 553 l 1,1,-1
 845 1075 l 1,2,-1
 532 553 l 1,0,-1
0 2 m 1,3,-1
 8 60 l 1,4,-1
 147 102 l 1,5,-1
 791 1154 l 1,6,-1
 567 1187 l 1,7,-1
 576 1244 l 1,8,-1
 1600 1244 l 1,9,-1
 1568 926 l 1,10,-1
 1503 936 l 1,11,-1
 1472 1173 l 1,12,-1
 986 1173 l 1,13,-1
 986 669 l 1,14,-1
 1285 669 l 1,15,-1
 1325 801 l 1,16,-1
 1397 808 l 1,17,-1
 1363 421 l 1,18,-1
 1297 409 l 1,19,-1
 1272 596 l 1,20,-1
 986 596 l 1,21,-1
 986 75 l 1,22,-1
 1500 75 l 1,23,-1
 1586 326 l 1,24,-1
 1646 313 l 1,25,-1
 1616 0 l 1,26,-1
 654 0 l 1,27,-1
 661 58 l 1,28,-1
 841 96 l 1,29,-1
 841 472 l 1,30,-1
 486 472 l 1,31,-1
 259 96 l 1,32,-1
 445 66 l 1,33,-1
 435 2 l 1,34,-1
 0 2 l 1,3,-1
EndSplineSet
EndChar

StartChar: Ccedilla
Encoding: 199 199 136
Width: 1113
Flags: W
LayerCount: 2
Fore
SplineSet
511 -354 m 1,0,1
 554 -339 554 -339 584 -312.5 c 128,-1,2
 614 -286 614 -286 614 -268.5 c 128,-1,3
 614 -251 614 -251 610 -238 c 0,4,5
 603 -215 603 -215 586 -196 c 1,6,7
 586 -196 586 -196 572 -179 c 0,8,9
 568 -175 568 -175 552 -160 c 128,-1,10
 536 -145 536 -145 534 -143 c 1,11,-1
 617 -24 l 1,12,13
 396 -9 396 -9 252 158.5 c 128,-1,14
 108 326 108 326 108 599 c 0,15,16
 108 793 108 793 206 973.5 c 128,-1,17
 304 1154 304 1154 488 1228 c 0,18,19
 590 1270 590 1270 711 1270 c 0,20,21
 932 1270 932 1270 1062 1171 c 1,22,-1
 1031 836 l 1,23,-1
 963 846 l 1,24,-1
 927 1086 l 1,25,26
 843 1195 843 1195 669.5 1195 c 128,-1,27
 496 1195 496 1195 383.5 1043 c 128,-1,28
 271 891 271 891 271 637 c 128,-1,29
 271 383 271 383 397.5 233.5 c 128,-1,30
 524 84 524 84 727 84 c 0,31,32
 827 84 827 84 920 132 c 128,-1,33
 1013 180 1013 180 1084 252 c 1,34,-1
 1113 195 l 1,35,36
 1053 115 1053 115 937 48.5 c 128,-1,37
 821 -18 821 -18 684 -24 c 1,38,-1
 638 -91 l 1,39,40
 727 -170 727 -170 727 -242 c 0,41,42
 727 -345 727 -345 527 -405 c 1,43,-1
 511 -354 l 1,0,1
EndSplineSet
EndChar

StartChar: Egrave
Encoding: 200 200 137
Width: 1107
Flags: W
LayerCount: 2
Fore
SplineSet
84 1185 m 1,0,-1
 93 1244 l 1,1,-1
 1044 1244 l 1,2,-1
 1013 925 l 1,3,-1
 946 934 l 1,4,-1
 916 1173 l 1,5,-1
 413 1173 l 1,6,-1
 413 668 l 1,7,-1
 728 668 l 1,8,-1
 768 797 l 1,9,-1
 840 808 l 1,10,-1
 807 419 l 1,11,-1
 741 408 l 1,12,-1
 716 594 l 1,13,-1
 413 594 l 1,14,-1
 413 75 l 1,15,-1
 942 75 l 1,16,-1
 1028 324 l 1,17,-1
 1090 313 l 1,18,-1
 1060 0 l 1,19,-1
 90 0 l 1,20,-1
 96 58 l 1,21,-1
 265 96 l 1,22,-1
 265 1151 l 1,23,-1
 84 1185 l 1,0,-1
423 1701 m 1,24,-1
 527 1738 l 1,25,-1
 660 1403 l 1,26,-1
 609 1372 l 1,27,-1
 423 1701 l 1,24,-1
EndSplineSet
EndChar

StartChar: Eacute
Encoding: 201 201 138
Width: 1107
Flags: W
LayerCount: 2
Fore
SplineSet
84 1185 m 1,0,-1
 93 1244 l 1,1,-1
 1044 1244 l 1,2,-1
 1013 925 l 1,3,-1
 946 934 l 1,4,-1
 916 1173 l 1,5,-1
 413 1173 l 1,6,-1
 413 668 l 1,7,-1
 728 668 l 1,8,-1
 768 797 l 1,9,-1
 840 808 l 1,10,-1
 807 419 l 1,11,-1
 741 408 l 1,12,-1
 716 594 l 1,13,-1
 413 594 l 1,14,-1
 413 75 l 1,15,-1
 942 75 l 1,16,-1
 1028 324 l 1,17,-1
 1090 313 l 1,18,-1
 1060 0 l 1,19,-1
 90 0 l 1,20,-1
 96 58 l 1,21,-1
 265 96 l 1,22,-1
 265 1151 l 1,23,-1
 84 1185 l 1,0,-1
520 1402 m 1,24,-1
 648 1732 l 1,25,-1
 751 1693 l 1,26,-1
 569 1372 l 1,27,-1
 520 1402 l 1,24,-1
EndSplineSet
EndChar

StartChar: Ecircumflex
Encoding: 202 202 139
Width: 1107
Flags: W
LayerCount: 2
Fore
SplineSet
84 1185 m 1,0,-1
 93 1244 l 1,1,-1
 1044 1244 l 1,2,-1
 1013 925 l 1,3,-1
 946 934 l 1,4,-1
 916 1173 l 1,5,-1
 413 1173 l 1,6,-1
 413 668 l 1,7,-1
 728 668 l 1,8,-1
 768 797 l 1,9,-1
 840 808 l 1,10,-1
 807 419 l 1,11,-1
 741 408 l 1,12,-1
 716 594 l 1,13,-1
 413 594 l 1,14,-1
 413 75 l 1,15,-1
 942 75 l 1,16,-1
 1028 324 l 1,17,-1
 1090 313 l 1,18,-1
 1060 0 l 1,19,-1
 90 0 l 1,20,-1
 96 58 l 1,21,-1
 265 96 l 1,22,-1
 265 1151 l 1,23,-1
 84 1185 l 1,0,-1
392 1402 m 1,24,-1
 560 1582 l 1,25,-1
 615 1596 l 1,26,-1
 793 1410 l 1,27,-1
 753 1373 l 1,28,-1
 580 1495 l 1,29,-1
 571 1495 l 1,30,-1
 422 1372 l 1,31,-1
 392 1402 l 1,24,-1
EndSplineSet
EndChar

StartChar: Edieresis
Encoding: 203 203 140
Width: 1107
Flags: W
LayerCount: 2
Fore
SplineSet
84 1185 m 1,0,-1
 93 1244 l 1,1,-1
 1044 1244 l 1,2,-1
 1013 925 l 1,3,-1
 946 934 l 1,4,-1
 916 1173 l 1,5,-1
 413 1173 l 1,6,-1
 413 668 l 1,7,-1
 728 668 l 1,8,-1
 768 797 l 1,9,-1
 840 808 l 1,10,-1
 807 419 l 1,11,-1
 741 408 l 1,12,-1
 716 594 l 1,13,-1
 413 594 l 1,14,-1
 413 75 l 1,15,-1
 942 75 l 1,16,-1
 1028 324 l 1,17,-1
 1090 313 l 1,18,-1
 1060 0 l 1,19,-1
 90 0 l 1,20,-1
 96 58 l 1,21,-1
 265 96 l 1,22,-1
 265 1151 l 1,23,-1
 84 1185 l 1,0,-1
698.5 1395.5 m 128,-1,25
 680 1418 680 1418 680 1454.5 c 128,-1,26
 680 1491 680 1491 699 1511.5 c 128,-1,27
 718 1532 718 1532 749.5 1532 c 128,-1,28
 781 1532 781 1532 801.5 1511.5 c 128,-1,29
 822 1491 822 1491 822 1454 c 128,-1,30
 822 1417 822 1417 802 1395 c 128,-1,31
 782 1373 782 1373 749.5 1373 c 128,-1,24
 717 1373 717 1373 698.5 1395.5 c 128,-1,25
431 1395.5 m 128,-1,33
 412 1418 412 1418 412 1454.5 c 128,-1,34
 412 1491 412 1491 431 1511.5 c 128,-1,35
 450 1532 450 1532 481.5 1532 c 128,-1,36
 513 1532 513 1532 533 1511.5 c 128,-1,37
 553 1491 553 1491 553 1454 c 128,-1,38
 553 1417 553 1417 533.5 1395 c 128,-1,39
 514 1373 514 1373 482 1373 c 128,-1,32
 450 1373 450 1373 431 1395.5 c 128,-1,33
EndSplineSet
EndChar

StartChar: Igrave
Encoding: 204 204 141
Width: 674
Flags: W
LayerCount: 2
Fore
SplineSet
86 1187 m 1,0,-1
 94 1244 l 1,1,-1
 595 1244 l 1,2,-1
 586 1187 l 1,3,-1
 414 1156 l 1,4,-1
 414 90 l 1,5,-1
 601 63 l 1,6,-1
 591 0 l 1,7,-1
 94 0 l 1,8,-1
 101 58 l 1,9,-1
 263 96 l 1,10,-1
 263 1154 l 1,11,-1
 86 1187 l 1,0,-1
159 1701 m 1,12,-1
 263 1738 l 1,13,-1
 396 1403 l 1,14,-1
 345 1372 l 1,15,-1
 159 1701 l 1,12,-1
EndSplineSet
EndChar

StartChar: Iacute
Encoding: 205 205 142
Width: 674
Flags: W
LayerCount: 2
Fore
SplineSet
86 1187 m 1,0,-1
 94 1244 l 1,1,-1
 595 1244 l 1,2,-1
 586 1187 l 1,3,-1
 414 1156 l 1,4,-1
 414 90 l 1,5,-1
 601 63 l 1,6,-1
 591 0 l 1,7,-1
 94 0 l 1,8,-1
 101 58 l 1,9,-1
 263 96 l 1,10,-1
 263 1154 l 1,11,-1
 86 1187 l 1,0,-1
295 1402 m 1,12,-1
 423 1732 l 1,13,-1
 526 1693 l 1,14,-1
 344 1372 l 1,15,-1
 295 1402 l 1,12,-1
EndSplineSet
EndChar

StartChar: Icircumflex
Encoding: 206 206 143
Width: 674
Flags: W
LayerCount: 2
Fore
SplineSet
86 1187 m 1,0,-1
 94 1244 l 1,1,-1
 595 1244 l 1,2,-1
 586 1187 l 1,3,-1
 414 1156 l 1,4,-1
 414 90 l 1,5,-1
 601 63 l 1,6,-1
 591 0 l 1,7,-1
 94 0 l 1,8,-1
 101 58 l 1,9,-1
 263 96 l 1,10,-1
 263 1154 l 1,11,-1
 86 1187 l 1,0,-1
143 1402 m 1,12,-1
 311 1582 l 1,13,-1
 366 1596 l 1,14,-1
 544 1410 l 1,15,-1
 504 1373 l 1,16,-1
 331 1495 l 1,17,-1
 322 1495 l 1,18,-1
 173 1372 l 1,19,-1
 143 1402 l 1,12,-1
EndSplineSet
EndChar

StartChar: Idieresis
Encoding: 207 207 144
Width: 674
Flags: W
LayerCount: 2
Fore
SplineSet
86 1187 m 1,0,-1
 94 1244 l 1,1,-1
 595 1244 l 1,2,-1
 586 1187 l 1,3,-1
 414 1156 l 1,4,-1
 414 90 l 1,5,-1
 601 63 l 1,6,-1
 591 0 l 1,7,-1
 94 0 l 1,8,-1
 101 58 l 1,9,-1
 263 96 l 1,10,-1
 263 1154 l 1,11,-1
 86 1187 l 1,0,-1
425.5 1395.5 m 128,-1,13
 407 1418 407 1418 407 1454.5 c 128,-1,14
 407 1491 407 1491 426 1511.5 c 128,-1,15
 445 1532 445 1532 476.5 1532 c 128,-1,16
 508 1532 508 1532 528.5 1511.5 c 128,-1,17
 549 1491 549 1491 549 1454 c 128,-1,18
 549 1417 549 1417 529 1395 c 128,-1,19
 509 1373 509 1373 476.5 1373 c 128,-1,12
 444 1373 444 1373 425.5 1395.5 c 128,-1,13
158 1395.5 m 128,-1,21
 139 1418 139 1418 139 1454.5 c 128,-1,22
 139 1491 139 1491 158 1511.5 c 128,-1,23
 177 1532 177 1532 208.5 1532 c 128,-1,24
 240 1532 240 1532 260 1511.5 c 128,-1,25
 280 1491 280 1491 280 1454 c 128,-1,26
 280 1417 280 1417 260.5 1395 c 128,-1,27
 241 1373 241 1373 209 1373 c 128,-1,20
 177 1373 177 1373 158 1395.5 c 128,-1,21
EndSplineSet
EndChar

StartChar: Eth
Encoding: 208 208 145
Width: 1348
Flags: W
LayerCount: 2
Fore
SplineSet
409 79 m 1,0,-1
 605 79 l 2,1,2
 771 79 771 79 892 148 c 0,3,4
 1132 285 1132 285 1132 599 c 0,5,6
 1132 855 1132 855 985 1018.5 c 128,-1,7
 838 1182 838 1182 557 1182 c 0,8,9
 458 1182 458 1182 409 1176 c 1,10,-1
 409 672 l 1,11,-1
 681 692 l 1,12,-1
 671 616 l 1,13,-1
 409 597 l 1,14,-1
 409 79 l 1,0,-1
82 574 m 1,15,-1
 92 650 l 1,16,-1
 263 662 l 1,17,-1
 263 1129 l 1,18,-1
 90 1155 l 1,19,-1
 100 1211 l 1,20,21
 411 1260 411 1260 580 1260 c 128,-1,22
 749 1260 749 1260 872 1226 c 0,23,24
 1096 1165 1096 1165 1196.5 1011 c 128,-1,25
 1297 857 1297 857 1297 650.5 c 128,-1,26
 1297 444 1297 444 1174.5 274.5 c 128,-1,27
 1052 105 1052 105 823 36 c 1,28,29
 700 0 700 0 553 0 c 2,30,-1
 81 0 l 1,31,-1
 92 58 l 1,32,-1
 263 101 l 1,33,-1
 263 587 l 1,34,-1
 82 574 l 1,15,-1
EndSplineSet
EndChar

StartChar: Ntilde
Encoding: 209 209 146
Width: 1402
Flags: W
LayerCount: 2
Fore
SplineSet
63 1188 m 1,0,-1
 73 1244 l 1,1,-1
 400 1244 l 1,2,-1
 1067 225 l 1,3,-1
 1067 1154 l 1,4,-1
 882 1187 l 1,5,-1
 891 1244 l 1,6,-1
 1341 1244 l 1,7,-1
 1330 1187 l 1,8,-1
 1164 1156 l 1,9,-1
 1164 -3 l 1,10,-1
 1060 -24 l 1,11,-1
 347 1047 l 1,12,-1
 347 90 l 1,13,-1
 531 63 l 1,14,-1
 521 0 l 1,15,-1
 73 0 l 1,16,-1
 79 58 l 1,17,-1
 246 96 l 1,18,-1
 246 1147 l 1,19,-1
 63 1188 l 1,0,-1
473 1382 m 1,20,21
 492 1448 492 1448 514 1475 c 0,22,23
 562 1534 562 1534 620 1521 c 2,24,-1
 823 1479 l 1,25,26
 867 1467 867 1467 899 1533 c 1,27,-1
 941 1531 l 1,28,29
 911 1427 911 1427 845 1398 c 0,30,31
 817 1385 817 1385 786 1392 c 2,32,-1
 585 1434 l 1,33,34
 544 1444 544 1444 506 1372 c 1,35,-1
 473 1382 l 1,20,21
EndSplineSet
EndChar

StartChar: Ograve
Encoding: 210 210 147
Width: 1331
Flags: W
LayerCount: 2
Fore
SplineSet
278 655 m 0,0,1
 278 551 278 551 305 440.5 c 128,-1,2
 332 330 332 330 383.5 244 c 128,-1,3
 435 158 435 158 518.5 108 c 128,-1,4
 602 58 602 58 698 58 c 128,-1,5
 794 58 794 58 864 88 c 1,6,7
 990 144 990 144 1051.5 279.5 c 128,-1,8
 1113 415 1113 415 1113 579.5 c 128,-1,9
 1113 744 1113 744 1066 883 c 128,-1,10
 1019 1022 1019 1022 919 1109.5 c 128,-1,11
 819 1197 819 1197 681 1197 c 0,12,13
 435 1197 435 1197 334 974 c 0,14,15
 278 848 278 848 278 655 c 0,0,1
178.5 295 m 128,-1,17
 111 442 111 442 111 627 c 128,-1,18
 111 812 111 812 185.5 960 c 128,-1,19
 260 1108 260 1108 401.5 1191 c 128,-1,20
 543 1274 543 1274 730 1274 c 0,21,22
 859 1274 859 1274 964 1223 c 128,-1,23
 1069 1172 1069 1172 1137 1084 c 0,24,25
 1279 899 1279 899 1279 624 c 0,26,27
 1279 418 1279 418 1175 248 c 0,28,29
 1007 -27 1007 -27 640 -27 c 0,30,31
 499 -27 499 -27 372.5 60.5 c 128,-1,16
 246 148 246 148 178.5 295 c 128,-1,17
544 1701 m 1,32,-1
 648 1738 l 1,33,-1
 781 1403 l 1,34,-1
 730 1372 l 1,35,-1
 544 1701 l 1,32,-1
EndSplineSet
EndChar

StartChar: Oacute
Encoding: 211 211 148
Width: 1331
Flags: W
LayerCount: 2
Fore
SplineSet
278 655 m 0,0,1
 278 551 278 551 305 440.5 c 128,-1,2
 332 330 332 330 383.5 244 c 128,-1,3
 435 158 435 158 518.5 108 c 128,-1,4
 602 58 602 58 698 58 c 128,-1,5
 794 58 794 58 864 88 c 1,6,7
 990 144 990 144 1051.5 279.5 c 128,-1,8
 1113 415 1113 415 1113 579.5 c 128,-1,9
 1113 744 1113 744 1066 883 c 128,-1,10
 1019 1022 1019 1022 919 1109.5 c 128,-1,11
 819 1197 819 1197 681 1197 c 0,12,13
 435 1197 435 1197 334 974 c 0,14,15
 278 848 278 848 278 655 c 0,0,1
178.5 295 m 128,-1,17
 111 442 111 442 111 627 c 128,-1,18
 111 812 111 812 185.5 960 c 128,-1,19
 260 1108 260 1108 401.5 1191 c 128,-1,20
 543 1274 543 1274 730 1274 c 0,21,22
 859 1274 859 1274 964 1223 c 128,-1,23
 1069 1172 1069 1172 1137 1084 c 0,24,25
 1279 899 1279 899 1279 624 c 0,26,27
 1279 418 1279 418 1175 248 c 0,28,29
 1007 -27 1007 -27 640 -27 c 0,30,31
 499 -27 499 -27 372.5 60.5 c 128,-1,16
 246 148 246 148 178.5 295 c 128,-1,17
681 1402 m 1,32,-1
 809 1732 l 1,33,-1
 912 1693 l 1,34,-1
 730 1372 l 1,35,-1
 681 1402 l 1,32,-1
EndSplineSet
EndChar

StartChar: Ocircumflex
Encoding: 212 212 149
Width: 1331
Flags: W
LayerCount: 2
Fore
SplineSet
278 655 m 0,0,1
 278 551 278 551 305 440.5 c 128,-1,2
 332 330 332 330 383.5 244 c 128,-1,3
 435 158 435 158 518.5 108 c 128,-1,4
 602 58 602 58 698 58 c 128,-1,5
 794 58 794 58 864 88 c 1,6,7
 990 144 990 144 1051.5 279.5 c 128,-1,8
 1113 415 1113 415 1113 579.5 c 128,-1,9
 1113 744 1113 744 1066 883 c 128,-1,10
 1019 1022 1019 1022 919 1109.5 c 128,-1,11
 819 1197 819 1197 681 1197 c 0,12,13
 435 1197 435 1197 334 974 c 0,14,15
 278 848 278 848 278 655 c 0,0,1
178.5 295 m 128,-1,17
 111 442 111 442 111 627 c 128,-1,18
 111 812 111 812 185.5 960 c 128,-1,19
 260 1108 260 1108 401.5 1191 c 128,-1,20
 543 1274 543 1274 730 1274 c 0,21,22
 859 1274 859 1274 964 1223 c 128,-1,23
 1069 1172 1069 1172 1137 1084 c 0,24,25
 1279 899 1279 899 1279 624 c 0,26,27
 1279 418 1279 418 1175 248 c 0,28,29
 1007 -27 1007 -27 640 -27 c 0,30,31
 499 -27 499 -27 372.5 60.5 c 128,-1,16
 246 148 246 148 178.5 295 c 128,-1,17
529 1402 m 1,32,-1
 697 1582 l 1,33,-1
 752 1596 l 1,34,-1
 930 1410 l 1,35,-1
 890 1373 l 1,36,-1
 717 1495 l 1,37,-1
 708 1495 l 1,38,-1
 559 1372 l 1,39,-1
 529 1402 l 1,32,-1
EndSplineSet
EndChar

StartChar: Otilde
Encoding: 213 213 150
Width: 1331
Flags: W
LayerCount: 2
Fore
SplineSet
278 655 m 0,0,1
 278 551 278 551 305 440.5 c 128,-1,2
 332 330 332 330 383.5 244 c 128,-1,3
 435 158 435 158 518.5 108 c 128,-1,4
 602 58 602 58 698 58 c 128,-1,5
 794 58 794 58 864 88 c 1,6,7
 990 144 990 144 1051.5 279.5 c 128,-1,8
 1113 415 1113 415 1113 579.5 c 128,-1,9
 1113 744 1113 744 1066 883 c 128,-1,10
 1019 1022 1019 1022 919 1109.5 c 128,-1,11
 819 1197 819 1197 681 1197 c 0,12,13
 435 1197 435 1197 334 974 c 0,14,15
 278 848 278 848 278 655 c 0,0,1
178.5 295 m 128,-1,17
 111 442 111 442 111 627 c 128,-1,18
 111 812 111 812 185.5 960 c 128,-1,19
 260 1108 260 1108 401.5 1191 c 128,-1,20
 543 1274 543 1274 730 1274 c 0,21,22
 859 1274 859 1274 964 1223 c 128,-1,23
 1069 1172 1069 1172 1137 1084 c 0,24,25
 1279 899 1279 899 1279 624 c 0,26,27
 1279 418 1279 418 1175 248 c 0,28,29
 1007 -27 1007 -27 640 -27 c 0,30,31
 499 -27 499 -27 372.5 60.5 c 128,-1,16
 246 148 246 148 178.5 295 c 128,-1,17
496 1382 m 1,32,33
 515 1448 515 1448 537 1475 c 0,34,35
 585 1534 585 1534 643 1521 c 2,36,-1
 846 1479 l 1,37,38
 890 1467 890 1467 922 1533 c 1,39,-1
 964 1531 l 1,40,41
 934 1427 934 1427 868 1398 c 0,42,43
 840 1385 840 1385 809 1392 c 2,44,-1
 608 1434 l 1,45,46
 567 1444 567 1444 529 1372 c 1,47,-1
 496 1382 l 1,32,33
EndSplineSet
EndChar

StartChar: Odieresis
Encoding: 214 214 151
Width: 1331
Flags: W
LayerCount: 2
Fore
SplineSet
278 655 m 0,0,1
 278 551 278 551 305 440.5 c 128,-1,2
 332 330 332 330 383.5 244 c 128,-1,3
 435 158 435 158 518.5 108 c 128,-1,4
 602 58 602 58 698 58 c 128,-1,5
 794 58 794 58 864 88 c 1,6,7
 990 144 990 144 1051.5 279.5 c 128,-1,8
 1113 415 1113 415 1113 579.5 c 128,-1,9
 1113 744 1113 744 1066 883 c 128,-1,10
 1019 1022 1019 1022 919 1109.5 c 128,-1,11
 819 1197 819 1197 681 1197 c 0,12,13
 435 1197 435 1197 334 974 c 0,14,15
 278 848 278 848 278 655 c 0,0,1
178.5 295 m 128,-1,17
 111 442 111 442 111 627 c 128,-1,18
 111 812 111 812 185.5 960 c 128,-1,19
 260 1108 260 1108 401.5 1191 c 128,-1,20
 543 1274 543 1274 730 1274 c 0,21,22
 859 1274 859 1274 964 1223 c 128,-1,23
 1069 1172 1069 1172 1137 1084 c 0,24,25
 1279 899 1279 899 1279 624 c 0,26,27
 1279 418 1279 418 1175 248 c 0,28,29
 1007 -27 1007 -27 640 -27 c 0,30,31
 499 -27 499 -27 372.5 60.5 c 128,-1,16
 246 148 246 148 178.5 295 c 128,-1,17
811.5 1395.5 m 128,-1,33
 793 1418 793 1418 793 1454.5 c 128,-1,34
 793 1491 793 1491 812 1511.5 c 128,-1,35
 831 1532 831 1532 862.5 1532 c 128,-1,36
 894 1532 894 1532 914.5 1511.5 c 128,-1,37
 935 1491 935 1491 935 1454 c 128,-1,38
 935 1417 935 1417 915 1395 c 128,-1,39
 895 1373 895 1373 862.5 1373 c 128,-1,32
 830 1373 830 1373 811.5 1395.5 c 128,-1,33
544 1395.5 m 128,-1,41
 525 1418 525 1418 525 1454.5 c 128,-1,42
 525 1491 525 1491 544 1511.5 c 128,-1,43
 563 1532 563 1532 594.5 1532 c 128,-1,44
 626 1532 626 1532 646 1511.5 c 128,-1,45
 666 1491 666 1491 666 1454 c 128,-1,46
 666 1417 666 1417 646.5 1395 c 128,-1,47
 627 1373 627 1373 595 1373 c 128,-1,40
 563 1373 563 1373 544 1395.5 c 128,-1,41
EndSplineSet
EndChar

StartChar: multiply
Encoding: 215 215 152
Width: 779
Flags: W
LayerCount: 2
Fore
SplineSet
65 302 m 1,0,-1
 235 462 l 1,1,-1
 66 625 l 1,2,-1
 137 681 l 1,3,-1
 295 514 l 1,4,-1
 464 686 l 1,5,-1
 520 615 l 1,6,-1
 352 458 l 1,7,-1
 525 292 l 1,8,-1
 455 236 l 1,9,-1
 291 407 l 1,10,-1
 122 232 l 1,11,-1
 65 302 l 1,0,-1
EndSplineSet
EndChar

StartChar: Oslash
Encoding: 216 216 153
Width: 1336
Flags: W
LayerCount: 2
Fore
SplineSet
280 148 m 1,0,1
 118 333 118 333 118 620 c 0,2,3
 118 812 118 812 192.5 960 c 128,-1,4
 267 1108 267 1108 408 1191 c 128,-1,5
 549 1274 549 1274 736 1274 c 128,-1,6
 923 1274 923 1274 1057 1170 c 1,7,-1
 1105 1233 l 1,8,-1
 1226 1220 l 1,9,-1
 1128 1102 l 1,10,11
 1284 922 1284 922 1284 624 c 0,12,13
 1284 418 1284 418 1184 254 c 0,14,15
 1012 -27 1012 -27 666 -27 c 0,16,17
 487 -27 487 -27 352 80 c 1,18,-1
 292 -5 l 1,19,-1
 176 8 l 1,20,-1
 280 148 l 1,0,1
1022 991 m 1,21,-1
 422 199 l 1,22,23
 536 58 536 58 715 58 c 0,24,25
 957 58 957 58 1062 288 c 0,26,27
 1119 412 1119 412 1119 574 c 0,28,29
 1119 821 1119 821 1022 991 c 1,21,-1
984 1048 m 1,30,31
 869 1197 869 1197 687 1197 c 0,32,33
 443 1197 443 1197 340 974 c 0,34,35
 283 849 283 849 283 678 c 0,36,37
 283 424 283 424 384 255 c 1,38,-1
 984 1048 l 1,30,31
EndSplineSet
EndChar

StartChar: Ugrave
Encoding: 217 217 154
Width: 1371
Flags: W
LayerCount: 2
Fore
SplineSet
61 1187 m 1,0,-1
 70 1244 l 1,1,-1
 568 1244 l 1,2,-1
 561 1187 l 1,3,-1
 392 1156 l 1,4,-1
 392 503 l 2,5,6
 392 73 392 73 752 73 c 0,7,8
 916 73 916 73 1005.5 172 c 128,-1,9
 1095 271 1095 271 1095 466 c 2,10,-1
 1096 1154 l 1,11,-1
 912 1187 l 1,12,-1
 920 1244 l 1,13,-1
 1371 1244 l 1,14,-1
 1362 1187 l 1,15,-1
 1196 1156 l 1,16,-1
 1191 503 l 2,17,18
 1189 238 1189 238 1075 105.5 c 128,-1,19
 961 -27 961 -27 711 -27 c 0,20,21
 244 -27 244 -27 244 465 c 2,22,-1
 244 1154 l 1,23,-1
 61 1187 l 1,0,-1
535 1701 m 1,24,-1
 639 1738 l 1,25,-1
 772 1403 l 1,26,-1
 721 1372 l 1,27,-1
 535 1701 l 1,24,-1
EndSplineSet
EndChar

StartChar: Uacute
Encoding: 218 218 155
Width: 1371
Flags: W
LayerCount: 2
Fore
SplineSet
61 1187 m 1,0,-1
 70 1244 l 1,1,-1
 568 1244 l 1,2,-1
 561 1187 l 1,3,-1
 392 1156 l 1,4,-1
 392 503 l 2,5,6
 392 73 392 73 752 73 c 0,7,8
 916 73 916 73 1005.5 172 c 128,-1,9
 1095 271 1095 271 1095 466 c 2,10,-1
 1096 1154 l 1,11,-1
 912 1187 l 1,12,-1
 920 1244 l 1,13,-1
 1371 1244 l 1,14,-1
 1362 1187 l 1,15,-1
 1196 1156 l 1,16,-1
 1191 503 l 2,17,18
 1189 238 1189 238 1075 105.5 c 128,-1,19
 961 -27 961 -27 711 -27 c 0,20,21
 244 -27 244 -27 244 465 c 2,22,-1
 244 1154 l 1,23,-1
 61 1187 l 1,0,-1
672 1402 m 1,24,-1
 800 1732 l 1,25,-1
 903 1693 l 1,26,-1
 721 1372 l 1,27,-1
 672 1402 l 1,24,-1
EndSplineSet
EndChar

StartChar: Ucircumflex
Encoding: 219 219 156
Width: 1371
Flags: W
LayerCount: 2
Fore
SplineSet
61 1187 m 1,0,-1
 70 1244 l 1,1,-1
 568 1244 l 1,2,-1
 561 1187 l 1,3,-1
 392 1156 l 1,4,-1
 392 503 l 2,5,6
 392 73 392 73 752 73 c 0,7,8
 916 73 916 73 1005.5 172 c 128,-1,9
 1095 271 1095 271 1095 466 c 2,10,-1
 1096 1154 l 1,11,-1
 912 1187 l 1,12,-1
 920 1244 l 1,13,-1
 1371 1244 l 1,14,-1
 1362 1187 l 1,15,-1
 1196 1156 l 1,16,-1
 1191 503 l 2,17,18
 1189 238 1189 238 1075 105.5 c 128,-1,19
 961 -27 961 -27 711 -27 c 0,20,21
 244 -27 244 -27 244 465 c 2,22,-1
 244 1154 l 1,23,-1
 61 1187 l 1,0,-1
519 1402 m 1,24,-1
 687 1582 l 1,25,-1
 742 1596 l 1,26,-1
 920 1410 l 1,27,-1
 880 1373 l 1,28,-1
 707 1495 l 1,29,-1
 698 1495 l 1,30,-1
 549 1372 l 1,31,-1
 519 1402 l 1,24,-1
EndSplineSet
EndChar

StartChar: Udieresis
Encoding: 220 220 157
Width: 1371
Flags: W
LayerCount: 2
Fore
SplineSet
61 1187 m 1,0,-1
 70 1244 l 1,1,-1
 568 1244 l 1,2,-1
 561 1187 l 1,3,-1
 392 1156 l 1,4,-1
 392 503 l 2,5,6
 392 73 392 73 752 73 c 0,7,8
 916 73 916 73 1005.5 172 c 128,-1,9
 1095 271 1095 271 1095 466 c 2,10,-1
 1096 1154 l 1,11,-1
 912 1187 l 1,12,-1
 920 1244 l 1,13,-1
 1371 1244 l 1,14,-1
 1362 1187 l 1,15,-1
 1196 1156 l 1,16,-1
 1191 503 l 2,17,18
 1189 238 1189 238 1075 105.5 c 128,-1,19
 961 -27 961 -27 711 -27 c 0,20,21
 244 -27 244 -27 244 465 c 2,22,-1
 244 1154 l 1,23,-1
 61 1187 l 1,0,-1
801.5 1395.5 m 128,-1,25
 783 1418 783 1418 783 1454.5 c 128,-1,26
 783 1491 783 1491 802 1511.5 c 128,-1,27
 821 1532 821 1532 852.5 1532 c 128,-1,28
 884 1532 884 1532 904.5 1511.5 c 128,-1,29
 925 1491 925 1491 925 1454 c 128,-1,30
 925 1417 925 1417 905 1395 c 128,-1,31
 885 1373 885 1373 852.5 1373 c 128,-1,24
 820 1373 820 1373 801.5 1395.5 c 128,-1,25
534 1395.5 m 128,-1,33
 515 1418 515 1418 515 1454.5 c 128,-1,34
 515 1491 515 1491 534 1511.5 c 128,-1,35
 553 1532 553 1532 584.5 1532 c 128,-1,36
 616 1532 616 1532 636 1511.5 c 128,-1,37
 656 1491 656 1491 656 1454 c 128,-1,38
 656 1417 656 1417 636.5 1395 c 128,-1,39
 617 1373 617 1373 585 1373 c 128,-1,32
 553 1373 553 1373 534 1395.5 c 128,-1,33
EndSplineSet
EndChar

StartChar: Yacute
Encoding: 221 221 158
Width: 1113
Flags: W
LayerCount: 2
Fore
SplineSet
-9 1188 m 1,0,-1
 0 1244 l 1,1,-1
 463 1244 l 1,2,-1
 455 1188 l 1,3,-1
 292 1156 l 1,4,-1
 588 605 l 1,5,-1
 875 1152 l 1,6,-1
 691 1188 l 1,7,-1
 697 1244 l 1,8,-1
 1114 1244 l 1,9,-1
 1108 1188 l 1,10,-1
 981 1156 l 1,11,-1
 634 509 l 1,12,-1
 634 91 l 1,13,-1
 806 63 l 1,14,-1
 797 0 l 1,15,-1
 314 0 l 1,16,-1
 322 58 l 1,17,-1
 484 96 l 1,18,-1
 484 497 l 1,19,-1
 130 1152 l 1,20,-1
 -9 1188 l 1,0,-1
529 1402 m 1,21,-1
 657 1732 l 1,22,-1
 760 1693 l 1,23,-1
 578 1372 l 1,24,-1
 529 1402 l 1,21,-1
EndSplineSet
EndChar

StartChar: Thorn
Encoding: 222 222 159
Width: 889
Flags: W
LayerCount: 2
Fore
SplineSet
471 322 m 1,0,-1
 524 323 l 2,1,2
 698 327 698 327 783 409.5 c 128,-1,3
 868 492 868 492 868 630.5 c 128,-1,4
 868 769 868 769 777.5 861 c 128,-1,5
 687 953 687 953 516 953 c 1,6,-1
 409 946 l 1,7,-1
 409 94 l 1,8,-1
 644 64 l 1,9,-1
 633 0 l 1,10,-1
 87 0 l 1,11,-1
 94 57 l 1,12,-1
 259 96 l 1,13,-1
 259 1154 l 1,14,-1
 81 1187 l 1,15,-1
 89 1244 l 1,16,-1
 590 1244 l 1,17,-1
 582 1187 l 1,18,-1
 409 1156 l 1,19,-1
 409 1021 l 1,20,21
 471 1024 471 1024 558 1024 c 0,22,23
 750 1024 750 1024 891.5 941 c 128,-1,24
 1033 858 1033 858 1033 660 c 0,25,26
 1033 542 1033 542 968.5 448 c 128,-1,27
 904 354 904 354 798.5 304 c 128,-1,28
 693 254 693 254 569 254 c 0,29,30
 533 254 533 254 485 259 c 1,31,32
 471 301 471 301 471 322 c 1,0,-1
EndSplineSet
EndChar

StartChar: germandbls
Encoding: 223 223 160
Width: 1130
Flags: W
LayerCount: 2
Fore
SplineSet
70 0 m 1,0,-1
 82 52 l 1,1,-1
 233 88 l 1,2,-1
 233 804 l 1,3,-1
 86 804 l 1,4,-1
 97 853 l 1,5,-1
 235 877 l 1,6,7
 250 1129 250 1129 410 1244 c 0,8,9
 493 1304 493 1304 604.5 1304 c 128,-1,10
 716 1304 716 1304 793 1234.5 c 128,-1,11
 870 1165 870 1165 870 1063.5 c 128,-1,12
 870 962 870 962 794 877 c 0,13,14
 762 842 762 842 730 810 c 0,15,16
 653 733 653 733 653 682 c 0,17,18
 653 590 653 590 805 504 c 1,19,-1
 931 431 l 1,20,21
 994 393 994 393 1038.5 337.5 c 128,-1,22
 1083 282 1083 282 1083 214 c 0,23,24
 1083 106 1083 106 994.5 36.5 c 128,-1,25
 906 -33 906 -33 786 -33 c 128,-1,26
 666 -33 666 -33 586.5 21.5 c 128,-1,27
 507 76 507 76 507 158 c 0,28,29
 507 208 507 208 537.5 236 c 128,-1,30
 568 264 568 264 613 269 c 1,31,32
 654 41 654 41 817 41 c 0,33,34
 883 41 883 41 924.5 73.5 c 128,-1,35
 966 106 966 106 966 152 c 0,36,37
 966 230 966 230 858 292 c 1,38,-1
 758 353 l 2,39,40
 704 387 704 387 658 421.5 c 128,-1,41
 612 456 612 456 581 508 c 128,-1,42
 550 560 550 560 550 616 c 0,43,44
 550 714 550 714 618 796 c 1,45,-1
 676 862 l 1,46,47
 744 941 744 941 744 1020 c 128,-1,48
 744 1099 744 1099 684 1159 c 128,-1,49
 624 1219 624 1219 540.5 1219 c 128,-1,50
 457 1219 457 1219 412.5 1148.5 c 128,-1,51
 368 1078 368 1078 368 945 c 2,52,-1
 368 0 l 1,53,-1
 70 0 l 1,0,-1
EndSplineSet
EndChar

StartChar: agrave
Encoding: 224 224 161
Width: 847
Flags: W
LayerCount: 2
Fore
SplineSet
230 207 m 0,0,1
 230 154 230 154 264.5 112.5 c 128,-1,2
 299 71 299 71 356.5 71 c 128,-1,3
 414 71 414 71 467.5 104.5 c 128,-1,4
 521 138 521 138 554 186 c 1,5,-1
 554 430 l 1,6,7
 390 402 390 402 310 350.5 c 128,-1,8
 230 299 230 299 230 207 c 0,0,1
93 169 m 0,9,10
 93 293 93 293 206 376.5 c 128,-1,11
 319 460 319 460 554 481 c 1,12,-1
 554 529 l 2,13,14
 554 670 554 670 514 743 c 128,-1,15
 474 816 474 816 371 816 c 0,16,17
 315 816 315 816 294 795 c 128,-1,18
 273 774 273 774 262.5 738.5 c 128,-1,19
 252 703 252 703 237 601 c 1,20,21
 127 601 127 601 127 685 c 0,22,23
 127 736 127 736 177.5 784 c 128,-1,24
 228 832 228 832 301.5 860.5 c 128,-1,25
 375 889 375 889 443 889 c 0,26,27
 567 889 567 889 624 814.5 c 128,-1,28
 681 740 681 740 681 581 c 2,29,-1
 681 230 l 2,30,31
 681 153 681 153 699.5 118 c 128,-1,32
 718 83 718 83 781 73 c 1,33,-1
 839 62 l 1,34,-1
 830 2 l 1,35,36
 745 -18 745 -18 693.5 -18 c 128,-1,37
 642 -18 642 -18 606.5 21.5 c 128,-1,38
 571 61 571 61 571 116 c 2,39,-1
 571 131 l 1,40,-1
 563 131 l 1,41,42
 540 76 540 76 468.5 25.5 c 128,-1,43
 397 -25 397 -25 304 -25 c 128,-1,44
 211 -25 211 -25 152 27.5 c 128,-1,45
 93 80 93 80 93 169 c 0,9,10
258 1319 m 1,46,-1
 362 1356 l 1,47,-1
 495 1021 l 1,48,-1
 444 990 l 1,49,-1
 258 1319 l 1,46,-1
EndSplineSet
EndChar

StartChar: aacute
Encoding: 225 225 162
Width: 847
Flags: W
LayerCount: 2
Fore
SplineSet
230 207 m 0,0,1
 230 154 230 154 264.5 112.5 c 128,-1,2
 299 71 299 71 356.5 71 c 128,-1,3
 414 71 414 71 467.5 104.5 c 128,-1,4
 521 138 521 138 554 186 c 1,5,-1
 554 430 l 1,6,7
 390 402 390 402 310 350.5 c 128,-1,8
 230 299 230 299 230 207 c 0,0,1
93 169 m 0,9,10
 93 293 93 293 206 376.5 c 128,-1,11
 319 460 319 460 554 481 c 1,12,-1
 554 529 l 2,13,14
 554 670 554 670 514 743 c 128,-1,15
 474 816 474 816 371 816 c 0,16,17
 315 816 315 816 294 795 c 128,-1,18
 273 774 273 774 262.5 738.5 c 128,-1,19
 252 703 252 703 237 601 c 1,20,21
 127 601 127 601 127 685 c 0,22,23
 127 736 127 736 177.5 784 c 128,-1,24
 228 832 228 832 301.5 860.5 c 128,-1,25
 375 889 375 889 443 889 c 0,26,27
 567 889 567 889 624 814.5 c 128,-1,28
 681 740 681 740 681 581 c 2,29,-1
 681 230 l 2,30,31
 681 153 681 153 699.5 118 c 128,-1,32
 718 83 718 83 781 73 c 1,33,-1
 839 62 l 1,34,-1
 830 2 l 1,35,36
 745 -18 745 -18 693.5 -18 c 128,-1,37
 642 -18 642 -18 606.5 21.5 c 128,-1,38
 571 61 571 61 571 116 c 2,39,-1
 571 131 l 1,40,-1
 563 131 l 1,41,42
 540 76 540 76 468.5 25.5 c 128,-1,43
 397 -25 397 -25 304 -25 c 128,-1,44
 211 -25 211 -25 152 27.5 c 128,-1,45
 93 80 93 80 93 169 c 0,9,10
395 1020 m 1,46,-1
 523 1350 l 1,47,-1
 626 1311 l 1,48,-1
 444 990 l 1,49,-1
 395 1020 l 1,46,-1
EndSplineSet
EndChar

StartChar: acircumflex
Encoding: 226 226 163
Width: 847
Flags: W
LayerCount: 2
Fore
SplineSet
230 207 m 0,0,1
 230 154 230 154 264.5 112.5 c 128,-1,2
 299 71 299 71 356.5 71 c 128,-1,3
 414 71 414 71 467.5 104.5 c 128,-1,4
 521 138 521 138 554 186 c 1,5,-1
 554 430 l 1,6,7
 390 402 390 402 310 350.5 c 128,-1,8
 230 299 230 299 230 207 c 0,0,1
93 169 m 0,9,10
 93 293 93 293 206 376.5 c 128,-1,11
 319 460 319 460 554 481 c 1,12,-1
 554 529 l 2,13,14
 554 670 554 670 514 743 c 128,-1,15
 474 816 474 816 371 816 c 0,16,17
 315 816 315 816 294 795 c 128,-1,18
 273 774 273 774 262.5 738.5 c 128,-1,19
 252 703 252 703 237 601 c 1,20,21
 127 601 127 601 127 685 c 0,22,23
 127 736 127 736 177.5 784 c 128,-1,24
 228 832 228 832 301.5 860.5 c 128,-1,25
 375 889 375 889 443 889 c 0,26,27
 567 889 567 889 624 814.5 c 128,-1,28
 681 740 681 740 681 581 c 2,29,-1
 681 230 l 2,30,31
 681 153 681 153 699.5 118 c 128,-1,32
 718 83 718 83 781 73 c 1,33,-1
 839 62 l 1,34,-1
 830 2 l 1,35,36
 745 -18 745 -18 693.5 -18 c 128,-1,37
 642 -18 642 -18 606.5 21.5 c 128,-1,38
 571 61 571 61 571 116 c 2,39,-1
 571 131 l 1,40,-1
 563 131 l 1,41,42
 540 76 540 76 468.5 25.5 c 128,-1,43
 397 -25 397 -25 304 -25 c 128,-1,44
 211 -25 211 -25 152 27.5 c 128,-1,45
 93 80 93 80 93 169 c 0,9,10
243 1020 m 1,46,-1
 411 1200 l 1,47,-1
 466 1214 l 1,48,-1
 644 1028 l 1,49,-1
 604 991 l 1,50,-1
 431 1113 l 1,51,-1
 422 1113 l 1,52,-1
 273 990 l 1,53,-1
 243 1020 l 1,46,-1
EndSplineSet
EndChar

StartChar: atilde
Encoding: 227 227 164
Width: 847
Flags: W
LayerCount: 2
Fore
SplineSet
230 207 m 0,0,1
 230 154 230 154 264.5 112.5 c 128,-1,2
 299 71 299 71 356.5 71 c 128,-1,3
 414 71 414 71 467.5 104.5 c 128,-1,4
 521 138 521 138 554 186 c 1,5,-1
 554 430 l 1,6,7
 390 402 390 402 310 350.5 c 128,-1,8
 230 299 230 299 230 207 c 0,0,1
93 169 m 0,9,10
 93 293 93 293 206 376.5 c 128,-1,11
 319 460 319 460 554 481 c 1,12,-1
 554 529 l 2,13,14
 554 670 554 670 514 743 c 128,-1,15
 474 816 474 816 371 816 c 0,16,17
 315 816 315 816 294 795 c 128,-1,18
 273 774 273 774 262.5 738.5 c 128,-1,19
 252 703 252 703 237 601 c 1,20,21
 127 601 127 601 127 685 c 0,22,23
 127 736 127 736 177.5 784 c 128,-1,24
 228 832 228 832 301.5 860.5 c 128,-1,25
 375 889 375 889 443 889 c 0,26,27
 567 889 567 889 624 814.5 c 128,-1,28
 681 740 681 740 681 581 c 2,29,-1
 681 230 l 2,30,31
 681 153 681 153 699.5 118 c 128,-1,32
 718 83 718 83 781 73 c 1,33,-1
 839 62 l 1,34,-1
 830 2 l 1,35,36
 745 -18 745 -18 693.5 -18 c 128,-1,37
 642 -18 642 -18 606.5 21.5 c 128,-1,38
 571 61 571 61 571 116 c 2,39,-1
 571 131 l 1,40,-1
 563 131 l 1,41,42
 540 76 540 76 468.5 25.5 c 128,-1,43
 397 -25 397 -25 304 -25 c 128,-1,44
 211 -25 211 -25 152 27.5 c 128,-1,45
 93 80 93 80 93 169 c 0,9,10
210 1000 m 1,46,47
 229 1066 229 1066 251 1093 c 0,48,49
 299 1152 299 1152 357 1139 c 2,50,-1
 560 1097 l 1,51,52
 604 1085 604 1085 636 1151 c 1,53,-1
 678 1149 l 1,54,55
 648 1045 648 1045 582 1016 c 0,56,57
 554 1003 554 1003 523 1010 c 2,58,-1
 322 1052 l 1,59,60
 281 1062 281 1062 243 990 c 1,61,-1
 210 1000 l 1,46,47
EndSplineSet
EndChar

StartChar: adieresis
Encoding: 228 228 165
Width: 847
Flags: W
LayerCount: 2
Fore
SplineSet
230 207 m 0,0,1
 230 154 230 154 264.5 112.5 c 128,-1,2
 299 71 299 71 356.5 71 c 128,-1,3
 414 71 414 71 467.5 104.5 c 128,-1,4
 521 138 521 138 554 186 c 1,5,-1
 554 430 l 1,6,7
 390 402 390 402 310 350.5 c 128,-1,8
 230 299 230 299 230 207 c 0,0,1
93 169 m 0,9,10
 93 293 93 293 206 376.5 c 128,-1,11
 319 460 319 460 554 481 c 1,12,-1
 554 529 l 2,13,14
 554 670 554 670 514 743 c 128,-1,15
 474 816 474 816 371 816 c 0,16,17
 315 816 315 816 294 795 c 128,-1,18
 273 774 273 774 262.5 738.5 c 128,-1,19
 252 703 252 703 237 601 c 1,20,21
 127 601 127 601 127 685 c 0,22,23
 127 736 127 736 177.5 784 c 128,-1,24
 228 832 228 832 301.5 860.5 c 128,-1,25
 375 889 375 889 443 889 c 0,26,27
 567 889 567 889 624 814.5 c 128,-1,28
 681 740 681 740 681 581 c 2,29,-1
 681 230 l 2,30,31
 681 153 681 153 699.5 118 c 128,-1,32
 718 83 718 83 781 73 c 1,33,-1
 839 62 l 1,34,-1
 830 2 l 1,35,36
 745 -18 745 -18 693.5 -18 c 128,-1,37
 642 -18 642 -18 606.5 21.5 c 128,-1,38
 571 61 571 61 571 116 c 2,39,-1
 571 131 l 1,40,-1
 563 131 l 1,41,42
 540 76 540 76 468.5 25.5 c 128,-1,43
 397 -25 397 -25 304 -25 c 128,-1,44
 211 -25 211 -25 152 27.5 c 128,-1,45
 93 80 93 80 93 169 c 0,9,10
524.5 1012.5 m 128,-1,47
 506 1035 506 1035 506 1071.5 c 128,-1,48
 506 1108 506 1108 525 1128.5 c 128,-1,49
 544 1149 544 1149 575.5 1149 c 128,-1,50
 607 1149 607 1149 627.5 1128.5 c 128,-1,51
 648 1108 648 1108 648 1071 c 128,-1,52
 648 1034 648 1034 628 1012 c 128,-1,53
 608 990 608 990 575.5 990 c 128,-1,46
 543 990 543 990 524.5 1012.5 c 128,-1,47
257 1012.5 m 128,-1,55
 238 1035 238 1035 238 1071.5 c 128,-1,56
 238 1108 238 1108 257 1128.5 c 128,-1,57
 276 1149 276 1149 307.5 1149 c 128,-1,58
 339 1149 339 1149 359 1128.5 c 128,-1,59
 379 1108 379 1108 379 1071 c 128,-1,60
 379 1034 379 1034 359.5 1012 c 128,-1,61
 340 990 340 990 308 990 c 128,-1,54
 276 990 276 990 257 1012.5 c 128,-1,55
EndSplineSet
EndChar

StartChar: aring
Encoding: 229 229 166
Width: 847
Flags: W
LayerCount: 2
Fore
SplineSet
230 207 m 0,0,1
 230 154 230 154 264.5 112.5 c 128,-1,2
 299 71 299 71 356.5 71 c 128,-1,3
 414 71 414 71 467.5 104.5 c 128,-1,4
 521 138 521 138 554 186 c 1,5,-1
 554 430 l 1,6,7
 390 402 390 402 310 350.5 c 128,-1,8
 230 299 230 299 230 207 c 0,0,1
93 169 m 0,9,10
 93 293 93 293 206 376.5 c 128,-1,11
 319 460 319 460 554 481 c 1,12,-1
 554 529 l 2,13,14
 554 670 554 670 514 743 c 128,-1,15
 474 816 474 816 371 816 c 0,16,17
 315 816 315 816 294 795 c 128,-1,18
 273 774 273 774 262.5 738.5 c 128,-1,19
 252 703 252 703 237 601 c 1,20,21
 127 601 127 601 127 685 c 0,22,23
 127 736 127 736 177.5 784 c 128,-1,24
 228 832 228 832 301.5 860.5 c 128,-1,25
 375 889 375 889 443 889 c 0,26,27
 567 889 567 889 624 814.5 c 128,-1,28
 681 740 681 740 681 581 c 2,29,-1
 681 230 l 2,30,31
 681 153 681 153 699.5 118 c 128,-1,32
 718 83 718 83 781 73 c 1,33,-1
 839 62 l 1,34,-1
 830 2 l 1,35,36
 745 -18 745 -18 693.5 -18 c 128,-1,37
 642 -18 642 -18 606.5 21.5 c 128,-1,38
 571 61 571 61 571 116 c 2,39,-1
 571 131 l 1,40,-1
 563 131 l 1,41,42
 540 76 540 76 468.5 25.5 c 128,-1,43
 397 -25 397 -25 304 -25 c 128,-1,44
 211 -25 211 -25 152 27.5 c 128,-1,45
 93 80 93 80 93 169 c 0,9,10
319.5 1250 m 128,-1,47
 297 1216 297 1216 297 1166 c 128,-1,48
 297 1116 297 1116 323.5 1075.5 c 128,-1,49
 350 1035 350 1035 394 1035 c 128,-1,50
 438 1035 438 1035 462 1065.5 c 128,-1,51
 486 1096 486 1096 486 1150 c 128,-1,52
 486 1204 486 1204 458.5 1244 c 128,-1,53
 431 1284 431 1284 386.5 1284 c 128,-1,46
 342 1284 342 1284 319.5 1250 c 128,-1,47
272.5 1035 m 128,-1,55
 230 1080 230 1080 230 1153 c 128,-1,56
 230 1226 230 1226 278.5 1277 c 128,-1,57
 327 1328 327 1328 397.5 1328 c 128,-1,58
 468 1328 468 1328 511 1282.5 c 128,-1,59
 554 1237 554 1237 554 1166 c 128,-1,60
 554 1095 554 1095 506.5 1042.5 c 128,-1,61
 459 990 459 990 387 990 c 128,-1,54
 315 990 315 990 272.5 1035 c 128,-1,55
EndSplineSet
EndChar

StartChar: ae
Encoding: 230 230 167
Width: 1248
Flags: W
LayerCount: 2
Fore
SplineSet
678 492 m 1,0,-1
 1028 529 l 1,1,2
 1038 561 1038 561 1038 630.5 c 128,-1,3
 1038 700 1038 700 994 754.5 c 128,-1,4
 950 809 950 809 873 809 c 128,-1,5
 796 809 796 809 739 723.5 c 128,-1,6
 682 638 682 638 678 492 c 1,0,-1
228 200 m 0,7,8
 228 138 228 138 261.5 100 c 128,-1,9
 295 62 295 62 361 62 c 128,-1,10
 427 62 427 62 490.5 118.5 c 128,-1,11
 554 175 554 175 554 255 c 2,12,-1
 554 416 l 1,13,14
 381 390 381 390 304.5 341.5 c 128,-1,15
 228 293 228 293 228 200 c 0,7,8
1204 104 m 1,16,17
 1089 -30 1089 -30 895 -30 c 0,18,19
 809 -30 809 -30 714 26.5 c 128,-1,20
 619 83 619 83 592 172 c 1,21,22
 568 94 568 94 484 34 c 128,-1,23
 400 -26 400 -26 304.5 -26 c 128,-1,24
 209 -26 209 -26 150.5 24.5 c 128,-1,25
 92 75 92 75 92 163 c 0,26,27
 92 285 92 285 198 362 c 128,-1,28
 304 439 304 439 554 476 c 1,29,-1
 554 539 l 2,30,31
 554 678 554 678 515.5 745.5 c 128,-1,32
 477 813 477 813 389 813 c 128,-1,33
 301 813 301 813 275 758 c 128,-1,34
 249 703 249 703 238 609 c 1,35,36
 130 609 130 609 130 693 c 0,37,38
 130 769 130 769 231.5 828.5 c 128,-1,39
 333 888 333 888 443 888 c 0,40,41
 610 888 610 888 651 748 c 1,42,43
 757 886 757 886 928 886 c 0,44,45
 1042 886 1042 886 1110.5 808.5 c 128,-1,46
 1179 731 1179 731 1179 578 c 0,47,48
 1179 518 1179 518 1161 448 c 1,49,-1
 678 428 l 1,50,51
 682 217 682 217 804 122 c 1,52,53
 869 70 869 70 971 70 c 128,-1,54
 1073 70 1073 70 1185 146 c 1,55,-1
 1204 104 l 1,16,17
EndSplineSet
EndChar

StartChar: ccedilla
Encoding: 231 231 168
Width: 779
Flags: W
LayerCount: 2
Fore
SplineSet
346 -359 m 1,0,1
 389 -344 389 -344 419 -317.5 c 128,-1,2
 449 -291 449 -291 449 -273.5 c 128,-1,3
 449 -256 449 -256 445 -244 c 0,4,5
 438 -220 438 -220 422 -202 c 2,6,7
 422 -202 422 -202 406 -184 c 0,8,9
 403 -180 403 -180 387 -165 c 128,-1,10
 371 -150 371 -150 369 -148 c 1,11,-1
 451 -30 l 1,12,13
 286 -28 286 -28 188.5 96 c 128,-1,14
 91 220 91 220 91 421 c 128,-1,15
 91 622 91 622 207 755 c 128,-1,16
 323 888 323 888 491 888 c 0,17,18
 608 888 608 888 665 840.5 c 128,-1,19
 722 793 722 793 722 726 c 0,20,21
 722 643 722 643 627 627 c 1,22,23
 596 714 596 714 553 762 c 128,-1,24
 510 810 510 810 443 810 c 0,25,26
 351 810 351 810 291 722 c 128,-1,27
 231 634 231 634 231 467.5 c 128,-1,28
 231 301 231 301 309.5 185 c 128,-1,29
 388 69 388 69 516.5 69 c 128,-1,30
 645 69 645 69 742 148 c 1,31,-1
 763 102 l 1,32,33
 731 58 731 58 665 22.5 c 128,-1,34
 599 -13 599 -13 522 -25 c 1,35,-1
 473 -96 l 1,36,37
 562 -175 562 -175 562 -247 c 0,38,39
 562 -350 562 -350 362 -410 c 1,40,-1
 346 -359 l 1,0,1
EndSplineSet
EndChar

StartChar: egrave
Encoding: 232 232 169
Width: 812
Flags: W
LayerCount: 2
Fore
SplineSet
237 507 m 1,0,-1
 588 530 l 1,1,2
 595 550 595 550 595 625.5 c 128,-1,3
 595 701 595 701 552.5 755 c 128,-1,4
 510 809 510 809 432 809 c 128,-1,5
 354 809 354 809 297.5 730.5 c 128,-1,6
 241 652 241 652 237 507 c 1,0,-1
762 104 m 1,7,8
 647 -30 647 -30 453 -30 c 0,9,10
 306 -30 306 -30 200 84.5 c 128,-1,11
 94 199 94 199 94 420 c 0,12,13
 94 528 94 528 128 618.5 c 128,-1,14
 162 709 162 709 218 766 c 0,15,16
 336 886 336 886 486 886 c 0,17,18
 601 886 601 886 668.5 810 c 128,-1,19
 736 734 736 734 736 582 c 0,20,21
 736 517 736 517 719 451 c 1,22,-1
 235 445 l 1,23,24
 239 296 239 296 308.5 187 c 128,-1,25
 378 78 378 78 509 78 c 128,-1,26
 640 78 640 78 743 148 c 1,27,-1
 762 104 l 1,7,8
284 1319 m 1,28,-1
 388 1356 l 1,29,-1
 521 1021 l 1,30,-1
 470 990 l 1,31,-1
 284 1319 l 1,28,-1
EndSplineSet
EndChar

StartChar: eacute
Encoding: 233 233 170
Width: 812
Flags: W
LayerCount: 2
Fore
SplineSet
237 507 m 1,0,-1
 588 530 l 1,1,2
 595 550 595 550 595 625.5 c 128,-1,3
 595 701 595 701 552.5 755 c 128,-1,4
 510 809 510 809 432 809 c 128,-1,5
 354 809 354 809 297.5 730.5 c 128,-1,6
 241 652 241 652 237 507 c 1,0,-1
762 104 m 1,7,8
 647 -30 647 -30 453 -30 c 0,9,10
 306 -30 306 -30 200 84.5 c 128,-1,11
 94 199 94 199 94 420 c 0,12,13
 94 528 94 528 128 618.5 c 128,-1,14
 162 709 162 709 218 766 c 0,15,16
 336 886 336 886 486 886 c 0,17,18
 601 886 601 886 668.5 810 c 128,-1,19
 736 734 736 734 736 582 c 0,20,21
 736 517 736 517 719 451 c 1,22,-1
 235 445 l 1,23,24
 239 296 239 296 308.5 187 c 128,-1,25
 378 78 378 78 509 78 c 128,-1,26
 640 78 640 78 743 148 c 1,27,-1
 762 104 l 1,7,8
421 1020 m 1,28,-1
 549 1350 l 1,29,-1
 652 1311 l 1,30,-1
 470 990 l 1,31,-1
 421 1020 l 1,28,-1
EndSplineSet
EndChar

StartChar: ecircumflex
Encoding: 234 234 171
Width: 812
Flags: W
LayerCount: 2
Fore
SplineSet
237 507 m 1,0,-1
 588 530 l 1,1,2
 595 550 595 550 595 625.5 c 128,-1,3
 595 701 595 701 552.5 755 c 128,-1,4
 510 809 510 809 432 809 c 128,-1,5
 354 809 354 809 297.5 730.5 c 128,-1,6
 241 652 241 652 237 507 c 1,0,-1
762 104 m 1,7,8
 647 -30 647 -30 453 -30 c 0,9,10
 306 -30 306 -30 200 84.5 c 128,-1,11
 94 199 94 199 94 420 c 0,12,13
 94 528 94 528 128 618.5 c 128,-1,14
 162 709 162 709 218 766 c 0,15,16
 336 886 336 886 486 886 c 0,17,18
 601 886 601 886 668.5 810 c 128,-1,19
 736 734 736 734 736 582 c 0,20,21
 736 517 736 517 719 451 c 1,22,-1
 235 445 l 1,23,24
 239 296 239 296 308.5 187 c 128,-1,25
 378 78 378 78 509 78 c 128,-1,26
 640 78 640 78 743 148 c 1,27,-1
 762 104 l 1,7,8
285 1020 m 1,28,-1
 453 1200 l 1,29,-1
 508 1214 l 1,30,-1
 686 1028 l 1,31,-1
 646 991 l 1,32,-1
 473 1113 l 1,33,-1
 464 1113 l 1,34,-1
 315 990 l 1,35,-1
 285 1020 l 1,28,-1
EndSplineSet
EndChar

StartChar: edieresis
Encoding: 235 235 172
Width: 812
Flags: W
LayerCount: 2
Fore
SplineSet
237 507 m 1,0,-1
 588 530 l 1,1,2
 595 550 595 550 595 625.5 c 128,-1,3
 595 701 595 701 552.5 755 c 128,-1,4
 510 809 510 809 432 809 c 128,-1,5
 354 809 354 809 297.5 730.5 c 128,-1,6
 241 652 241 652 237 507 c 1,0,-1
762 104 m 1,7,8
 647 -30 647 -30 453 -30 c 0,9,10
 306 -30 306 -30 200 84.5 c 128,-1,11
 94 199 94 199 94 420 c 0,12,13
 94 528 94 528 128 618.5 c 128,-1,14
 162 709 162 709 218 766 c 0,15,16
 336 886 336 886 486 886 c 0,17,18
 601 886 601 886 668.5 810 c 128,-1,19
 736 734 736 734 736 582 c 0,20,21
 736 517 736 517 719 451 c 1,22,-1
 235 445 l 1,23,24
 239 296 239 296 308.5 187 c 128,-1,25
 378 78 378 78 509 78 c 128,-1,26
 640 78 640 78 743 148 c 1,27,-1
 762 104 l 1,7,8
567.5 1012.5 m 128,-1,29
 549 1035 549 1035 549 1071.5 c 128,-1,30
 549 1108 549 1108 568 1128.5 c 128,-1,31
 587 1149 587 1149 618.5 1149 c 128,-1,32
 650 1149 650 1149 670.5 1128.5 c 128,-1,33
 691 1108 691 1108 691 1071 c 128,-1,34
 691 1034 691 1034 671 1012 c 128,-1,35
 651 990 651 990 618.5 990 c 128,-1,28
 586 990 586 990 567.5 1012.5 c 128,-1,29
300 1012.5 m 128,-1,37
 281 1035 281 1035 281 1071.5 c 128,-1,38
 281 1108 281 1108 300 1128.5 c 128,-1,39
 319 1149 319 1149 350.5 1149 c 128,-1,40
 382 1149 382 1149 402 1128.5 c 128,-1,41
 422 1108 422 1108 422 1071 c 128,-1,42
 422 1034 422 1034 402.5 1012 c 128,-1,43
 383 990 383 990 351 990 c 128,-1,36
 319 990 319 990 300 1012.5 c 128,-1,37
EndSplineSet
EndChar

StartChar: igrave
Encoding: 236 236 173
Width: 555
Flags: W
LayerCount: 2
Fore
SplineSet
80 0 m 1,0,-1
 92 55 l 1,1,-1
 243 87 l 1,2,-1
 243 772 l 1,3,-1
 91 814 l 1,4,-1
 99 865 l 1,5,-1
 358 887 l 1,6,-1
 374 871 l 1,7,-1
 374 87 l 1,8,-1
 534 57 l 1,9,-1
 523 0 l 1,10,-1
 80 0 l 1,0,-1
122 1319 m 1,11,-1
 226 1356 l 1,12,-1
 359 1021 l 1,13,-1
 308 990 l 1,14,-1
 122 1319 l 1,11,-1
EndSplineSet
EndChar

StartChar: iacute
Encoding: 237 237 174
Width: 555
Flags: W
LayerCount: 2
Fore
SplineSet
80 0 m 1,0,-1
 92 55 l 1,1,-1
 243 87 l 1,2,-1
 243 772 l 1,3,-1
 91 814 l 1,4,-1
 99 865 l 1,5,-1
 358 887 l 1,6,-1
 374 871 l 1,7,-1
 374 87 l 1,8,-1
 534 57 l 1,9,-1
 523 0 l 1,10,-1
 80 0 l 1,0,-1
259 1020 m 1,11,-1
 387 1350 l 1,12,-1
 490 1311 l 1,13,-1
 308 990 l 1,14,-1
 259 1020 l 1,11,-1
EndSplineSet
EndChar

StartChar: icircumflex
Encoding: 238 238 175
Width: 555
Flags: W
LayerCount: 2
Fore
SplineSet
80 0 m 1,0,-1
 92 55 l 1,1,-1
 243 87 l 1,2,-1
 243 772 l 1,3,-1
 91 814 l 1,4,-1
 99 865 l 1,5,-1
 358 887 l 1,6,-1
 374 871 l 1,7,-1
 374 87 l 1,8,-1
 534 57 l 1,9,-1
 523 0 l 1,10,-1
 80 0 l 1,0,-1
107 1020 m 1,11,-1
 275 1200 l 1,12,-1
 330 1214 l 1,13,-1
 508 1028 l 1,14,-1
 468 991 l 1,15,-1
 295 1113 l 1,16,-1
 286 1113 l 1,17,-1
 137 990 l 1,18,-1
 107 1020 l 1,11,-1
EndSplineSet
EndChar

StartChar: idieresis
Encoding: 239 239 176
Width: 555
Flags: W
LayerCount: 2
Fore
SplineSet
80 0 m 1,0,-1
 92 55 l 1,1,-1
 243 87 l 1,2,-1
 243 772 l 1,3,-1
 91 814 l 1,4,-1
 99 865 l 1,5,-1
 358 887 l 1,6,-1
 374 871 l 1,7,-1
 374 87 l 1,8,-1
 534 57 l 1,9,-1
 523 0 l 1,10,-1
 80 0 l 1,0,-1
389.5 1012.5 m 128,-1,12
 371 1035 371 1035 371 1071.5 c 128,-1,13
 371 1108 371 1108 390 1128.5 c 128,-1,14
 409 1149 409 1149 440.5 1149 c 128,-1,15
 472 1149 472 1149 492.5 1128.5 c 128,-1,16
 513 1108 513 1108 513 1071 c 128,-1,17
 513 1034 513 1034 493 1012 c 128,-1,18
 473 990 473 990 440.5 990 c 128,-1,11
 408 990 408 990 389.5 1012.5 c 128,-1,12
122 1012.5 m 128,-1,20
 103 1035 103 1035 103 1071.5 c 128,-1,21
 103 1108 103 1108 122 1128.5 c 128,-1,22
 141 1149 141 1149 172.5 1149 c 128,-1,23
 204 1149 204 1149 224 1128.5 c 128,-1,24
 244 1108 244 1108 244 1071 c 128,-1,25
 244 1034 244 1034 224.5 1012 c 128,-1,26
 205 990 205 990 173 990 c 128,-1,19
 141 990 141 990 122 1012.5 c 128,-1,20
EndSplineSet
EndChar

StartChar: eth
Encoding: 240 240 177
Width: 931
Flags: W
LayerCount: 2
Fore
SplineSet
320 168.5 m 128,-1,1
 393 50 393 50 506 50 c 0,2,3
 581 50 581 50 630 100 c 0,4,5
 721 193 721 193 721 407 c 128,-1,6
 721 621 721 621 639 747 c 128,-1,7
 557 873 557 873 456 875 c 1,8,-1
 451 875 l 1,9,10
 380 874 380 874 332 821 c 0,11,12
 246 724 246 724 246.5 505.5 c 128,-1,0
 247 287 247 287 320 168.5 c 128,-1,1
107 451 m 0,13,14
 107 672 107 672 208 810.5 c 128,-1,15
 309 949 309 949 469 949 c 0,16,17
 530 949 530 949 587.5 912.5 c 128,-1,18
 645 876 645 876 667 820 c 1,19,-1
 674 821 l 1,20,21
 643 936 643 936 541 1086 c 1,22,-1
 309 1040 l 1,23,-1
 320 1103 l 1,24,-1
 507 1141 l 1,25,26
 438 1233 438 1233 361 1303 c 1,27,-1
 453 1303 l 1,28,29
 530 1255 530 1255 611 1164 c 1,30,-1
 767 1197 l 1,31,-1
 758 1133 l 1,32,-1
 655 1112 l 1,33,34
 858 843 858 843 858 465 c 0,35,36
 858 239 858 239 753 106 c 128,-1,37
 648 -27 648 -27 483 -27 c 0,38,39
 266 -27 266 -27 165 178 c 0,40,41
 107 296 107 296 107 451 c 0,13,14
EndSplineSet
EndChar

StartChar: ntilde
Encoding: 241 241 178
Width: 1071
Flags: W
LayerCount: 2
Fore
SplineSet
79 0 m 1,0,-1
 87 52 l 1,1,-1
 240 86 l 1,2,-1
 240 755 l 1,3,-1
 85 794 l 1,4,-1
 92 846 l 1,5,-1
 357 876 l 1,6,-1
 369 862 l 1,7,-1
 359 730 l 1,8,-1
 367 730 l 1,9,10
 417 792 417 792 502 841 c 128,-1,11
 587 890 587 890 686 890 c 128,-1,12
 785 890 785 890 847 817 c 128,-1,13
 909 744 909 744 909 600 c 2,14,-1
 909 86 l 1,15,-1
 1050 58 l 1,16,-1
 1043 0 l 1,17,-1
 630 0 l 1,18,-1
 638 52 l 1,19,-1
 778 86 l 1,20,-1
 778 568 l 2,21,22
 778 676 778 676 730.5 728.5 c 128,-1,23
 683 781 683 781 610.5 781 c 128,-1,24
 538 781 538 781 484 755.5 c 128,-1,25
 430 730 430 730 370 670 c 1,26,-1
 370 86 l 1,27,-1
 516 58 l 1,28,-1
 506 0 l 1,29,-1
 79 0 l 1,0,-1
331 1000 m 1,30,31
 350 1066 350 1066 372 1093 c 0,32,33
 420 1152 420 1152 478 1139 c 2,34,-1
 681 1097 l 1,35,36
 725 1085 725 1085 757 1151 c 1,37,-1
 799 1149 l 1,38,39
 769 1045 769 1045 703 1016 c 0,40,41
 675 1003 675 1003 644 1010 c 2,42,-1
 443 1052 l 1,43,44
 402 1062 402 1062 364 990 c 1,45,-1
 331 1000 l 1,30,31
EndSplineSet
EndChar

StartChar: ograve
Encoding: 242 242 179
Width: 944
Flags: W
LayerCount: 2
Fore
SplineSet
297.5 713.5 m 128,-1,1
 235 621 235 621 235 495 c 128,-1,2
 235 369 235 369 266 273.5 c 128,-1,3
 297 178 297 178 363.5 116 c 128,-1,4
 430 54 430 54 527.5 54 c 128,-1,5
 625 54 625 54 686 148.5 c 128,-1,6
 747 243 747 243 747 392 c 128,-1,7
 747 541 747 541 678 668 c 0,8,9
 645 730 645 730 590.5 768 c 128,-1,10
 536 806 536 806 469 806 c 0,11,0
 360 806 360 806 297.5 713.5 c 128,-1,1
201.5 94 m 128,-1,13
 94 215 94 215 94 422.5 c 128,-1,14
 94 630 94 630 215.5 760.5 c 128,-1,15
 337 891 337 891 512 891 c 0,16,17
 625 891 625 891 711.5 831 c 128,-1,18
 798 771 798 771 843 669 c 128,-1,19
 888 567 888 567 888 439 c 0,20,21
 888 234 888 234 771.5 103.5 c 128,-1,22
 655 -27 655 -27 482 -27 c 128,-1,12
 309 -27 309 -27 201.5 94 c 128,-1,13
327 1319 m 1,23,-1
 431 1356 l 1,24,-1
 564 1021 l 1,25,-1
 513 990 l 1,26,-1
 327 1319 l 1,23,-1
EndSplineSet
EndChar

StartChar: oacute
Encoding: 243 243 180
Width: 944
Flags: W
LayerCount: 2
Fore
SplineSet
297.5 713.5 m 128,-1,1
 235 621 235 621 235 495 c 128,-1,2
 235 369 235 369 266 273.5 c 128,-1,3
 297 178 297 178 363.5 116 c 128,-1,4
 430 54 430 54 527.5 54 c 128,-1,5
 625 54 625 54 686 148.5 c 128,-1,6
 747 243 747 243 747 392 c 128,-1,7
 747 541 747 541 678 668 c 0,8,9
 645 730 645 730 590.5 768 c 128,-1,10
 536 806 536 806 469 806 c 0,11,0
 360 806 360 806 297.5 713.5 c 128,-1,1
201.5 94 m 128,-1,13
 94 215 94 215 94 422.5 c 128,-1,14
 94 630 94 630 215.5 760.5 c 128,-1,15
 337 891 337 891 512 891 c 0,16,17
 625 891 625 891 711.5 831 c 128,-1,18
 798 771 798 771 843 669 c 128,-1,19
 888 567 888 567 888 439 c 0,20,21
 888 234 888 234 771.5 103.5 c 128,-1,22
 655 -27 655 -27 482 -27 c 128,-1,12
 309 -27 309 -27 201.5 94 c 128,-1,13
464 1020 m 1,23,-1
 592 1350 l 1,24,-1
 695 1311 l 1,25,-1
 513 990 l 1,26,-1
 464 1020 l 1,23,-1
EndSplineSet
EndChar

StartChar: ocircumflex
Encoding: 244 244 181
Width: 944
Flags: W
LayerCount: 2
Fore
SplineSet
297.5 713.5 m 128,-1,1
 235 621 235 621 235 495 c 128,-1,2
 235 369 235 369 266 273.5 c 128,-1,3
 297 178 297 178 363.5 116 c 128,-1,4
 430 54 430 54 527.5 54 c 128,-1,5
 625 54 625 54 686 148.5 c 128,-1,6
 747 243 747 243 747 392 c 128,-1,7
 747 541 747 541 678 668 c 0,8,9
 645 730 645 730 590.5 768 c 128,-1,10
 536 806 536 806 469 806 c 0,11,0
 360 806 360 806 297.5 713.5 c 128,-1,1
201.5 94 m 128,-1,13
 94 215 94 215 94 422.5 c 128,-1,14
 94 630 94 630 215.5 760.5 c 128,-1,15
 337 891 337 891 512 891 c 0,16,17
 625 891 625 891 711.5 831 c 128,-1,18
 798 771 798 771 843 669 c 128,-1,19
 888 567 888 567 888 439 c 0,20,21
 888 234 888 234 771.5 103.5 c 128,-1,22
 655 -27 655 -27 482 -27 c 128,-1,12
 309 -27 309 -27 201.5 94 c 128,-1,13
312 1020 m 1,23,-1
 480 1200 l 1,24,-1
 535 1214 l 1,25,-1
 713 1028 l 1,26,-1
 673 991 l 1,27,-1
 500 1113 l 1,28,-1
 491 1113 l 1,29,-1
 342 990 l 1,30,-1
 312 1020 l 1,23,-1
EndSplineSet
EndChar

StartChar: otilde
Encoding: 245 245 182
Width: 944
Flags: W
LayerCount: 2
Fore
SplineSet
297.5 713.5 m 128,-1,1
 235 621 235 621 235 495 c 128,-1,2
 235 369 235 369 266 273.5 c 128,-1,3
 297 178 297 178 363.5 116 c 128,-1,4
 430 54 430 54 527.5 54 c 128,-1,5
 625 54 625 54 686 148.5 c 128,-1,6
 747 243 747 243 747 392 c 128,-1,7
 747 541 747 541 678 668 c 0,8,9
 645 730 645 730 590.5 768 c 128,-1,10
 536 806 536 806 469 806 c 0,11,0
 360 806 360 806 297.5 713.5 c 128,-1,1
201.5 94 m 128,-1,13
 94 215 94 215 94 422.5 c 128,-1,14
 94 630 94 630 215.5 760.5 c 128,-1,15
 337 891 337 891 512 891 c 0,16,17
 625 891 625 891 711.5 831 c 128,-1,18
 798 771 798 771 843 669 c 128,-1,19
 888 567 888 567 888 439 c 0,20,21
 888 234 888 234 771.5 103.5 c 128,-1,22
 655 -27 655 -27 482 -27 c 128,-1,12
 309 -27 309 -27 201.5 94 c 128,-1,13
279 1000 m 1,23,24
 298 1066 298 1066 320 1093 c 0,25,26
 368 1152 368 1152 426 1139 c 2,27,-1
 629 1097 l 1,28,29
 673 1085 673 1085 705 1151 c 1,30,-1
 747 1149 l 1,31,32
 717 1045 717 1045 651 1016 c 0,33,34
 623 1003 623 1003 592 1010 c 2,35,-1
 391 1052 l 1,36,37
 350 1062 350 1062 312 990 c 1,38,-1
 279 1000 l 1,23,24
EndSplineSet
EndChar

StartChar: odieresis
Encoding: 246 246 183
Width: 944
Flags: W
LayerCount: 2
Fore
SplineSet
297.5 713.5 m 128,-1,1
 235 621 235 621 235 495 c 128,-1,2
 235 369 235 369 266 273.5 c 128,-1,3
 297 178 297 178 363.5 116 c 128,-1,4
 430 54 430 54 527.5 54 c 128,-1,5
 625 54 625 54 686 148.5 c 128,-1,6
 747 243 747 243 747 392 c 128,-1,7
 747 541 747 541 678 668 c 0,8,9
 645 730 645 730 590.5 768 c 128,-1,10
 536 806 536 806 469 806 c 0,11,0
 360 806 360 806 297.5 713.5 c 128,-1,1
201.5 94 m 128,-1,13
 94 215 94 215 94 422.5 c 128,-1,14
 94 630 94 630 215.5 760.5 c 128,-1,15
 337 891 337 891 512 891 c 0,16,17
 625 891 625 891 711.5 831 c 128,-1,18
 798 771 798 771 843 669 c 128,-1,19
 888 567 888 567 888 439 c 0,20,21
 888 234 888 234 771.5 103.5 c 128,-1,22
 655 -27 655 -27 482 -27 c 128,-1,12
 309 -27 309 -27 201.5 94 c 128,-1,13
593.5 1012.5 m 128,-1,24
 575 1035 575 1035 575 1071.5 c 128,-1,25
 575 1108 575 1108 594 1128.5 c 128,-1,26
 613 1149 613 1149 644.5 1149 c 128,-1,27
 676 1149 676 1149 696.5 1128.5 c 128,-1,28
 717 1108 717 1108 717 1071 c 128,-1,29
 717 1034 717 1034 697 1012 c 128,-1,30
 677 990 677 990 644.5 990 c 128,-1,23
 612 990 612 990 593.5 1012.5 c 128,-1,24
326 1012.5 m 128,-1,32
 307 1035 307 1035 307 1071.5 c 128,-1,33
 307 1108 307 1108 326 1128.5 c 128,-1,34
 345 1149 345 1149 376.5 1149 c 128,-1,35
 408 1149 408 1149 428 1128.5 c 128,-1,36
 448 1108 448 1108 448 1071 c 128,-1,37
 448 1034 448 1034 428.5 1012 c 128,-1,38
 409 990 409 990 377 990 c 128,-1,31
 345 990 345 990 326 1012.5 c 128,-1,32
EndSplineSet
EndChar

StartChar: divide
Encoding: 247 247 184
Width: 958
Flags: W
LayerCount: 2
Fore
SplineSet
408 708 m 128,-1,1
 383 740 383 740 383 789 c 128,-1,2
 383 838 383 838 407.5 866 c 128,-1,3
 432 894 432 894 473 894 c 128,-1,4
 514 894 514 894 540.5 865.5 c 128,-1,5
 567 837 567 837 567 788 c 128,-1,6
 567 739 567 739 541.5 707.5 c 128,-1,7
 516 676 516 676 474.5 676 c 128,-1,0
 433 676 433 676 408 708 c 128,-1,1
408 144 m 128,-1,9
 383 176 383 176 383 225 c 128,-1,10
 383 274 383 274 407.5 302 c 128,-1,11
 432 330 432 330 473 330 c 128,-1,12
 514 330 514 330 540.5 301 c 128,-1,13
 567 272 567 272 567 223.5 c 128,-1,14
 567 175 567 175 541.5 143.5 c 128,-1,15
 516 112 516 112 474.5 112 c 128,-1,8
 433 112 433 112 408 144 c 128,-1,9
68 465 m 1,16,-1
 81 550 l 1,17,-1
 893 550 l 1,18,-1
 882 465 l 1,19,-1
 68 465 l 1,16,-1
EndSplineSet
EndChar

StartChar: oslash
Encoding: 248 248 185
Width: 944
Flags: W
LayerCount: 2
Fore
SplineSet
88 417 m 0,0,1
 88 642 88 642 211 772.5 c 128,-1,2
 334 903 334 903 507 903 c 0,3,4
 643 903 643 903 739 816 c 1,5,-1
 783 873 l 1,6,-1
 918 880 l 1,7,-1
 803 741 l 1,8,9
 883 618 883 618 883 428.5 c 128,-1,10
 883 239 883 239 766 106 c 128,-1,11
 649 -27 649 -27 493 -27 c 128,-1,12
 337 -27 337 -27 235 58 c 1,13,-1
 193 6 l 1,14,-1
 56 0 l 1,15,-1
 170 129 l 1,16,17
 88 245 88 245 88 417 c 0,0,1
692 638 m 1,18,-1
 309 176 l 1,19,20
 386 54 386 54 517 54 c 0,21,22
 620 54 620 54 680.5 151 c 128,-1,23
 741 248 741 248 741 386.5 c 128,-1,24
 741 525 741 525 692 638 c 1,18,-1
663 695 m 1,25,26
 586 819 586 819 470.5 819 c 128,-1,27
 355 819 355 819 293 723.5 c 128,-1,28
 231 628 231 628 231 486 c 128,-1,29
 231 344 231 344 281 230 c 1,30,-1
 663 695 l 1,25,26
EndSplineSet
EndChar

StartChar: ugrave
Encoding: 249 249 186
Width: 1013
Flags: W
LayerCount: 2
Fore
SplineSet
705 132 m 1,0,1
 600 -24 600 -24 427 -24 c 0,2,3
 199 -24 199 -24 199 275 c 2,4,-1
 199 757 l 1,5,-1
 54 800 l 1,6,-1
 62 853 l 1,7,-1
 311 874 l 1,8,-1
 327 857 l 1,9,-1
 327 317 l 2,10,11
 327 86 327 86 499 86 c 0,12,13
 614 86 614 86 705 187 c 1,14,-1
 705 754 l 1,15,-1
 548 790 l 1,16,-1
 554 850 l 1,17,-1
 820 874 l 1,18,-1
 834 857 l 1,19,-1
 834 223 l 2,20,21
 834 148 834 148 855 114.5 c 128,-1,22
 876 81 876 81 933 70 c 1,23,-1
 987 58 l 1,24,-1
 980 -1 l 1,25,26
 912 -21 912 -21 850.5 -21 c 128,-1,27
 789 -21 789 -21 753 19 c 128,-1,28
 717 59 717 59 717 120 c 2,29,-1
 717 132 l 1,30,-1
 705 132 l 1,0,1
331 1319 m 1,31,-1
 435 1356 l 1,32,-1
 568 1021 l 1,33,-1
 517 990 l 1,34,-1
 331 1319 l 1,31,-1
EndSplineSet
EndChar

StartChar: uacute
Encoding: 250 250 187
Width: 1013
Flags: W
LayerCount: 2
Fore
SplineSet
705 132 m 1,0,1
 600 -24 600 -24 427 -24 c 0,2,3
 199 -24 199 -24 199 275 c 2,4,-1
 199 757 l 1,5,-1
 54 800 l 1,6,-1
 62 853 l 1,7,-1
 311 874 l 1,8,-1
 327 857 l 1,9,-1
 327 317 l 2,10,11
 327 86 327 86 499 86 c 0,12,13
 614 86 614 86 705 187 c 1,14,-1
 705 754 l 1,15,-1
 548 790 l 1,16,-1
 554 850 l 1,17,-1
 820 874 l 1,18,-1
 834 857 l 1,19,-1
 834 223 l 2,20,21
 834 148 834 148 855 114.5 c 128,-1,22
 876 81 876 81 933 70 c 1,23,-1
 987 58 l 1,24,-1
 980 -1 l 1,25,26
 912 -21 912 -21 850.5 -21 c 128,-1,27
 789 -21 789 -21 753 19 c 128,-1,28
 717 59 717 59 717 120 c 2,29,-1
 717 132 l 1,30,-1
 705 132 l 1,0,1
444 1020 m 1,31,-1
 572 1350 l 1,32,-1
 675 1311 l 1,33,-1
 493 990 l 1,34,-1
 444 1020 l 1,31,-1
EndSplineSet
EndChar

StartChar: ucircumflex
Encoding: 251 251 188
Width: 1013
Flags: W
LayerCount: 2
Fore
SplineSet
705 132 m 1,0,1
 600 -24 600 -24 427 -24 c 0,2,3
 199 -24 199 -24 199 275 c 2,4,-1
 199 757 l 1,5,-1
 54 800 l 1,6,-1
 62 853 l 1,7,-1
 311 874 l 1,8,-1
 327 857 l 1,9,-1
 327 317 l 2,10,11
 327 86 327 86 499 86 c 0,12,13
 614 86 614 86 705 187 c 1,14,-1
 705 754 l 1,15,-1
 548 790 l 1,16,-1
 554 850 l 1,17,-1
 820 874 l 1,18,-1
 834 857 l 1,19,-1
 834 223 l 2,20,21
 834 148 834 148 855 114.5 c 128,-1,22
 876 81 876 81 933 70 c 1,23,-1
 987 58 l 1,24,-1
 980 -1 l 1,25,26
 912 -21 912 -21 850.5 -21 c 128,-1,27
 789 -21 789 -21 753 19 c 128,-1,28
 717 59 717 59 717 120 c 2,29,-1
 717 132 l 1,30,-1
 705 132 l 1,0,1
300 1020 m 1,31,-1
 468 1200 l 1,32,-1
 523 1214 l 1,33,-1
 701 1028 l 1,34,-1
 661 991 l 1,35,-1
 488 1113 l 1,36,-1
 479 1113 l 1,37,-1
 330 990 l 1,38,-1
 300 1020 l 1,31,-1
EndSplineSet
EndChar

StartChar: udieresis
Encoding: 252 252 189
Width: 1013
Flags: W
LayerCount: 2
Fore
SplineSet
705 132 m 1,0,1
 600 -24 600 -24 427 -24 c 0,2,3
 199 -24 199 -24 199 275 c 2,4,-1
 199 757 l 1,5,-1
 54 800 l 1,6,-1
 62 853 l 1,7,-1
 311 874 l 1,8,-1
 327 857 l 1,9,-1
 327 317 l 2,10,11
 327 86 327 86 499 86 c 0,12,13
 614 86 614 86 705 187 c 1,14,-1
 705 754 l 1,15,-1
 548 790 l 1,16,-1
 554 850 l 1,17,-1
 820 874 l 1,18,-1
 834 857 l 1,19,-1
 834 223 l 2,20,21
 834 148 834 148 855 114.5 c 128,-1,22
 876 81 876 81 933 70 c 1,23,-1
 987 58 l 1,24,-1
 980 -1 l 1,25,26
 912 -21 912 -21 850.5 -21 c 128,-1,27
 789 -21 789 -21 753 19 c 128,-1,28
 717 59 717 59 717 120 c 2,29,-1
 717 132 l 1,30,-1
 705 132 l 1,0,1
582.5 1012.5 m 128,-1,32
 564 1035 564 1035 564 1071.5 c 128,-1,33
 564 1108 564 1108 583 1128.5 c 128,-1,34
 602 1149 602 1149 633.5 1149 c 128,-1,35
 665 1149 665 1149 685.5 1128.5 c 128,-1,36
 706 1108 706 1108 706 1071 c 128,-1,37
 706 1034 706 1034 686 1012 c 128,-1,38
 666 990 666 990 633.5 990 c 128,-1,31
 601 990 601 990 582.5 1012.5 c 128,-1,32
315 1012.5 m 128,-1,40
 296 1035 296 1035 296 1071.5 c 128,-1,41
 296 1108 296 1108 315 1128.5 c 128,-1,42
 334 1149 334 1149 365.5 1149 c 128,-1,43
 397 1149 397 1149 417 1128.5 c 128,-1,44
 437 1108 437 1108 437 1071 c 128,-1,45
 437 1034 437 1034 417.5 1012 c 128,-1,46
 398 990 398 990 366 990 c 128,-1,39
 334 990 334 990 315 1012.5 c 128,-1,40
EndSplineSet
EndChar

StartChar: yacute
Encoding: 253 253 190
Width: 936
Flags: W
LayerCount: 2
Fore
SplineSet
71.5 -348.5 m 128,-1,1
 30 -318 30 -318 30 -266.5 c 128,-1,2
 30 -215 30 -215 75 -176 c 1,3,4
 144 -229 144 -229 233 -229 c 0,5,6
 344 -229 344 -229 415 -49 c 1,7,-1
 438 12 l 1,8,-1
 160 772 l 1,9,-1
 36 805 l 1,10,-1
 45 861 l 1,11,-1
 428 861 l 1,12,-1
 422 808 l 1,13,-1
 295 775 l 1,14,-1
 510 195 l 1,15,-1
 740 771 l 1,16,-1
 610 806 l 1,17,-1
 621 861 l 1,18,-1
 938 861 l 1,19,-1
 933 808 l 1,20,-1
 832 772 l 1,21,-1
 502 -53 l 2,22,23
 430 -233 430 -233 359 -306 c 128,-1,24
 288 -379 288 -379 175 -379 c 0,25,0
 113 -379 113 -379 71.5 -348.5 c 128,-1,1
443 1020 m 1,26,-1
 571 1350 l 1,27,-1
 674 1311 l 1,28,-1
 492 990 l 1,29,-1
 443 1020 l 1,26,-1
EndSplineSet
EndChar

StartChar: thorn
Encoding: 254 254 191
Width: 961
Flags: W
LayerCount: 2
Fore
SplineSet
39 -370 m 1,0,-1
 45 -311 l 1,1,-1
 197 -282 l 1,2,-1
 194 1154 l 1,3,-1
 44 1196 l 1,4,-1
 52 1250 l 1,5,-1
 313 1270 l 1,6,-1
 329 1254 l 1,7,-1
 329 849 l 1,8,-1
 317 740 l 1,9,-1
 326 740 l 1,10,11
 454 898 454 898 595 898 c 128,-1,12
 736 898 736 898 820.5 785.5 c 128,-1,13
 905 673 905 673 905 465 c 128,-1,14
 905 257 905 257 785.5 120 c 128,-1,15
 666 -17 666 -17 483 -17 c 0,16,17
 425 -17 425 -17 377 -4 c 1,18,-1
 373 82 l 1,19,20
 424 66 424 66 501 66 c 0,21,22
 627 66 627 66 693.5 162 c 128,-1,23
 760 258 760 258 760 425 c 128,-1,24
 760 592 760 592 704.5 692 c 128,-1,25
 649 792 649 792 537 792 c 0,26,27
 475 792 475 792 425 760.5 c 128,-1,28
 375 729 375 729 326 678 c 1,29,-1
 326 -283 l 1,30,-1
 482 -309 l 1,31,-1
 472 -370 l 1,32,-1
 39 -370 l 1,0,-1
EndSplineSet
EndChar

StartChar: ydieresis
Encoding: 255 255 192
Width: 936
Flags: W
LayerCount: 2
Fore
SplineSet
71.5 -348.5 m 128,-1,1
 30 -318 30 -318 30 -266.5 c 128,-1,2
 30 -215 30 -215 75 -176 c 1,3,4
 144 -229 144 -229 233 -229 c 0,5,6
 344 -229 344 -229 415 -49 c 1,7,-1
 438 12 l 1,8,-1
 160 772 l 1,9,-1
 36 805 l 1,10,-1
 45 861 l 1,11,-1
 428 861 l 1,12,-1
 422 808 l 1,13,-1
 295 775 l 1,14,-1
 510 195 l 1,15,-1
 740 771 l 1,16,-1
 610 806 l 1,17,-1
 621 861 l 1,18,-1
 938 861 l 1,19,-1
 933 808 l 1,20,-1
 832 772 l 1,21,-1
 502 -53 l 2,22,23
 430 -233 430 -233 359 -306 c 128,-1,24
 288 -379 288 -379 175 -379 c 0,25,0
 113 -379 113 -379 71.5 -348.5 c 128,-1,1
572.5 1012.5 m 128,-1,27
 554 1035 554 1035 554 1071.5 c 128,-1,28
 554 1108 554 1108 573 1128.5 c 128,-1,29
 592 1149 592 1149 623.5 1149 c 128,-1,30
 655 1149 655 1149 675.5 1128.5 c 128,-1,31
 696 1108 696 1108 696 1071 c 128,-1,32
 696 1034 696 1034 676 1012 c 128,-1,33
 656 990 656 990 623.5 990 c 128,-1,26
 591 990 591 990 572.5 1012.5 c 128,-1,27
305 1012.5 m 128,-1,35
 286 1035 286 1035 286 1071.5 c 128,-1,36
 286 1108 286 1108 305 1128.5 c 128,-1,37
 324 1149 324 1149 355.5 1149 c 128,-1,38
 387 1149 387 1149 407 1128.5 c 128,-1,39
 427 1108 427 1108 427 1071 c 128,-1,40
 427 1034 427 1034 407.5 1012 c 128,-1,41
 388 990 388 990 356 990 c 128,-1,34
 324 990 324 990 305 1012.5 c 128,-1,35
EndSplineSet
EndChar

StartChar: Amacron
Encoding: 256 256 193
Width: 1324
Flags: W
LayerCount: 2
Fore
SplineSet
453 534 m 1,0,-1
 826 534 l 1,1,-1
 646 1060 l 1,2,-1
 453 534 l 1,0,-1
35 0 m 1,3,-1
 43 58 l 1,4,-1
 188 101 l 1,5,-1
 626 1246 l 1,6,-1
 728 1268 l 1,7,-1
 1130 95 l 1,8,-1
 1265 64 l 1,9,-1
 1257 0 l 1,10,-1
 795 0 l 1,11,-1
 805 58 l 1,12,-1
 974 101 l 1,13,-1
 850 455 l 1,14,-1
 425 455 l 1,15,-1
 294 95 l 1,16,-1
 479 63 l 1,17,-1
 469 0 l 1,18,-1
 35 0 l 1,3,-1
470 1373 m 1,19,-1
 481 1449 l 1,20,-1
 922 1449 l 1,21,-1
 912 1373 l 1,22,-1
 470 1373 l 1,19,-1
EndSplineSet
EndChar

StartChar: amacron
Encoding: 257 257 194
Width: 847
Flags: W
LayerCount: 2
Fore
SplineSet
230 207 m 0,0,1
 230 154 230 154 264.5 112.5 c 128,-1,2
 299 71 299 71 356.5 71 c 128,-1,3
 414 71 414 71 467.5 104.5 c 128,-1,4
 521 138 521 138 554 186 c 1,5,-1
 554 430 l 1,6,7
 390 402 390 402 310 350.5 c 128,-1,8
 230 299 230 299 230 207 c 0,0,1
93 169 m 0,9,10
 93 293 93 293 206 376.5 c 128,-1,11
 319 460 319 460 554 481 c 1,12,-1
 554 529 l 2,13,14
 554 670 554 670 514 743 c 128,-1,15
 474 816 474 816 371 816 c 0,16,17
 315 816 315 816 294 795 c 128,-1,18
 273 774 273 774 262.5 738.5 c 128,-1,19
 252 703 252 703 237 601 c 1,20,21
 127 601 127 601 127 685 c 0,22,23
 127 736 127 736 177.5 784 c 128,-1,24
 228 832 228 832 301.5 860.5 c 128,-1,25
 375 889 375 889 443 889 c 0,26,27
 567 889 567 889 624 814.5 c 128,-1,28
 681 740 681 740 681 581 c 2,29,-1
 681 230 l 2,30,31
 681 153 681 153 699.5 118 c 128,-1,32
 718 83 718 83 781 73 c 1,33,-1
 839 62 l 1,34,-1
 830 2 l 1,35,36
 745 -18 745 -18 693.5 -18 c 128,-1,37
 642 -18 642 -18 606.5 21.5 c 128,-1,38
 571 61 571 61 571 116 c 2,39,-1
 571 131 l 1,40,-1
 563 131 l 1,41,42
 540 76 540 76 468.5 25.5 c 128,-1,43
 397 -25 397 -25 304 -25 c 128,-1,44
 211 -25 211 -25 152 27.5 c 128,-1,45
 93 80 93 80 93 169 c 0,9,10
217 990 m 1,46,-1
 228 1066 l 1,47,-1
 669 1066 l 1,48,-1
 659 990 l 1,49,-1
 217 990 l 1,46,-1
EndSplineSet
EndChar

StartChar: Abreve
Encoding: 258 258 195
Width: 1324
Flags: W
LayerCount: 2
Fore
SplineSet
453 534 m 1,0,-1
 826 534 l 1,1,-1
 646 1060 l 1,2,-1
 453 534 l 1,0,-1
35 0 m 1,3,-1
 43 58 l 1,4,-1
 188 101 l 1,5,-1
 626 1246 l 1,6,-1
 728 1268 l 1,7,-1
 1130 95 l 1,8,-1
 1265 64 l 1,9,-1
 1257 0 l 1,10,-1
 795 0 l 1,11,-1
 805 58 l 1,12,-1
 974 101 l 1,13,-1
 850 455 l 1,14,-1
 425 455 l 1,15,-1
 294 95 l 1,16,-1
 479 63 l 1,17,-1
 469 0 l 1,18,-1
 35 0 l 1,3,-1
488 1551 m 1,19,-1
 518 1579 l 1,20,21
 541 1534 541 1534 582 1499.5 c 128,-1,22
 623 1465 623 1465 678 1465 c 0,23,24
 772 1465 772 1465 837 1581 c 1,25,-1
 871 1556 l 1,26,27
 808 1372 808 1372 670.5 1372 c 128,-1,28
 533 1372 533 1372 488 1551 c 1,19,-1
EndSplineSet
EndChar

StartChar: abreve
Encoding: 259 259 196
Width: 847
Flags: W
LayerCount: 2
Fore
SplineSet
230 207 m 0,0,1
 230 154 230 154 264.5 112.5 c 128,-1,2
 299 71 299 71 356.5 71 c 128,-1,3
 414 71 414 71 467.5 104.5 c 128,-1,4
 521 138 521 138 554 186 c 1,5,-1
 554 430 l 1,6,7
 390 402 390 402 310 350.5 c 128,-1,8
 230 299 230 299 230 207 c 0,0,1
93 169 m 0,9,10
 93 293 93 293 206 376.5 c 128,-1,11
 319 460 319 460 554 481 c 1,12,-1
 554 529 l 2,13,14
 554 670 554 670 514 743 c 128,-1,15
 474 816 474 816 371 816 c 0,16,17
 315 816 315 816 294 795 c 128,-1,18
 273 774 273 774 262.5 738.5 c 128,-1,19
 252 703 252 703 237 601 c 1,20,21
 127 601 127 601 127 685 c 0,22,23
 127 736 127 736 177.5 784 c 128,-1,24
 228 832 228 832 301.5 860.5 c 128,-1,25
 375 889 375 889 443 889 c 0,26,27
 567 889 567 889 624 814.5 c 128,-1,28
 681 740 681 740 681 581 c 2,29,-1
 681 230 l 2,30,31
 681 153 681 153 699.5 118 c 128,-1,32
 718 83 718 83 781 73 c 1,33,-1
 839 62 l 1,34,-1
 830 2 l 1,35,36
 745 -18 745 -18 693.5 -18 c 128,-1,37
 642 -18 642 -18 606.5 21.5 c 128,-1,38
 571 61 571 61 571 116 c 2,39,-1
 571 131 l 1,40,-1
 563 131 l 1,41,42
 540 76 540 76 468.5 25.5 c 128,-1,43
 397 -25 397 -25 304 -25 c 128,-1,44
 211 -25 211 -25 152 27.5 c 128,-1,45
 93 80 93 80 93 169 c 0,9,10
252 1169 m 1,46,-1
 282 1197 l 1,47,48
 305 1152 305 1152 346 1117.5 c 128,-1,49
 387 1083 387 1083 442 1083 c 0,50,51
 536 1083 536 1083 601 1199 c 1,52,-1
 635 1174 l 1,53,54
 572 990 572 990 434.5 990 c 128,-1,55
 297 990 297 990 252 1169 c 1,46,-1
EndSplineSet
EndChar

StartChar: Aogonek
Encoding: 260 260 197
Width: 1324
Flags: W
LayerCount: 2
Fore
SplineSet
453 534 m 1,0,-1
 826 534 l 1,1,-1
 646 1060 l 1,2,-1
 453 534 l 1,0,-1
35 0 m 1,3,-1
 43 58 l 1,4,-1
 188 101 l 1,5,-1
 626 1246 l 1,6,-1
 728 1268 l 1,7,-1
 1130 95 l 1,8,-1
 1265 64 l 1,9,-1
 1257 0 l 1,10,-1
 1242 0 l 1,11,12
 1181 -89 1181 -89 1181 -147 c 0,13,14
 1181 -256 1181 -256 1314 -334 c 1,15,-1
 1280 -377 l 1,16,17
 1176 -366 1176 -366 1117 -316 c 128,-1,18
 1058 -266 1058 -266 1058 -211 c 128,-1,19
 1058 -156 1058 -156 1082.5 -111 c 128,-1,20
 1107 -66 1107 -66 1178 0 c 1,21,-1
 795 0 l 1,22,-1
 805 58 l 1,23,-1
 974 101 l 1,24,-1
 850 455 l 1,25,-1
 425 455 l 1,26,-1
 294 95 l 1,27,-1
 479 63 l 1,28,-1
 469 0 l 1,29,-1
 35 0 l 1,3,-1
EndSplineSet
EndChar

StartChar: aogonek
Encoding: 261 261 198
Width: 847
Flags: W
LayerCount: 2
Fore
SplineSet
230 207 m 0,0,1
 230 154 230 154 264.5 112.5 c 128,-1,2
 299 71 299 71 356.5 71 c 128,-1,3
 414 71 414 71 467.5 104.5 c 128,-1,4
 521 138 521 138 554 186 c 1,5,-1
 554 430 l 1,6,7
 390 402 390 402 310 350.5 c 128,-1,8
 230 299 230 299 230 207 c 0,0,1
93 169 m 0,9,10
 93 293 93 293 206 376.5 c 128,-1,11
 319 460 319 460 554 481 c 1,12,-1
 554 529 l 2,13,14
 554 670 554 670 514 743 c 128,-1,15
 474 816 474 816 371 816 c 0,16,17
 315 816 315 816 294 795 c 128,-1,18
 273 774 273 774 262.5 738.5 c 128,-1,19
 252 703 252 703 237 601 c 1,20,21
 127 601 127 601 127 685 c 0,22,23
 127 736 127 736 177.5 784 c 128,-1,24
 228 832 228 832 301.5 860.5 c 128,-1,25
 375 889 375 889 443 889 c 0,26,27
 567 889 567 889 624 814.5 c 128,-1,28
 681 740 681 740 681 581 c 2,29,-1
 681 230 l 2,30,31
 681 153 681 153 699.5 118 c 128,-1,32
 718 83 718 83 781 73 c 1,33,-1
 839 62 l 1,34,-1
 830 2 l 1,35,36
 747 -17 747 -17 741 -17 c 1,37,38
 674 -114 674 -114 674 -172 c 0,39,40
 674 -281 674 -281 807 -359 c 1,41,-1
 773 -402 l 1,42,43
 669 -391 669 -391 610 -341 c 128,-1,44
 551 -291 551 -291 551 -235.5 c 128,-1,45
 551 -180 551 -180 577.5 -133 c 128,-1,46
 604 -86 604 -86 681 -16 c 1,47,48
 627 -8 627 -8 599 30 c 128,-1,49
 571 68 571 68 571 116 c 2,50,-1
 571 131 l 1,51,-1
 563 131 l 1,52,53
 540 76 540 76 468.5 25.5 c 128,-1,54
 397 -25 397 -25 304 -25 c 128,-1,55
 211 -25 211 -25 152 27.5 c 128,-1,56
 93 80 93 80 93 169 c 0,9,10
EndSplineSet
EndChar

StartChar: Cacute
Encoding: 262 262 199
Width: 1113
Flags: W
LayerCount: 2
Fore
SplineSet
151 336.5 m 128,-1,1
 108 455 108 455 108 572.5 c 128,-1,2
 108 690 108 690 130 782 c 128,-1,3
 152 874 152 874 200 962.5 c 128,-1,4
 248 1051 248 1051 316.5 1119 c 128,-1,5
 385 1187 385 1187 487.5 1228.5 c 128,-1,6
 590 1270 590 1270 711 1270 c 0,7,8
 932 1270 932 1270 1062 1171 c 1,9,-1
 1031 836 l 1,10,-1
 963 846 l 1,11,-1
 927 1086 l 1,12,13
 843 1195 843 1195 669.5 1195 c 128,-1,14
 496 1195 496 1195 383.5 1043 c 128,-1,15
 271 891 271 891 271 637 c 128,-1,16
 271 383 271 383 397.5 233.5 c 128,-1,17
 524 84 524 84 727 84 c 0,18,19
 827 84 827 84 920 132 c 128,-1,20
 1013 180 1013 180 1084 252 c 1,21,-1
 1113 195 l 1,22,23
 1050 111 1050 111 926.5 43 c 128,-1,24
 803 -25 803 -25 673 -25 c 128,-1,25
 543 -25 543 -25 443 18 c 128,-1,26
 343 61 343 61 268.5 139.5 c 128,-1,0
 194 218 194 218 151 336.5 c 128,-1,1
662 1402 m 1,27,-1
 790 1732 l 1,28,-1
 893 1693 l 1,29,-1
 711 1372 l 1,30,-1
 662 1402 l 1,27,-1
EndSplineSet
EndChar

StartChar: cacute
Encoding: 263 263 200
Width: 779
Flags: W
LayerCount: 2
Fore
SplineSet
190 94.5 m 128,-1,1
 91 219 91 219 91 420.5 c 128,-1,2
 91 622 91 622 207 755 c 128,-1,3
 323 888 323 888 491 888 c 0,4,5
 608 888 608 888 665 840.5 c 128,-1,6
 722 793 722 793 722 726 c 0,7,8
 722 643 722 643 627 627 c 1,9,10
 596 714 596 714 553 762 c 128,-1,11
 510 810 510 810 443 810 c 0,12,13
 351 810 351 810 291 722 c 128,-1,14
 231 634 231 634 231 467.5 c 128,-1,15
 231 301 231 301 309.5 185 c 128,-1,16
 388 69 388 69 516.5 69 c 128,-1,17
 645 69 645 69 742 148 c 1,18,-1
 763 102 l 1,19,20
 723 48 723 48 636.5 9 c 128,-1,21
 550 -30 550 -30 457 -30 c 0,22,0
 289 -30 289 -30 190 94.5 c 128,-1,1
443 1020 m 1,23,-1
 571 1350 l 1,24,-1
 674 1311 l 1,25,-1
 492 990 l 1,26,-1
 443 1020 l 1,23,-1
EndSplineSet
EndChar

StartChar: Cdotaccent
Encoding: 266 266 201
Width: 1113
Flags: W
LayerCount: 2
Fore
SplineSet
151 336.5 m 128,-1,1
 108 455 108 455 108 572.5 c 128,-1,2
 108 690 108 690 130 782 c 128,-1,3
 152 874 152 874 200 962.5 c 128,-1,4
 248 1051 248 1051 316.5 1119 c 128,-1,5
 385 1187 385 1187 487.5 1228.5 c 128,-1,6
 590 1270 590 1270 711 1270 c 0,7,8
 932 1270 932 1270 1062 1171 c 1,9,-1
 1031 836 l 1,10,-1
 963 846 l 1,11,-1
 927 1086 l 1,12,13
 843 1195 843 1195 669.5 1195 c 128,-1,14
 496 1195 496 1195 383.5 1043 c 128,-1,15
 271 891 271 891 271 637 c 128,-1,16
 271 383 271 383 397.5 233.5 c 128,-1,17
 524 84 524 84 727 84 c 0,18,19
 827 84 827 84 920 132 c 128,-1,20
 1013 180 1013 180 1084 252 c 1,21,-1
 1113 195 l 1,22,23
 1050 111 1050 111 926.5 43 c 128,-1,24
 803 -25 803 -25 673 -25 c 128,-1,25
 543 -25 543 -25 443 18 c 128,-1,26
 343 61 343 61 268.5 139.5 c 128,-1,0
 194 218 194 218 151 336.5 c 128,-1,1
613.5 1402.5 m 128,-1,28
 591 1432 591 1432 591 1478.5 c 128,-1,29
 591 1525 591 1525 614 1553 c 128,-1,30
 637 1581 637 1581 675 1581 c 128,-1,31
 713 1581 713 1581 737 1553 c 128,-1,32
 761 1525 761 1525 761 1478 c 128,-1,33
 761 1431 761 1431 738 1402 c 128,-1,34
 715 1373 715 1373 675.5 1373 c 128,-1,27
 636 1373 636 1373 613.5 1402.5 c 128,-1,28
EndSplineSet
EndChar

StartChar: cdotaccent
Encoding: 267 267 202
Width: 779
Flags: W
LayerCount: 2
Fore
SplineSet
190 94.5 m 128,-1,1
 91 219 91 219 91 420.5 c 128,-1,2
 91 622 91 622 207 755 c 128,-1,3
 323 888 323 888 491 888 c 0,4,5
 608 888 608 888 665 840.5 c 128,-1,6
 722 793 722 793 722 726 c 0,7,8
 722 643 722 643 627 627 c 1,9,10
 596 714 596 714 553 762 c 128,-1,11
 510 810 510 810 443 810 c 0,12,13
 351 810 351 810 291 722 c 128,-1,14
 231 634 231 634 231 467.5 c 128,-1,15
 231 301 231 301 309.5 185 c 128,-1,16
 388 69 388 69 516.5 69 c 128,-1,17
 645 69 645 69 742 148 c 1,18,-1
 763 102 l 1,19,20
 723 48 723 48 636.5 9 c 128,-1,21
 550 -30 550 -30 457 -30 c 0,22,0
 289 -30 289 -30 190 94.5 c 128,-1,1
428.5 1012.5 m 128,-1,24
 406 1042 406 1042 406 1088.5 c 128,-1,25
 406 1135 406 1135 429 1163 c 128,-1,26
 452 1191 452 1191 490 1191 c 128,-1,27
 528 1191 528 1191 552 1163 c 128,-1,28
 576 1135 576 1135 576 1088 c 128,-1,29
 576 1041 576 1041 553 1012 c 128,-1,30
 530 983 530 983 490.5 983 c 128,-1,23
 451 983 451 983 428.5 1012.5 c 128,-1,24
EndSplineSet
EndChar

StartChar: Ccaron
Encoding: 268 268 203
Width: 1113
Flags: W
LayerCount: 2
Fore
SplineSet
151 336.5 m 128,-1,1
 108 455 108 455 108 572.5 c 128,-1,2
 108 690 108 690 130 782 c 128,-1,3
 152 874 152 874 200 962.5 c 128,-1,4
 248 1051 248 1051 316.5 1119 c 128,-1,5
 385 1187 385 1187 487.5 1228.5 c 128,-1,6
 590 1270 590 1270 711 1270 c 0,7,8
 932 1270 932 1270 1062 1171 c 1,9,-1
 1031 836 l 1,10,-1
 963 846 l 1,11,-1
 927 1086 l 1,12,13
 843 1195 843 1195 669.5 1195 c 128,-1,14
 496 1195 496 1195 383.5 1043 c 128,-1,15
 271 891 271 891 271 637 c 128,-1,16
 271 383 271 383 397.5 233.5 c 128,-1,17
 524 84 524 84 727 84 c 0,18,19
 827 84 827 84 920 132 c 128,-1,20
 1013 180 1013 180 1084 252 c 1,21,-1
 1113 195 l 1,22,23
 1050 111 1050 111 926.5 43 c 128,-1,24
 803 -25 803 -25 673 -25 c 128,-1,25
 543 -25 543 -25 443 18 c 128,-1,26
 343 61 343 61 268.5 139.5 c 128,-1,0
 194 218 194 218 151 336.5 c 128,-1,1
507 1545 m 1,27,-1
 575 1600 l 1,28,-1
 732 1444 l 1,29,-1
 742 1444 l 1,30,-1
 874 1597 l 1,31,-1
 915 1568 l 1,32,-1
 742 1386 l 1,33,-1
 686 1372 l 1,34,-1
 507 1545 l 1,27,-1
EndSplineSet
EndChar

StartChar: ccaron
Encoding: 269 269 204
Width: 779
Flags: W
LayerCount: 2
Fore
SplineSet
190 94.5 m 128,-1,1
 91 219 91 219 91 420.5 c 128,-1,2
 91 622 91 622 207 755 c 128,-1,3
 323 888 323 888 491 888 c 0,4,5
 608 888 608 888 665 840.5 c 128,-1,6
 722 793 722 793 722 726 c 0,7,8
 722 643 722 643 627 627 c 1,9,10
 596 714 596 714 553 762 c 128,-1,11
 510 810 510 810 443 810 c 0,12,13
 351 810 351 810 291 722 c 128,-1,14
 231 634 231 634 231 467.5 c 128,-1,15
 231 301 231 301 309.5 185 c 128,-1,16
 388 69 388 69 516.5 69 c 128,-1,17
 645 69 645 69 742 148 c 1,18,-1
 763 102 l 1,19,20
 723 48 723 48 636.5 9 c 128,-1,21
 550 -30 550 -30 457 -30 c 0,22,0
 289 -30 289 -30 190 94.5 c 128,-1,1
288 1163 m 1,23,-1
 356 1218 l 1,24,-1
 513 1062 l 1,25,-1
 523 1062 l 1,26,-1
 655 1215 l 1,27,-1
 696 1186 l 1,28,-1
 523 1004 l 1,29,-1
 467 990 l 1,30,-1
 288 1163 l 1,23,-1
EndSplineSet
EndChar

StartChar: Dcaron
Encoding: 270 270 205
Width: 1344
Flags: W
LayerCount: 2
Fore
SplineSet
409 79 m 1,0,-1
 571 79 l 2,1,2
 831 79 831 79 979 223.5 c 128,-1,3
 1127 368 1127 368 1127 611.5 c 128,-1,4
 1127 855 1127 855 982.5 1018 c 128,-1,5
 838 1181 838 1181 557 1181 c 0,6,7
 450 1181 450 1181 409 1176 c 1,8,-1
 409 79 l 1,0,-1
81 0 m 1,9,-1
 92 58 l 1,10,-1
 263 101 l 1,11,-1
 263 1128 l 1,12,-1
 90 1154 l 1,13,-1
 100 1210 l 1,14,15
 411 1259 411 1259 579.5 1259 c 128,-1,16
 748 1259 748 1259 870 1225 c 0,17,18
 1095 1162 1095 1162 1192.5 1008.5 c 128,-1,19
 1290 855 1290 855 1290 646 c 128,-1,20
 1290 437 1290 437 1170 269.5 c 128,-1,21
 1050 102 1050 102 818 36 c 0,22,23
 693 0 693 0 544 0 c 2,24,-1
 81 0 l 1,9,-1
482 1545 m 1,25,-1
 550 1600 l 1,26,-1
 707 1444 l 1,27,-1
 717 1444 l 1,28,-1
 849 1597 l 1,29,-1
 890 1568 l 1,30,-1
 717 1386 l 1,31,-1
 661 1372 l 1,32,-1
 482 1545 l 1,25,-1
EndSplineSet
EndChar

StartChar: dcaron
Encoding: 271 271 206
Width: 997
Flags: W
LayerCount: 2
Fore
SplineSet
295 713.5 m 128,-1,1
 230 617 230 617 230 446 c 128,-1,2
 230 275 230 275 294 176 c 128,-1,3
 358 77 358 77 474 77 c 0,4,5
 535 77 535 77 600.5 112 c 128,-1,6
 666 147 666 147 700 193 c 1,7,-1
 700 685 l 1,8,9
 659 744 659 744 595.5 777 c 128,-1,10
 532 810 532 810 469 810 c 0,11,0
 360 810 360 810 295 713.5 c 128,-1,1
92 393 m 0,12,13
 92 501 92 501 128.5 596 c 128,-1,14
 165 691 165 691 226 754 c 0,15,16
 355 889 355 889 518 889 c 0,17,18
 567 889 567 889 622 874.5 c 128,-1,19
 677 860 677 860 702 841 c 1,20,-1
 710 841 l 1,21,-1
 696 972 l 1,22,-1
 696 1151 l 1,23,-1
 544 1194 l 1,24,-1
 553 1247 l 1,25,-1
 811 1269 l 1,26,-1
 826 1252 l 1,27,-1
 826 222 l 2,28,29
 826 117 826 117 868 90 c 1,30,31
 891 77 891 77 925 70 c 2,32,-1
 978 58 l 1,33,-1
 969 -2 l 1,34,35
 902 -22 902 -22 840.5 -22 c 128,-1,36
 779 -22 779 -22 744.5 18.5 c 128,-1,37
 710 59 710 59 710 124 c 2,38,-1
 710 131 l 1,39,-1
 700 131 l 1,40,41
 589 -21 589 -21 411 -21 c 0,42,43
 272 -21 272 -21 182 88 c 128,-1,44
 92 197 92 197 92 393 c 0,12,13
878 811 m 1,45,46
 1058 870 1058 870 1058 1001 c 0,47,48
 1058 1054 1058 1054 1026 1089.5 c 128,-1,49
 994 1125 994 1125 946 1125 c 0,50,51
 931 1125 931 1125 917 1122 c 1,52,53
 909 1146 909 1146 909 1163 c 0,54,55
 909 1212 909 1212 941.5 1240.5 c 128,-1,56
 974 1269 974 1269 1026.5 1269 c 128,-1,57
 1079 1269 1079 1269 1127.5 1215 c 128,-1,58
 1176 1161 1176 1161 1176 1069.5 c 128,-1,59
 1176 978 1176 978 1136 916 c 0,60,61
 1063 801 1063 801 896 753 c 1,62,-1
 878 811 l 1,45,46
EndSplineSet
EndChar

StartChar: Dcroat
Encoding: 272 272 207
Width: 1353
Flags: W
LayerCount: 2
Fore
SplineSet
413 79 m 1,0,-1
 609 79 l 2,1,2
 861 79 861 79 999 226.5 c 128,-1,3
 1137 374 1137 374 1137 599 c 0,4,5
 1137 955 1137 955 878 1106 c 0,6,7
 746 1182 746 1182 561 1182 c 0,8,9
 462 1182 462 1182 413 1176 c 1,10,-1
 413 672 l 1,11,-1
 686 692 l 1,12,-1
 676 616 l 1,13,-1
 413 597 l 1,14,-1
 413 79 l 1,0,-1
86 574 m 1,15,-1
 97 650 l 1,16,-1
 267 662 l 1,17,-1
 267 1129 l 1,18,-1
 95 1155 l 1,19,-1
 104 1211 l 1,20,21
 415 1260 415 1260 571.5 1260 c 128,-1,22
 728 1260 728 1260 835.5 1237 c 128,-1,23
 943 1214 943 1214 1018 1172 c 0,24,25
 1174 1086 1174 1086 1237.5 950.5 c 128,-1,26
 1301 815 1301 815 1301 685 c 128,-1,27
 1301 555 1301 555 1272 460 c 0,28,29
 1213 261 1213 261 1030.5 130.5 c 128,-1,30
 848 0 848 0 557 0 c 2,31,-1
 86 0 l 1,32,-1
 97 58 l 1,33,-1
 267 101 l 1,34,-1
 267 587 l 1,35,-1
 86 574 l 1,15,-1
EndSplineSet
EndChar

StartChar: dcroat
Encoding: 273 273 208
Width: 997
Flags: W
LayerCount: 2
Fore
SplineSet
471 999 m 1,0,-1
 481 1063 l 1,1,-1
 696 1063 l 1,2,-1
 696 1151 l 1,3,-1
 544 1194 l 1,4,-1
 553 1247 l 1,5,-1
 811 1269 l 1,6,-1
 826 1252 l 1,7,-1
 826 1063 l 1,8,-1
 950 1063 l 1,9,-1
 940 999 l 1,10,-1
 826 999 l 1,11,-1
 826 222 l 2,12,13
 826 117 826 117 868 90 c 1,14,15
 891 77 891 77 925 70 c 2,16,-1
 978 58 l 1,17,-1
 969 -2 l 1,18,19
 902 -22 902 -22 840.5 -22 c 128,-1,20
 779 -22 779 -22 744.5 18.5 c 128,-1,21
 710 59 710 59 710 124 c 2,22,-1
 710 131 l 1,23,-1
 700 131 l 1,24,25
 589 -21 589 -21 411 -21 c 0,26,27
 272 -21 272 -21 182 88 c 128,-1,28
 92 197 92 197 92 393 c 0,29,30
 92 501 92 501 128.5 596 c 128,-1,31
 165 691 165 691 226 754 c 0,32,33
 355 889 355 889 518 889 c 0,34,35
 567 889 567 889 622 874.5 c 128,-1,36
 677 860 677 860 702 841 c 1,37,-1
 710 841 l 1,38,-1
 696 972 l 1,39,-1
 696 999 l 1,40,-1
 471 999 l 1,0,-1
295 713.5 m 128,-1,42
 230 617 230 617 230 446 c 128,-1,43
 230 275 230 275 294 176 c 128,-1,44
 358 77 358 77 474 77 c 0,45,46
 535 77 535 77 600.5 112 c 128,-1,47
 666 147 666 147 700 193 c 1,48,-1
 700 685 l 1,49,50
 659 744 659 744 595.5 777 c 128,-1,51
 532 810 532 810 469 810 c 0,52,41
 360 810 360 810 295 713.5 c 128,-1,42
EndSplineSet
EndChar

StartChar: Emacron
Encoding: 274 274 209
Width: 1107
Flags: W
LayerCount: 2
Fore
SplineSet
84 1185 m 1,0,-1
 93 1244 l 1,1,-1
 1044 1244 l 1,2,-1
 1013 925 l 1,3,-1
 946 934 l 1,4,-1
 916 1173 l 1,5,-1
 413 1173 l 1,6,-1
 413 668 l 1,7,-1
 728 668 l 1,8,-1
 768 797 l 1,9,-1
 840 808 l 1,10,-1
 807 419 l 1,11,-1
 741 408 l 1,12,-1
 716 594 l 1,13,-1
 413 594 l 1,14,-1
 413 75 l 1,15,-1
 942 75 l 1,16,-1
 1028 324 l 1,17,-1
 1090 313 l 1,18,-1
 1060 0 l 1,19,-1
 90 0 l 1,20,-1
 96 58 l 1,21,-1
 265 96 l 1,22,-1
 265 1151 l 1,23,-1
 84 1185 l 1,0,-1
391 1369 m 1,24,-1
 402 1445 l 1,25,-1
 843 1445 l 1,26,-1
 833 1369 l 1,27,-1
 391 1369 l 1,24,-1
EndSplineSet
EndChar

StartChar: emacron
Encoding: 275 275 210
Width: 812
Flags: W
LayerCount: 2
Fore
SplineSet
237 507 m 1,0,-1
 588 530 l 1,1,2
 595 550 595 550 595 625.5 c 128,-1,3
 595 701 595 701 552.5 755 c 128,-1,4
 510 809 510 809 432 809 c 128,-1,5
 354 809 354 809 297.5 730.5 c 128,-1,6
 241 652 241 652 237 507 c 1,0,-1
762 104 m 1,7,8
 647 -30 647 -30 453 -30 c 0,9,10
 306 -30 306 -30 200 84.5 c 128,-1,11
 94 199 94 199 94 420 c 0,12,13
 94 528 94 528 128 618.5 c 128,-1,14
 162 709 162 709 218 766 c 0,15,16
 336 886 336 886 486 886 c 0,17,18
 601 886 601 886 668.5 810 c 128,-1,19
 736 734 736 734 736 582 c 0,20,21
 736 517 736 517 719 451 c 1,22,-1
 235 445 l 1,23,24
 239 296 239 296 308.5 187 c 128,-1,25
 378 78 378 78 509 78 c 128,-1,26
 640 78 640 78 743 148 c 1,27,-1
 762 104 l 1,7,8
244 990 m 1,28,-1
 255 1066 l 1,29,-1
 696 1066 l 1,30,-1
 686 990 l 1,31,-1
 244 990 l 1,28,-1
EndSplineSet
EndChar

StartChar: Edotaccent
Encoding: 278 278 211
Width: 1107
Flags: W
LayerCount: 2
Fore
SplineSet
84 1185 m 1,0,-1
 93 1244 l 1,1,-1
 1044 1244 l 1,2,-1
 1013 925 l 1,3,-1
 946 934 l 1,4,-1
 916 1173 l 1,5,-1
 413 1173 l 1,6,-1
 413 668 l 1,7,-1
 728 668 l 1,8,-1
 768 797 l 1,9,-1
 840 808 l 1,10,-1
 807 419 l 1,11,-1
 741 408 l 1,12,-1
 716 594 l 1,13,-1
 413 594 l 1,14,-1
 413 75 l 1,15,-1
 942 75 l 1,16,-1
 1028 324 l 1,17,-1
 1090 313 l 1,18,-1
 1060 0 l 1,19,-1
 90 0 l 1,20,-1
 96 58 l 1,21,-1
 265 96 l 1,22,-1
 265 1151 l 1,23,-1
 84 1185 l 1,0,-1
552.5 1402.5 m 128,-1,25
 530 1432 530 1432 530 1478.5 c 128,-1,26
 530 1525 530 1525 553 1553 c 128,-1,27
 576 1581 576 1581 614 1581 c 128,-1,28
 652 1581 652 1581 676 1553 c 128,-1,29
 700 1525 700 1525 700 1478 c 128,-1,30
 700 1431 700 1431 677 1402 c 128,-1,31
 654 1373 654 1373 614.5 1373 c 128,-1,24
 575 1373 575 1373 552.5 1402.5 c 128,-1,25
EndSplineSet
EndChar

StartChar: edotaccent
Encoding: 279 279 212
Width: 812
Flags: W
LayerCount: 2
Fore
SplineSet
237 507 m 1,0,-1
 588 530 l 1,1,2
 595 550 595 550 595 625.5 c 128,-1,3
 595 701 595 701 552.5 755 c 128,-1,4
 510 809 510 809 432 809 c 128,-1,5
 354 809 354 809 297.5 730.5 c 128,-1,6
 241 652 241 652 237 507 c 1,0,-1
762 104 m 1,7,8
 647 -30 647 -30 453 -30 c 0,9,10
 306 -30 306 -30 200 84.5 c 128,-1,11
 94 199 94 199 94 420 c 0,12,13
 94 528 94 528 128 618.5 c 128,-1,14
 162 709 162 709 218 766 c 0,15,16
 336 886 336 886 486 886 c 0,17,18
 601 886 601 886 668.5 810 c 128,-1,19
 736 734 736 734 736 582 c 0,20,21
 736 517 736 517 719 451 c 1,22,-1
 235 445 l 1,23,24
 239 296 239 296 308.5 187 c 128,-1,25
 378 78 378 78 509 78 c 128,-1,26
 640 78 640 78 743 148 c 1,27,-1
 762 104 l 1,7,8
402.5 1017.5 m 128,-1,29
 380 1047 380 1047 380 1093.5 c 128,-1,30
 380 1140 380 1140 403 1168 c 128,-1,31
 426 1196 426 1196 464 1196 c 128,-1,32
 502 1196 502 1196 526 1168 c 128,-1,33
 550 1140 550 1140 550 1093 c 128,-1,34
 550 1046 550 1046 527 1017 c 128,-1,35
 504 988 504 988 464.5 988 c 128,-1,28
 425 988 425 988 402.5 1017.5 c 128,-1,29
EndSplineSet
EndChar

StartChar: Eogonek
Encoding: 280 280 213
Width: 1107
Flags: W
LayerCount: 2
Fore
SplineSet
84 1185 m 1,0,-1
 93 1244 l 1,1,-1
 1044 1244 l 1,2,-1
 1013 925 l 1,3,-1
 946 934 l 1,4,-1
 916 1173 l 1,5,-1
 413 1173 l 1,6,-1
 413 668 l 1,7,-1
 728 668 l 1,8,-1
 768 797 l 1,9,-1
 840 808 l 1,10,-1
 807 419 l 1,11,-1
 741 408 l 1,12,-1
 716 594 l 1,13,-1
 413 594 l 1,14,-1
 413 75 l 1,15,-1
 942 75 l 1,16,-1
 1028 324 l 1,17,-1
 1090 313 l 1,18,-1
 1060 0 l 1,19,-1
 1048 0 l 1,20,21
 987 -89 987 -89 987 -147 c 0,22,23
 987 -256 987 -256 1120 -334 c 1,24,-1
 1086 -377 l 1,25,26
 982 -366 982 -366 923 -316 c 128,-1,27
 864 -266 864 -266 864 -211 c 128,-1,28
 864 -156 864 -156 888.5 -111 c 128,-1,29
 913 -66 913 -66 984 0 c 1,30,-1
 90 0 l 1,31,-1
 96 58 l 1,32,-1
 265 96 l 1,33,-1
 265 1151 l 1,34,-1
 84 1185 l 1,0,-1
EndSplineSet
EndChar

StartChar: eogonek
Encoding: 281 281 214
Width: 812
Flags: W
LayerCount: 2
Fore
SplineSet
237 507 m 1,0,-1
 588 530 l 1,1,2
 595 550 595 550 595 625.5 c 128,-1,3
 595 701 595 701 552.5 755 c 128,-1,4
 510 809 510 809 432 809 c 128,-1,5
 354 809 354 809 297.5 730.5 c 128,-1,6
 241 652 241 652 237 507 c 1,0,-1
743 148 m 1,7,-1
 762 104 l 1,8,9
 667 -6 667 -6 517 -26 c 1,10,11
 453 -118 453 -118 453 -177 c 0,12,13
 453 -286 453 -286 586 -364 c 1,14,-1
 552 -407 l 1,15,16
 448 -396 448 -396 389 -346 c 128,-1,17
 330 -296 330 -296 330 -241 c 128,-1,18
 330 -186 330 -186 354.5 -141 c 128,-1,19
 379 -96 379 -96 450 -30 c 1,20,21
 304 -28 304 -28 199 85.5 c 128,-1,22
 94 199 94 199 94 420 c 0,23,24
 94 528 94 528 128 618.5 c 128,-1,25
 162 709 162 709 218 766 c 0,26,27
 336 886 336 886 486 886 c 0,28,29
 601 886 601 886 668.5 810 c 128,-1,30
 736 734 736 734 736 582 c 0,31,32
 736 517 736 517 719 451 c 1,33,-1
 235 445 l 1,34,35
 239 296 239 296 308.5 187 c 128,-1,36
 378 78 378 78 509 78 c 128,-1,37
 640 78 640 78 743 148 c 1,7,-1
EndSplineSet
EndChar

StartChar: Ecaron
Encoding: 282 282 215
Width: 1107
Flags: W
LayerCount: 2
Fore
SplineSet
84 1185 m 1,0,-1
 93 1244 l 1,1,-1
 1044 1244 l 1,2,-1
 1013 925 l 1,3,-1
 946 934 l 1,4,-1
 916 1173 l 1,5,-1
 413 1173 l 1,6,-1
 413 668 l 1,7,-1
 728 668 l 1,8,-1
 768 797 l 1,9,-1
 840 808 l 1,10,-1
 807 419 l 1,11,-1
 741 408 l 1,12,-1
 716 594 l 1,13,-1
 413 594 l 1,14,-1
 413 75 l 1,15,-1
 942 75 l 1,16,-1
 1028 324 l 1,17,-1
 1090 313 l 1,18,-1
 1060 0 l 1,19,-1
 90 0 l 1,20,-1
 96 58 l 1,21,-1
 265 96 l 1,22,-1
 265 1151 l 1,23,-1
 84 1185 l 1,0,-1
413 1545 m 1,24,-1
 481 1600 l 1,25,-1
 638 1444 l 1,26,-1
 648 1444 l 1,27,-1
 780 1597 l 1,28,-1
 821 1568 l 1,29,-1
 648 1386 l 1,30,-1
 592 1372 l 1,31,-1
 413 1545 l 1,24,-1
EndSplineSet
EndChar

StartChar: ecaron
Encoding: 283 283 216
Width: 812
Flags: W
LayerCount: 2
Fore
SplineSet
237 507 m 1,0,-1
 588 530 l 1,1,2
 595 550 595 550 595 625.5 c 128,-1,3
 595 701 595 701 552.5 755 c 128,-1,4
 510 809 510 809 432 809 c 128,-1,5
 354 809 354 809 297.5 730.5 c 128,-1,6
 241 652 241 652 237 507 c 1,0,-1
762 104 m 1,7,8
 647 -30 647 -30 453 -30 c 0,9,10
 306 -30 306 -30 200 84.5 c 128,-1,11
 94 199 94 199 94 420 c 0,12,13
 94 528 94 528 128 618.5 c 128,-1,14
 162 709 162 709 218 766 c 0,15,16
 336 886 336 886 486 886 c 0,17,18
 601 886 601 886 668.5 810 c 128,-1,19
 736 734 736 734 736 582 c 0,20,21
 736 517 736 517 719 451 c 1,22,-1
 235 445 l 1,23,24
 239 296 239 296 308.5 187 c 128,-1,25
 378 78 378 78 509 78 c 128,-1,26
 640 78 640 78 743 148 c 1,27,-1
 762 104 l 1,7,8
266 1163 m 1,28,-1
 334 1218 l 1,29,-1
 491 1062 l 1,30,-1
 501 1062 l 1,31,-1
 633 1215 l 1,32,-1
 674 1186 l 1,33,-1
 501 1004 l 1,34,-1
 445 990 l 1,35,-1
 266 1163 l 1,28,-1
EndSplineSet
EndChar

StartChar: Gbreve
Encoding: 286 286 217
Width: 1357
Flags: W
LayerCount: 2
Fore
SplineSet
735 1262 m 0,0,1
 991 1262 991 1262 1138 1162 c 1,2,-1
 1110 841 l 1,3,-1
 1044 852 l 1,4,-1
 1011 1066 l 1,5,6
 971 1112 971 1112 886.5 1147 c 128,-1,7
 802 1182 802 1182 693 1182 c 0,8,9
 508 1182 508 1182 390 1037 c 128,-1,10
 272 892 272 892 272 640 c 0,11,12
 272 454 272 454 348 310 c 0,13,14
 480 61 480 61 768 61 c 0,15,16
 898 61 898 61 984 119 c 1,17,-1
 985 463 l 1,18,-1
 746 495 l 1,19,-1
 756 556 l 1,20,-1
 1274 556 l 1,21,-1
 1264 499 l 1,22,-1
 1135 467 l 1,23,-1
 1135 79 l 1,24,25
 1038 21 1038 21 926 -2.5 c 128,-1,26
 814 -26 814 -26 659 -26 c 0,27,28
 407 -26 407 -26 257.5 145 c 128,-1,29
 108 316 108 316 108 591 c 0,30,31
 108 773 108 773 189.5 926.5 c 128,-1,32
 271 1080 271 1080 415.5 1171 c 128,-1,33
 560 1262 560 1262 735 1262 c 0,0,1
543 1551 m 1,34,-1
 573 1579 l 1,35,36
 596 1534 596 1534 637 1499.5 c 128,-1,37
 678 1465 678 1465 733 1465 c 0,38,39
 827 1465 827 1465 892 1581 c 1,40,-1
 926 1556 l 1,41,42
 863 1372 863 1372 725.5 1372 c 128,-1,43
 588 1372 588 1372 543 1551 c 1,34,-1
EndSplineSet
EndChar

StartChar: gbreve
Encoding: 287 287 218
Width: 865
Flags: W
LayerCount: 2
Fore
SplineSet
293.5 764 m 128,-1,1
 252 703 252 703 252 603 c 128,-1,2
 252 503 252 503 306.5 431 c 128,-1,3
 361 359 361 359 433 359 c 128,-1,4
 505 359 505 359 549 411.5 c 128,-1,5
 593 464 593 464 593 566 c 128,-1,6
 593 668 593 668 544.5 746.5 c 128,-1,7
 496 825 496 825 415.5 825 c 128,-1,0
 335 825 335 825 293.5 764 c 128,-1,1
186 -116 m 0,8,9
 186 -299 186 -299 462 -299 c 0,10,11
 567 -299 567 -299 640 -250 c 128,-1,12
 713 -201 713 -201 713 -119 c 128,-1,13
 713 -37 713 -37 669 -10 c 128,-1,14
 625 17 625 17 492 17 c 2,15,-1
 280 17 l 1,16,17
 251 10 251 10 218.5 -25.5 c 128,-1,18
 186 -61 186 -61 186 -116 c 0,8,9
220 35 m 1,19,20
 124 80 124 80 124 162 c 0,21,22
 124 197 124 197 170.5 243.5 c 128,-1,23
 217 290 217 290 276 322 c 1,24,-1
 276 327 l 1,25,26
 227 345 227 345 176 416 c 128,-1,27
 125 487 125 487 125 578 c 0,28,29
 125 702 125 702 220 793.5 c 128,-1,30
 315 885 315 885 430.5 885 c 128,-1,31
 546 885 546 885 635 822 c 1,32,-1
 854 838 l 1,33,-1
 870 820 l 1,34,-1
 835 725 l 1,35,-1
 823 723 l 1,36,-1
 682 764 l 1,37,-1
 679 753 l 1,38,39
 693 728 693 728 708 678.5 c 128,-1,40
 723 629 723 629 723 588 c 0,41,42
 723 506 723 506 674.5 436 c 128,-1,43
 626 366 626 366 554 328.5 c 128,-1,44
 482 291 482 291 421 291 c 128,-1,45
 360 291 360 291 315 306 c 1,46,-1
 282 274 l 2,47,48
 249 241 249 241 249 210 c 0,49,50
 249 132 249 132 419 132 c 2,51,-1
 573 132 l 2,52,53
 701 132 701 132 753.5 106.5 c 128,-1,54
 806 81 806 81 824 42 c 128,-1,55
 842 3 842 3 841 -70 c 128,-1,56
 840 -143 840 -143 777.5 -219 c 128,-1,57
 715 -295 715 -295 612.5 -341 c 128,-1,58
 510 -387 510 -387 376 -387 c 128,-1,59
 242 -387 242 -387 146 -329.5 c 128,-1,60
 50 -272 50 -272 50 -165 c 0,61,62
 50 -93 50 -93 106.5 -47 c 128,-1,63
 163 -1 163 -1 220 28 c 1,64,-1
 220 35 l 1,19,20
252 1169 m 1,65,-1
 282 1197 l 1,66,67
 305 1152 305 1152 346 1117.5 c 128,-1,68
 387 1083 387 1083 442 1083 c 0,69,70
 536 1083 536 1083 601 1199 c 1,71,-1
 635 1174 l 1,72,73
 572 990 572 990 434.5 990 c 128,-1,74
 297 990 297 990 252 1169 c 1,65,-1
EndSplineSet
EndChar

StartChar: Gdotaccent
Encoding: 288 288 219
Width: 1357
Flags: W
LayerCount: 2
Fore
SplineSet
735 1262 m 0,0,1
 991 1262 991 1262 1138 1162 c 1,2,-1
 1110 841 l 1,3,-1
 1044 852 l 1,4,-1
 1011 1066 l 1,5,6
 971 1112 971 1112 886.5 1147 c 128,-1,7
 802 1182 802 1182 693 1182 c 0,8,9
 508 1182 508 1182 390 1037 c 128,-1,10
 272 892 272 892 272 640 c 0,11,12
 272 454 272 454 348 310 c 0,13,14
 480 61 480 61 768 61 c 0,15,16
 898 61 898 61 984 119 c 1,17,-1
 985 463 l 1,18,-1
 746 495 l 1,19,-1
 756 556 l 1,20,-1
 1274 556 l 1,21,-1
 1264 499 l 1,22,-1
 1135 467 l 1,23,-1
 1135 79 l 1,24,25
 1038 21 1038 21 926 -2.5 c 128,-1,26
 814 -26 814 -26 659 -26 c 0,27,28
 407 -26 407 -26 257.5 145 c 128,-1,29
 108 316 108 316 108 591 c 0,30,31
 108 773 108 773 189.5 926.5 c 128,-1,32
 271 1080 271 1080 415.5 1171 c 128,-1,33
 560 1262 560 1262 735 1262 c 0,0,1
650.5 1402.5 m 128,-1,35
 628 1432 628 1432 628 1478.5 c 128,-1,36
 628 1525 628 1525 651 1553 c 128,-1,37
 674 1581 674 1581 712 1581 c 128,-1,38
 750 1581 750 1581 774 1553 c 128,-1,39
 798 1525 798 1525 798 1478 c 128,-1,40
 798 1431 798 1431 775 1402 c 128,-1,41
 752 1373 752 1373 712.5 1373 c 128,-1,34
 673 1373 673 1373 650.5 1402.5 c 128,-1,35
EndSplineSet
EndChar

StartChar: gdotaccent
Encoding: 289 289 220
Width: 865
Flags: W
LayerCount: 2
Fore
SplineSet
293.5 764 m 128,-1,1
 252 703 252 703 252 603 c 128,-1,2
 252 503 252 503 306.5 431 c 128,-1,3
 361 359 361 359 433 359 c 128,-1,4
 505 359 505 359 549 411.5 c 128,-1,5
 593 464 593 464 593 566 c 128,-1,6
 593 668 593 668 544.5 746.5 c 128,-1,7
 496 825 496 825 415.5 825 c 128,-1,0
 335 825 335 825 293.5 764 c 128,-1,1
186 -116 m 0,8,9
 186 -299 186 -299 462 -299 c 0,10,11
 567 -299 567 -299 640 -250 c 128,-1,12
 713 -201 713 -201 713 -119 c 128,-1,13
 713 -37 713 -37 669 -10 c 128,-1,14
 625 17 625 17 492 17 c 2,15,-1
 280 17 l 1,16,17
 251 10 251 10 218.5 -25.5 c 128,-1,18
 186 -61 186 -61 186 -116 c 0,8,9
220 35 m 1,19,20
 124 80 124 80 124 162 c 0,21,22
 124 197 124 197 170.5 243.5 c 128,-1,23
 217 290 217 290 276 322 c 1,24,-1
 276 327 l 1,25,26
 227 345 227 345 176 416 c 128,-1,27
 125 487 125 487 125 578 c 0,28,29
 125 702 125 702 220 793.5 c 128,-1,30
 315 885 315 885 430.5 885 c 128,-1,31
 546 885 546 885 635 822 c 1,32,-1
 854 838 l 1,33,-1
 870 820 l 1,34,-1
 835 725 l 1,35,-1
 823 723 l 1,36,-1
 682 764 l 1,37,-1
 679 753 l 1,38,39
 693 728 693 728 708 678.5 c 128,-1,40
 723 629 723 629 723 588 c 0,41,42
 723 506 723 506 674.5 436 c 128,-1,43
 626 366 626 366 554 328.5 c 128,-1,44
 482 291 482 291 421 291 c 128,-1,45
 360 291 360 291 315 306 c 1,46,-1
 282 274 l 2,47,48
 249 241 249 241 249 210 c 0,49,50
 249 132 249 132 419 132 c 2,51,-1
 573 132 l 2,52,53
 701 132 701 132 753.5 106.5 c 128,-1,54
 806 81 806 81 824 42 c 128,-1,55
 842 3 842 3 841 -70 c 128,-1,56
 840 -143 840 -143 777.5 -219 c 128,-1,57
 715 -295 715 -295 612.5 -341 c 128,-1,58
 510 -387 510 -387 376 -387 c 128,-1,59
 242 -387 242 -387 146 -329.5 c 128,-1,60
 50 -272 50 -272 50 -165 c 0,61,62
 50 -93 50 -93 106.5 -47 c 128,-1,63
 163 -1 163 -1 220 28 c 1,64,-1
 220 35 l 1,19,20
369.5 1017.5 m 128,-1,66
 347 1047 347 1047 347 1093.5 c 128,-1,67
 347 1140 347 1140 370 1168 c 128,-1,68
 393 1196 393 1196 431 1196 c 128,-1,69
 469 1196 469 1196 493 1168 c 128,-1,70
 517 1140 517 1140 517 1093 c 128,-1,71
 517 1046 517 1046 494 1017 c 128,-1,72
 471 988 471 988 431.5 988 c 128,-1,65
 392 988 392 988 369.5 1017.5 c 128,-1,66
EndSplineSet
EndChar

StartChar: Gcommaaccent
Encoding: 290 290 221
Width: 1357
Flags: W
LayerCount: 2
Fore
SplineSet
735 1262 m 0,0,1
 991 1262 991 1262 1138 1162 c 1,2,-1
 1110 841 l 1,3,-1
 1044 852 l 1,4,-1
 1011 1066 l 1,5,6
 971 1112 971 1112 886.5 1147 c 128,-1,7
 802 1182 802 1182 693 1182 c 0,8,9
 508 1182 508 1182 390 1037 c 128,-1,10
 272 892 272 892 272 640 c 0,11,12
 272 454 272 454 348 310 c 0,13,14
 480 61 480 61 768 61 c 0,15,16
 898 61 898 61 984 119 c 1,17,-1
 985 463 l 1,18,-1
 746 495 l 1,19,-1
 756 556 l 1,20,-1
 1274 556 l 1,21,-1
 1264 499 l 1,22,-1
 1135 467 l 1,23,-1
 1135 79 l 1,24,25
 1038 21 1038 21 926 -2.5 c 128,-1,26
 814 -26 814 -26 659 -26 c 0,27,28
 407 -26 407 -26 257.5 145 c 128,-1,29
 108 316 108 316 108 591 c 0,30,31
 108 773 108 773 189.5 926.5 c 128,-1,32
 271 1080 271 1080 415.5 1171 c 128,-1,33
 560 1262 560 1262 735 1262 c 0,0,1
598 -340 m 1,34,35
 708 -314 708 -314 708 -239 c 0,36,37
 708 -205 708 -205 678 -181.5 c 128,-1,38
 648 -158 648 -158 615 -155 c 1,39,40
 618 -126 618 -126 642 -103 c 128,-1,41
 666 -80 666 -80 703 -80 c 128,-1,42
 740 -80 740 -80 770.5 -110.5 c 128,-1,43
 801 -141 801 -141 801 -182 c 0,44,45
 801 -249 801 -249 760 -306 c 128,-1,46
 719 -363 719 -363 615 -385 c 1,47,-1
 598 -340 l 1,34,35
EndSplineSet
EndChar

StartChar: gcommaaccent
Encoding: 291 291 222
Width: 865
Flags: W
LayerCount: 2
Fore
SplineSet
538 1250 m 1,0,1
 428 1224 428 1224 428 1149 c 0,2,3
 428 1115 428 1115 458 1091.5 c 128,-1,4
 488 1068 488 1068 521 1065 c 1,5,6
 518 1036 518 1036 494 1013 c 128,-1,7
 470 990 470 990 433 990 c 128,-1,8
 396 990 396 990 365.5 1020.5 c 128,-1,9
 335 1051 335 1051 335 1092 c 0,10,11
 335 1159 335 1159 376 1216 c 128,-1,12
 417 1273 417 1273 521 1295 c 1,13,-1
 538 1250 l 1,0,1
293.5 764 m 128,-1,15
 252 703 252 703 252 603 c 128,-1,16
 252 503 252 503 306.5 431 c 128,-1,17
 361 359 361 359 433 359 c 128,-1,18
 505 359 505 359 549 411.5 c 128,-1,19
 593 464 593 464 593 566 c 128,-1,20
 593 668 593 668 544.5 746.5 c 128,-1,21
 496 825 496 825 415.5 825 c 128,-1,14
 335 825 335 825 293.5 764 c 128,-1,15
186 -116 m 0,22,23
 186 -299 186 -299 462 -299 c 0,24,25
 567 -299 567 -299 640 -250 c 128,-1,26
 713 -201 713 -201 713 -119 c 128,-1,27
 713 -37 713 -37 669 -10 c 128,-1,28
 625 17 625 17 492 17 c 2,29,-1
 280 17 l 1,30,31
 251 10 251 10 218.5 -25.5 c 128,-1,32
 186 -61 186 -61 186 -116 c 0,22,23
220 35 m 1,33,34
 124 80 124 80 124 162 c 0,35,36
 124 197 124 197 170.5 243.5 c 128,-1,37
 217 290 217 290 276 322 c 1,38,-1
 276 327 l 1,39,40
 227 345 227 345 176 416 c 128,-1,41
 125 487 125 487 125 578 c 0,42,43
 125 702 125 702 220 793.5 c 128,-1,44
 315 885 315 885 430.5 885 c 128,-1,45
 546 885 546 885 635 822 c 1,46,-1
 854 838 l 1,47,-1
 870 820 l 1,48,-1
 835 725 l 1,49,-1
 823 723 l 1,50,-1
 682 764 l 1,51,-1
 679 753 l 1,52,53
 693 728 693 728 708 678.5 c 128,-1,54
 723 629 723 629 723 588 c 0,55,56
 723 506 723 506 674.5 436 c 128,-1,57
 626 366 626 366 554 328.5 c 128,-1,58
 482 291 482 291 421 291 c 128,-1,59
 360 291 360 291 315 306 c 1,60,-1
 282 274 l 2,61,62
 249 241 249 241 249 210 c 0,63,64
 249 132 249 132 419 132 c 2,65,-1
 573 132 l 2,66,67
 701 132 701 132 753.5 106.5 c 128,-1,68
 806 81 806 81 824 42 c 128,-1,69
 842 3 842 3 841 -70 c 128,-1,70
 840 -143 840 -143 777.5 -219 c 128,-1,71
 715 -295 715 -295 612.5 -341 c 128,-1,72
 510 -387 510 -387 376 -387 c 128,-1,73
 242 -387 242 -387 146 -329.5 c 128,-1,74
 50 -272 50 -272 50 -165 c 0,75,76
 50 -93 50 -93 106.5 -47 c 128,-1,77
 163 -1 163 -1 220 28 c 1,78,-1
 220 35 l 1,33,34
EndSplineSet
EndChar

StartChar: Hbar
Encoding: 294 294 223
Width: 1450
Flags: W
LayerCount: 2
Fore
SplineSet
1101 920 m 1,0,-1
 428 920 l 1,1,-1
 428 672 l 1,2,-1
 1101 672 l 1,3,-1
 1101 920 l 1,0,-1
123 908 m 1,4,-1
 132 1002 l 1,5,-1
 279 1002 l 1,6,-1
 279 1154 l 1,7,-1
 97 1187 l 1,8,-1
 104 1244 l 1,9,-1
 605 1244 l 1,10,-1
 597 1187 l 1,11,-1
 428 1156 l 1,12,-1
 428 990 l 1,13,-1
 1101 990 l 1,14,-1
 1101 1154 l 1,15,-1
 918 1187 l 1,16,-1
 927 1244 l 1,17,-1
 1427 1244 l 1,18,-1
 1418 1187 l 1,19,-1
 1251 1156 l 1,20,-1
 1251 1002 l 1,21,-1
 1377 1002 l 1,22,-1
 1371 908 l 1,23,-1
 1251 908 l 1,24,-1
 1251 90 l 1,25,-1
 1433 63 l 1,26,-1
 1425 0 l 1,27,-1
 926 0 l 1,28,-1
 936 58 l 1,29,-1
 1101 96 l 1,30,-1
 1101 592 l 1,31,-1
 428 591 l 1,32,-1
 428 90 l 1,33,-1
 614 63 l 1,34,-1
 602 0 l 1,35,-1
 105 0 l 1,36,-1
 111 58 l 1,37,-1
 279 96 l 1,38,-1
 279 908 l 1,39,-1
 123 908 l 1,4,-1
EndSplineSet
EndChar

StartChar: hbar
Encoding: 295 295 224
Width: 1046
Flags: W
LayerCount: 2
Fore
SplineSet
335 733 m 1,0,1
 479 891 479 891 654 891 c 0,2,3
 751 891 751 891 811.5 821 c 128,-1,4
 872 751 872 751 872 588 c 2,5,-1
 872 86 l 1,6,-1
 1014 58 l 1,7,-1
 1005 0 l 1,8,-1
 594 0 l 1,9,-1
 603 54 l 1,10,-1
 740 86 l 1,11,-1
 743 561 l 1,12,-1
 743 568 l 2,13,14
 743 681 743 681 694 732 c 128,-1,15
 645 783 645 783 569 783 c 0,16,17
 443 783 443 783 340 670 c 1,18,-1
 340 87 l 1,19,-1
 485 58 l 1,20,-1
 475 0 l 1,21,-1
 43 0 l 1,22,-1
 54 57 l 1,23,-1
 208 87 l 1,24,-1
 208 978 l 1,25,-1
 30 978 l 1,26,-1
 39 1043 l 1,27,-1
 208 1043 l 1,28,-1
 208 1154 l 1,29,-1
 51 1196 l 1,30,-1
 60 1250 l 1,31,-1
 324 1271 l 1,32,-1
 340 1254 l 1,33,-1
 340 1043 l 1,34,-1
 667 1043 l 1,35,-1
 659 978 l 1,36,-1
 340 978 l 1,37,-1
 340 839 l 1,38,-1
 327 733 l 1,39,-1
 335 733 l 1,0,1
EndSplineSet
EndChar

StartChar: Imacron
Encoding: 298 298 225
Width: 674
Flags: W
LayerCount: 2
Fore
SplineSet
86 1187 m 1,0,-1
 94 1244 l 1,1,-1
 595 1244 l 1,2,-1
 586 1187 l 1,3,-1
 414 1156 l 1,4,-1
 414 90 l 1,5,-1
 601 63 l 1,6,-1
 591 0 l 1,7,-1
 94 0 l 1,8,-1
 101 58 l 1,9,-1
 263 96 l 1,10,-1
 263 1154 l 1,11,-1
 86 1187 l 1,0,-1
118 1373 m 1,12,-1
 129 1449 l 1,13,-1
 570 1449 l 1,14,-1
 560 1373 l 1,15,-1
 118 1373 l 1,12,-1
EndSplineSet
EndChar

StartChar: imacron
Encoding: 299 299 226
Width: 555
Flags: W
LayerCount: 2
Fore
SplineSet
80 0 m 1,0,-1
 92 55 l 1,1,-1
 243 87 l 1,2,-1
 243 772 l 1,3,-1
 91 814 l 1,4,-1
 99 865 l 1,5,-1
 358 887 l 1,6,-1
 374 871 l 1,7,-1
 374 87 l 1,8,-1
 534 57 l 1,9,-1
 523 0 l 1,10,-1
 80 0 l 1,0,-1
66 990 m 1,11,-1
 77 1066 l 1,12,-1
 518 1066 l 1,13,-1
 508 990 l 1,14,-1
 66 990 l 1,11,-1
EndSplineSet
EndChar

StartChar: Iogonek
Encoding: 302 302 227
Width: 674
Flags: W
LayerCount: 2
Fore
SplineSet
86 1187 m 1,0,-1
 94 1244 l 1,1,-1
 595 1244 l 1,2,-1
 586 1187 l 1,3,-1
 414 1156 l 1,4,-1
 414 90 l 1,5,-1
 601 63 l 1,6,-1
 591 0 l 1,7,-1
 566 0 l 1,8,9
 505 -89 505 -89 505 -147 c 0,10,11
 505 -256 505 -256 638 -334 c 1,12,-1
 604 -377 l 1,13,14
 500 -366 500 -366 441 -316 c 128,-1,15
 382 -266 382 -266 382 -211 c 128,-1,16
 382 -156 382 -156 406.5 -111 c 128,-1,17
 431 -66 431 -66 502 0 c 1,18,-1
 94 0 l 1,19,-1
 101 58 l 1,20,-1
 263 96 l 1,21,-1
 263 1154 l 1,22,-1
 86 1187 l 1,0,-1
EndSplineSet
EndChar

StartChar: iogonek
Encoding: 303 303 228
Width: 555
Flags: W
LayerCount: 2
Fore
SplineSet
80 0 m 1,0,-1
 92 55 l 1,1,-1
 243 87 l 1,2,-1
 243 772 l 1,3,-1
 91 814 l 1,4,-1
 99 865 l 1,5,-1
 358 887 l 1,6,-1
 374 871 l 1,7,-1
 374 87 l 1,8,-1
 534 57 l 1,9,-1
 523 0 l 1,10,-1
 496 0 l 1,11,12
 435 -89 435 -89 435 -147 c 0,13,14
 435 -256 435 -256 568 -334 c 1,15,-1
 534 -377 l 1,16,17
 430 -366 430 -366 371 -316 c 128,-1,18
 312 -266 312 -266 312 -211 c 128,-1,19
 312 -156 312 -156 336.5 -111 c 128,-1,20
 361 -66 361 -66 432 0 c 1,21,-1
 80 0 l 1,0,-1
235.5 1122.5 m 128,-1,23
 213 1152 213 1152 213 1198.5 c 128,-1,24
 213 1245 213 1245 236 1273 c 128,-1,25
 259 1301 259 1301 297 1301 c 128,-1,26
 335 1301 335 1301 359 1273 c 128,-1,27
 383 1245 383 1245 383 1198 c 128,-1,28
 383 1151 383 1151 360 1122 c 128,-1,29
 337 1093 337 1093 297.5 1093 c 128,-1,22
 258 1093 258 1093 235.5 1122.5 c 128,-1,23
EndSplineSet
EndChar

StartChar: Idotaccent
Encoding: 304 304 229
Width: 674
Flags: W
LayerCount: 2
Fore
SplineSet
86 1187 m 1,0,-1
 94 1244 l 1,1,-1
 595 1244 l 1,2,-1
 586 1187 l 1,3,-1
 414 1156 l 1,4,-1
 414 90 l 1,5,-1
 601 63 l 1,6,-1
 591 0 l 1,7,-1
 94 0 l 1,8,-1
 101 58 l 1,9,-1
 263 96 l 1,10,-1
 263 1154 l 1,11,-1
 86 1187 l 1,0,-1
277.5 1402.5 m 128,-1,13
 255 1432 255 1432 255 1478.5 c 128,-1,14
 255 1525 255 1525 278 1553 c 128,-1,15
 301 1581 301 1581 339 1581 c 128,-1,16
 377 1581 377 1581 401 1553 c 128,-1,17
 425 1525 425 1525 425 1478 c 128,-1,18
 425 1431 425 1431 402 1402 c 128,-1,19
 379 1373 379 1373 339.5 1373 c 128,-1,12
 300 1373 300 1373 277.5 1402.5 c 128,-1,13
EndSplineSet
EndChar

StartChar: dotlessi
Encoding: 305 305 230
Width: 555
Flags: W
LayerCount: 2
Fore
SplineSet
80 0 m 1,0,-1
 92 55 l 1,1,-1
 243 87 l 1,2,-1
 243 772 l 1,3,-1
 91 814 l 1,4,-1
 99 865 l 1,5,-1
 358 887 l 1,6,-1
 374 871 l 1,7,-1
 374 87 l 1,8,-1
 534 57 l 1,9,-1
 523 0 l 1,10,-1
 80 0 l 1,0,-1
EndSplineSet
EndChar

StartChar: Kcommaaccent
Encoding: 310 310 231
Width: 1225
Flags: W
LayerCount: 2
Fore
SplineSet
454 623 m 1,0,1
 554 728 554 728 604 790 c 2,2,-1
 893 1151 l 1,3,-1
 728 1187 l 1,4,-1
 734 1244 l 1,5,-1
 1184 1244 l 1,6,-1
 1177 1187 l 1,7,-1
 1012 1152 l 1,8,-1
 601 649 l 1,9,-1
 846 358 l 2,10,11
 974 206 974 206 1040 147 c 128,-1,12
 1106 88 1106 88 1191 68 c 1,13,-1
 1237 58 l 1,14,-1
 1226 2 l 1,15,16
 1160 -21 1160 -21 1106 -21 c 0,17,18
 999 -21 999 -21 915 50 c 128,-1,19
 831 121 831 121 733 246 c 1,20,-1
 456 604 l 1,21,-1
 454 623 l 1,0,1
83 1187 m 1,22,-1
 93 1244 l 1,23,-1
 593 1244 l 1,24,-1
 586 1187 l 1,25,-1
 415 1152 l 1,26,-1
 415 95 l 1,27,-1
 602 63 l 1,28,-1
 592 0 l 1,29,-1
 92 0 l 1,30,-1
 100 58 l 1,31,-1
 264 101 l 1,32,-1
 264 1149 l 1,33,-1
 83 1187 l 1,22,-1
639 -340 m 1,34,35
 749 -314 749 -314 749 -239 c 0,36,37
 749 -205 749 -205 719 -181.5 c 128,-1,38
 689 -158 689 -158 656 -155 c 1,39,40
 659 -126 659 -126 683 -103 c 128,-1,41
 707 -80 707 -80 744 -80 c 128,-1,42
 781 -80 781 -80 811.5 -110.5 c 128,-1,43
 842 -141 842 -141 842 -182 c 0,44,45
 842 -249 842 -249 801 -306 c 128,-1,46
 760 -363 760 -363 656 -385 c 1,47,-1
 639 -340 l 1,34,35
EndSplineSet
EndChar

StartChar: kcommaaccent
Encoding: 311 311 232
Width: 977
Flags: W
LayerCount: 2
Fore
SplineSet
382 429 m 1,0,-1
 382 447 l 1,1,-1
 668 781 l 1,2,-1
 534 818 l 1,3,-1
 542 873 l 1,4,-1
 935 873 l 1,5,-1
 925 819 l 1,6,-1
 775 782 l 1,7,-1
 510 473 l 1,8,-1
 742 196 l 1,9,10
 804 124 804 124 845 97.5 c 128,-1,11
 886 71 886 71 942 64 c 2,12,-1
 981 59 l 1,13,-1
 972 0 l 1,14,15
 912 -20 912 -20 864.5 -20 c 128,-1,16
 817 -20 817 -20 783 -8.5 c 128,-1,17
 749 3 749 3 694 51.5 c 128,-1,18
 639 100 639 100 516 258 c 2,19,-1
 382 429 l 1,0,-1
59 0 m 1,20,-1
 69 55 l 1,21,-1
 223 87 l 1,22,-1
 223 1151 l 1,23,-1
 67 1192 l 1,24,-1
 73 1244 l 1,25,-1
 336 1266 l 1,26,-1
 352 1249 l 1,27,-1
 352 87 l 1,28,-1
 512 57 l 1,29,-1
 503 0 l 1,30,-1
 59 0 l 1,20,-1
528 -340 m 1,31,32
 638 -314 638 -314 638 -239 c 0,33,34
 638 -205 638 -205 608 -181.5 c 128,-1,35
 578 -158 578 -158 545 -155 c 1,36,37
 548 -126 548 -126 572 -103 c 128,-1,38
 596 -80 596 -80 633 -80 c 128,-1,39
 670 -80 670 -80 700.5 -110.5 c 128,-1,40
 731 -141 731 -141 731 -182 c 0,41,42
 731 -249 731 -249 690 -306 c 128,-1,43
 649 -363 649 -363 545 -385 c 1,44,-1
 528 -340 l 1,31,32
EndSplineSet
EndChar

StartChar: Lacute
Encoding: 313 313 233
Width: 1088
Flags: W
LayerCount: 2
Fore
SplineSet
94 0 m 1,0,-1
 102 58 l 1,1,-1
 269 96 l 1,2,-1
 269 1148 l 1,3,-1
 89 1186 l 1,4,-1
 98 1244 l 1,5,-1
 600 1244 l 1,6,-1
 593 1186 l 1,7,-1
 418 1152 l 1,8,-1
 418 75 l 1,9,-1
 905 75 l 1,10,-1
 1010 341 l 1,11,-1
 1074 331 l 1,12,-1
 1040 0 l 1,13,-1
 94 0 l 1,0,-1
294 1402 m 1,14,-1
 422 1732 l 1,15,-1
 525 1693 l 1,16,-1
 343 1372 l 1,17,-1
 294 1402 l 1,14,-1
EndSplineSet
EndChar

StartChar: lacute
Encoding: 314 314 234
Width: 540
Flags: W
LayerCount: 2
Fore
SplineSet
59 0 m 1,0,-1
 69 55 l 1,1,-1
 223 87 l 1,2,-1
 223 1156 l 1,3,-1
 67 1197 l 1,4,-1
 73 1249 l 1,5,-1
 335 1270 l 1,6,-1
 352 1254 l 1,7,-1
 352 87 l 1,8,-1
 513 57 l 1,9,-1
 501 0 l 1,10,-1
 59 0 l 1,0,-1
238 1399 m 1,11,-1
 366 1729 l 1,12,-1
 469 1690 l 1,13,-1
 287 1369 l 1,14,-1
 238 1399 l 1,11,-1
EndSplineSet
EndChar

